solid rotorBlades
facet normal -0.0 -2.5665329e-06 -6.87688e-07
  outer loop
    vertex 0.025 -0.0103527615 0.038637035
    vertex 0.0070047444 -0.0103527615 0.038637035
    vertex 0.0070611704 -0.0103145465 0.03849441
  endloop
endfacet
facet normal 1.1191048e-13 -4.7789235e-06 -1.2804996e-06
  outer loop
    vertex 0.025 -0.0103527615 0.038637035
    vertex 0.0070611704 -0.0103145465 0.03849441
    vertex 0.007164013 -0.010243384 0.03822883
  endloop
endfacet
facet normal 2.2026825e-13 -4.8468687e-06 -1.29871e-06
  outer loop
    vertex 0.025 -0.0103527615 0.038637035
    vertex 0.007164013 -0.010243384 0.03822883
    vertex 0.007266138 -0.010171196 0.03795942
  endloop
endfacet
facet normal 1.3926638e-12 -4.913695e-06 -1.3166466e-06
  outer loop
    vertex 0.025 -0.0103527615 0.038637035
    vertex 0.007266138 -0.010171196 0.03795942
    vertex 0.0073675364 -0.01009799 0.037686214
  endloop
endfacet
facet normal -1.1084467e-12 -4.979598e-06 -1.3342597e-06
  outer loop
    vertex 0.025 -0.0103527615 0.038637035
    vertex 0.0073675364 -0.01009799 0.037686214
    vertex 0.0074681975 -0.010023774 0.03740923
  endloop
endfacet
facet normal 9.663381e-13 -5.0443177e-06 -1.351631e-06
  outer loop
    vertex 0.025 -0.0103527615 0.038637035
    vertex 0.0074681975 -0.010023774 0.03740923
    vertex 0.0075681102 -0.009948553 0.037128504
  endloop
endfacet
facet normal 2.2737368e-13 -5.1079223e-06 -1.3686636e-06
  outer loop
    vertex 0.025 -0.0103527615 0.038637035
    vertex 0.0075681102 -0.009948553 0.037128504
    vertex 0.007667266 -0.009872337 0.036844064
  endloop
endfacet
facet normal -1.1368684e-13 -5.1705356e-06 -1.3854378e-06
  outer loop
    vertex 0.025 -0.0103527615 0.038637035
    vertex 0.007667266 -0.009872337 0.036844064
    vertex 0.007765654 -0.009795132 0.03655593
  endloop
endfacet
facet normal -1.0231815e-12 -5.231959e-06 -1.4018897e-06
  outer loop
    vertex 0.025 -0.0103527615 0.038637035
    vertex 0.007765654 -0.009795132 0.03655593
    vertex 0.0078632645 -0.009716948 0.03626414
  endloop
endfacet
facet normal 1.364242e-12 -5.2922733e-06 -1.4180678e-06
  outer loop
    vertex 0.025 -0.0103527615 0.038637035
    vertex 0.0078632645 -0.009716948 0.03626414
    vertex 0.007960089 -0.00963779 0.03596872
  endloop
endfacet
facet normal 2.2737368e-13 -5.3515323e-06 -1.4339394e-06
  outer loop
    vertex 0.025 -0.0103527615 0.038637035
    vertex 0.007960089 -0.00963779 0.03596872
    vertex 0.008056115 -0.009557667 0.0356697
  endloop
endfacet
facet normal -1.8189894e-12 -5.409609e-06 -1.4494872e-06
  outer loop
    vertex 0.025 -0.0103527615 0.038637035
    vertex 0.008056115 -0.009557667 0.0356697
    vertex 0.008151336 -0.009476589 0.03536711
  endloop
endfacet
facet normal 3.4106051e-12 -5.466569e-06 -1.4647794e-06
  outer loop
    vertex 0.025 -0.0103527615 0.038637035
    vertex 0.008151336 -0.009476589 0.03536711
    vertex 0.00824574 -0.009394561 0.03506098
  endloop
endfacet
facet normal -2.046363e-12 -5.5224664e-06 -1.4797297e-06
  outer loop
    vertex 0.025 -0.0103527615 0.038637035
    vertex 0.00824574 -0.009394561 0.03506098
    vertex 0.008339318 -0.009311593 0.034751337
  endloop
endfacet
facet normal 1.364242e-12 -5.577145e-06 -1.4943944e-06
  outer loop
    vertex 0.025 -0.0103527615 0.038637035
    vertex 0.008339318 -0.009311593 0.034751337
    vertex 0.008432063 -0.009227693 0.03443822
  endloop
endfacet
facet normal 0.0 -5.6307545e-06 -1.5087535e-06
  outer loop
    vertex 0.025 -0.0103527615 0.038637035
    vertex 0.008432063 -0.009227693 0.03443822
    vertex 0.008523963 -0.009142869 0.03412165
  endloop
endfacet
facet normal 4.5474735e-13 -5.683185e-06 -1.5228052e-06
  outer loop
    vertex 0.025 -0.0103527615 0.038637035
    vertex 0.008523963 -0.009142869 0.03412165
    vertex 0.00861501 -0.00905713 0.033801667
  endloop
endfacet
facet normal 0.0 -5.8341902e-06 -1.5632664e-06
  outer loop
    vertex 0.012499374 -0.00012506131 0.0004667352
    vertex 0.0125 -3.469447e-18 6.938894e-18
    vertex 0.025 0.0 0.0
  endloop
endfacet
facet normal -4.5474735e-13 -5.7344296e-06 -1.5365313e-06
  outer loop
    vertex 0.025 -0.0103527615 0.038637035
    vertex 0.00861501 -0.00905713 0.033801667
    vertex 0.008705195 -0.008970484 0.0334783
  endloop
endfacet
facet normal -7.1054274e-15 -5.833022e-06 -1.5629536e-06
  outer loop
    vertex 0.012497498 -0.0002501101 0.00093342364
    vertex 0.012499374 -0.00012506131 0.0004667352
    vertex 0.025 0.0 0.0
  endloop
endfacet
facet normal 1.8189894e-12 -5.7845027e-06 -1.5499554e-06
  outer loop
    vertex 0.025 -0.0103527615 0.038637035
    vertex 0.008705195 -0.008970484 0.0334783
    vertex 0.008794508 -0.008882941 0.033151586
  endloop
endfacet
facet normal 0.0 -5.830686e-06 -1.5623275e-06
  outer loop
    vertex 0.012494369 -0.00037513388 0.0014000187
    vertex 0.012497498 -0.0002501101 0.00093342364
    vertex 0.025 0.0 0.0
  endloop
endfacet
facet normal 1.8189894e-12 -5.833477e-06 -1.5630812e-06
  outer loop
    vertex 0.025 -0.0103527615 0.038637035
    vertex 0.008794508 -0.008882941 0.033151586
    vertex 0.008882941 -0.008794508 0.03282155
  endloop
endfacet
facet normal -5.456968e-12 -5.8813093e-06 -1.575876e-06
  outer loop
    vertex 0.025 -0.0103527615 0.038637035
    vertex 0.008882941 -0.008794508 0.03282155
    vertex 0.008970484 -0.008705195 0.032488227
  endloop
endfacet
facet normal -1.4210855e-14 -5.827183e-06 -1.5613892e-06
  outer loop
    vertex 0.012489991 -0.0005001201 0.0018664736
    vertex 0.012494369 -0.00037513388 0.0014000187
    vertex 0.025 0.0 0.0
  endloop
endfacet
facet normal 2.728484e-12 -5.9278536e-06 -1.5883688e-06
  outer loop
    vertex 0.025 -0.0103527615 0.038637035
    vertex 0.008970484 -0.008705195 0.032488227
    vertex 0.00905713 -0.00861501 0.032151654
  endloop
endfacet
facet normal 8.526513e-14 -5.8225114e-06 -1.5601368e-06
  outer loop
    vertex 0.012484362 -0.0006250562 0.0023327416
    vertex 0.012489991 -0.0005001201 0.0018664736
    vertex 0.025 0.0 0.0
  endloop
endfacet
facet normal 2.728484e-12 -5.973314e-06 -1.6005488e-06
  outer loop
    vertex 0.025 -0.0103527615 0.038637035
    vertex 0.00905713 -0.00861501 0.032151654
    vertex 0.009142869 -0.008523963 0.031811863
  endloop
endfacet
facet normal -5.684342e-14 -5.816673e-06 -1.5585731e-06
  outer loop
    vertex 0.012477484 -0.0007499298 0.0027987761
    vertex 0.012484362 -0.0006250562 0.0023327416
    vertex 0.025 0.0 0.0
  endloop
endfacet
facet normal 0.0 -6.0175516e-06 -1.6123959e-06
  outer loop
    vertex 0.025 -0.0103527615 0.038637035
    vertex 0.009142869 -0.008523963 0.031811863
    vertex 0.009227693 -0.008432063 0.031468887
  endloop
endfacet
facet normal 4.5474735e-12 -6.0606035e-06 -1.6239428e-06
  outer loop
    vertex 0.025 -0.0103527615 0.038637035
    vertex 0.009227693 -0.008432063 0.031468887
    vertex 0.009311593 -0.008339318 0.03112276
  endloop
endfacet
facet normal 2.842171e-14 -5.8096725e-06 -1.5566968e-06
  outer loop
    vertex 0.012469357 -0.0008747283 0.0032645306
    vertex 0.012477484 -0.0007499298 0.0027987761
    vertex 0.025 0.0 0.0
  endloop
endfacet
facet normal -3.637979e-12 -6.1024693e-06 -1.6351478e-06
  outer loop
    vertex 0.025 -0.0103527615 0.038637035
    vertex 0.009311593 -0.008339318 0.03112276
    vertex 0.009394561 -0.00824574 0.03077352
  endloop
endfacet
facet normal -1.1368684e-13 -5.801496e-06 -1.5545066e-06
  outer loop
    vertex 0.01245998 -0.0009994393 0.003729958
    vertex 0.012469357 -0.0008747283 0.0032645306
    vertex 0.025 0.0 0.0
  endloop
endfacet
facet normal -1.8189894e-12 -6.1431783e-06 -1.6460544e-06
  outer loop
    vertex 0.025 -0.0103527615 0.038637035
    vertex 0.009394561 -0.00824574 0.03077352
    vertex 0.009476589 -0.008151336 0.030421197
  endloop
endfacet
facet normal 5.684342e-14 -5.792165e-06 -1.5520058e-06
  outer loop
    vertex 0.012449358 -0.0011240501 0.004195012
    vertex 0.01245998 -0.0009994393 0.003729958
    vertex 0.025 0.0 0.0
  endloop
endfacet
facet normal 0.0 -6.182614e-06 -1.65663e-06
  outer loop
    vertex 0.025 -0.0103527615 0.038637035
    vertex 0.009476589 -0.008151336 0.030421197
    vertex 0.009557667 -0.008056115 0.03006583
  endloop
endfacet
facet normal 0.0 -6.2209147e-06 -1.6668891e-06
  outer loop
    vertex 0.025 -0.0103527615 0.038637035
    vertex 0.009557667 -0.008056115 0.03006583
    vertex 0.00963779 -0.007960089 0.029707454
  endloop
endfacet
facet normal 2.2737368e-13 -5.7816724e-06 -1.5491937e-06
  outer loop
    vertex 0.012437489 -0.0012485485 0.0046596467
    vertex 0.012449358 -0.0011240501 0.004195012
    vertex 0.025 0.0 0.0
  endloop
endfacet
facet normal 3.637979e-12 -6.257993e-06 -1.6768281e-06
  outer loop
    vertex 0.025 -0.0103527615 0.038637035
    vertex 0.00963779 -0.007960089 0.029707454
    vertex 0.009716948 -0.0078632645 0.029346103
  endloop
endfacet
facet normal -2.842171e-13 -5.7700086e-06 -1.5460697e-06
  outer loop
    vertex 0.012424375 -0.001372922 0.0051238146
    vertex 0.012437489 -0.0012485485 0.0046596467
    vertex 0.025 0.0 0.0
  endloop
endfacet
facet normal 1.8189894e-12 -6.2938343e-06 -1.6864251e-06
  outer loop
    vertex 0.025 -0.0103527615 0.038637035
    vertex 0.009716948 -0.0078632645 0.029346103
    vertex 0.009795132 -0.007765654 0.028981816
  endloop
endfacet
facet normal -3.9790393e-13 -5.7571797e-06 -1.5426326e-06
  outer loop
    vertex 0.012410017 -0.001497158 0.0055874693
    vertex 0.012424375 -0.001372922 0.0051238146
    vertex 0.025 0.0 0.0
  endloop
endfacet
facet normal -1.8189894e-12 -6.328526e-06 -1.6957165e-06
  outer loop
    vertex 0.025 -0.0103527615 0.038637035
    vertex 0.009795132 -0.007765654 0.028981816
    vertex 0.009872337 -0.007667266 0.028614625
  endloop
endfacet
facet normal 0.0 -6.361908e-06 -1.7046696e-06
  outer loop
    vertex 0.025 -0.0103527615 0.038637035
    vertex 0.009872337 -0.007667266 0.028614625
    vertex 0.009948553 -0.0075681102 0.028244572
  endloop
endfacet
facet normal 8.526513e-13 -5.7432076e-06 -1.5388861e-06
  outer loop
    vertex 0.012394417 -0.001621244 0.0060505653
    vertex 0.012410017 -0.001497158 0.0055874693
    vertex 0.025 0.0 0.0
  endloop
endfacet
facet normal 0.0 -6.3941116e-06 -1.7132952e-06
  outer loop
    vertex 0.025 -0.0103527615 0.038637035
    vertex 0.009948553 -0.0075681102 0.028244572
    vertex 0.010023774 -0.0074681975 0.027871693
  endloop
endfacet
facet normal -9.094947e-13 -5.728054e-06 -1.5348293e-06
  outer loop
    vertex 0.012377576 -0.0017451679 0.006513055
    vertex 0.012394417 -0.001621244 0.0060505653
    vertex 0.025 0.0 0.0
  endloop
endfacet
facet normal 3.637979e-12 -6.4250926e-06 -1.7216043e-06
  outer loop
    vertex 0.025 -0.0103527615 0.038637035
    vertex 0.010023774 -0.0074681975 0.027871693
    vertex 0.01009799 -0.0073675364 0.027496021
  endloop
endfacet
facet normal 2.842171e-13 -5.711763e-06 -1.530462e-06
  outer loop
    vertex 0.012359496 -0.001868917 0.006974893
    vertex 0.012377576 -0.0017451679 0.006513055
    vertex 0.025 0.0 0.0
  endloop
endfacet
facet normal -3.637979e-12 -6.4548803e-06 -1.7295788e-06
  outer loop
    vertex 0.025 -0.0103527615 0.038637035
    vertex 0.01009799 -0.0073675364 0.027496021
    vertex 0.010171196 -0.007266138 0.027117597
  endloop
endfacet
facet normal 0.0 -6.4833584e-06 -1.7372076e-06
  outer loop
    vertex 0.025 -0.0103527615 0.038637035
    vertex 0.010171196 -0.007266138 0.027117597
    vertex 0.010243384 -0.007164013 0.02673646
  endloop
endfacet
facet normal 5.1159077e-13 -5.694307e-06 -1.5257841e-06
  outer loop
    vertex 0.01234018 -0.001992479 0.007436033
    vertex 0.012359496 -0.001868917 0.006974893
    vertex 0.025 0.0 0.0
  endloop
endfacet
facet normal 0.0 -6.510687e-06 -1.7445309e-06
  outer loop
    vertex 0.025 -0.0103527615 0.038637035
    vertex 0.010243384 -0.007164013 0.02673646
    vertex 0.0103145465 -0.0070611704 0.026352646
  endloop
endfacet
facet normal 0.0 -5.675703e-06 -1.5208001e-06
  outer loop
    vertex 0.012319627 -0.0021158417 0.007896429
    vertex 0.01234018 -0.001992479 0.007436033
    vertex 0.025 0.0 0.0
  endloop
endfacet
facet normal 0.0 -6.5367494e-06 -1.7515122e-06
  outer loop
    vertex 0.025 -0.0103527615 0.038637035
    vertex 0.0103145465 -0.0070611704 0.026352646
    vertex 0.010384677 -0.006957621 0.025966194
  endloop
endfacet
facet normal 9.094947e-13 -5.655934e-06 -1.5155015e-06
  outer loop
    vertex 0.012297842 -0.0022389924 0.008356034
    vertex 0.012319627 -0.0021158417 0.007896429
    vertex 0.025 0.0 0.0
  endloop
endfacet
facet normal 3.637979e-12 -6.5615313e-06 -1.7581624e-06
  outer loop
    vertex 0.025 -0.0103527615 0.038637035
    vertex 0.010384677 -0.006957621 0.025966194
    vertex 0.010453767 -0.0068533747 0.025577143
  endloop
endfacet
facet normal -7.275958e-12 -6.58512e-06 -1.7644707e-06
  outer loop
    vertex 0.025 -0.0103527615 0.038637035
    vertex 0.010453767 -0.0068533747 0.025577143
    vertex 0.010521811 -0.006748443 0.025185531
  endloop
endfacet
facet normal 0.0 -5.6350227e-06 -1.5098998e-06
  outer loop
    vertex 0.012274825 -0.002361919 0.008814802
    vertex 0.012297842 -0.0022389924 0.008356034
    vertex 0.025 0.0 0.0
  endloop
endfacet
facet normal 7.275958e-12 -6.607457e-06 -1.770466e-06
  outer loop
    vertex 0.025 -0.0103527615 0.038637035
    vertex 0.010521811 -0.006748443 0.025185531
    vertex 0.010588802 -0.006642835 0.024791399
  endloop
endfacet
facet normal -2.2737368e-12 -5.6129593e-06 -1.503991e-06
  outer loop
    vertex 0.01225058 -0.0024846094 0.009272688
    vertex 0.012274825 -0.002361919 0.008814802
    vertex 0.025 0.0 0.0
  endloop
endfacet
facet normal -3.637979e-12 -6.6285575e-06 -1.7761085e-06
  outer loop
    vertex 0.025 -0.0103527615 0.038637035
    vertex 0.010588802 -0.006642835 0.024791399
    vertex 0.0106547335 -0.006536563 0.024394784
  endloop
endfacet
facet normal 9.094947e-13 -5.5897685e-06 -1.4977727e-06
  outer loop
    vertex 0.012225109 -0.0026070508 0.009729646
    vertex 0.01225058 -0.0024846094 0.009272688
    vertex 0.025 0.0 0.0
  endloop
endfacet
facet normal 0.0 -6.648377e-06 -1.7814273e-06
  outer loop
    vertex 0.025 -0.0103527615 0.038637035
    vertex 0.0106547335 -0.006536563 0.024394784
    vertex 0.010719598 -0.0064296364 0.02399573
  endloop
endfacet
facet normal 3.637979e-12 -6.66696e-06 -1.7864113e-06
  outer loop
    vertex 0.025 -0.0103527615 0.038637035
    vertex 0.010719598 -0.0064296364 0.02399573
    vertex 0.010783389 -0.006322066 0.023594271
  endloop
endfacet
facet normal 9.094947e-13 -5.5654195e-06 -1.4912484e-06
  outer loop
    vertex 0.012198414 -0.0027292315 0.010185631
    vertex 0.012225109 -0.0026070508 0.009729646
    vertex 0.025 0.0 0.0
  endloop
endfacet
facet normal 7.275958e-12 -6.684306e-06 -1.7910534e-06
  outer loop
    vertex 0.025 -0.0103527615 0.038637035
    vertex 0.010783389 -0.006322066 0.023594271
    vertex 0.010846101 -0.0062138624 0.023190452
  endloop
endfacet
facet normal -6.82121e-13 -5.539917e-06 -1.484417e-06
  outer loop
    vertex 0.012170497 -0.0028511388 0.010640595
    vertex 0.012198414 -0.0027292315 0.010185631
    vertex 0.025 0.0 0.0
  endloop
endfacet
facet normal -7.275958e-12 -6.7004294e-06 -1.7953644e-06
  outer loop
    vertex 0.025 -0.0103527615 0.038637035
    vertex 0.010846101 -0.0062138624 0.023190452
    vertex 0.010907727 -0.0061050374 0.02278431
  endloop
endfacet
facet normal -7.9580786e-13 -5.5132978e-06 -1.4772846e-06
  outer loop
    vertex 0.012141363 -0.002972761 0.011094495
    vertex 0.012170497 -0.0028511388 0.010640595
    vertex 0.025 0.0 0.0
  endloop
endfacet
facet normal 0.0 -6.7152287e-06 -1.799337e-06
  outer loop
    vertex 0.025 -0.0103527615 0.038637035
    vertex 0.010907727 -0.0061050374 0.02278431
    vertex 0.010968261 -0.005995601 0.022375887
  endloop
endfacet
facet normal 0.0 -5.485527e-06 -1.4698423e-06
  outer loop
    vertex 0.012111013 -0.0030940853 0.011547283
    vertex 0.012141363 -0.002972761 0.011094495
    vertex 0.025 0.0 0.0
  endloop
endfacet
facet normal -7.275958e-12 -6.7288056e-06 -1.8029787e-06
  outer loop
    vertex 0.025 -0.0103527615 0.038637035
    vertex 0.010968261 -0.005995601 0.022375887
    vertex 0.011027698 -0.0058855647 0.021965226
  endloop
endfacet
facet normal -2.2737368e-13 -5.4566385e-06 -1.4621022e-06
  outer loop
    vertex 0.012079451 -0.0032151 0.011998916
    vertex 0.012111013 -0.0030940853 0.011547283
    vertex 0.025 0.0 0.0
  endloop
endfacet
facet normal 0.0 -6.741131e-06 -1.8062783e-06
  outer loop
    vertex 0.025 -0.0103527615 0.038637035
    vertex 0.011027698 -0.0058855647 0.021965226
    vertex 0.011086031 -0.005774939 0.021552365
  endloop
endfacet
facet normal 0.0 -6.752176e-06 -1.8092396e-06
  outer loop
    vertex 0.025 -0.0103527615 0.038637035
    vertex 0.011086031 -0.005774939 0.021552365
    vertex 0.011143254 -0.0056637353 0.021137347
  endloop
endfacet
facet normal 1.0231815e-12 -5.4266116e-06 -1.4540551e-06
  outer loop
    vertex 0.01204668 -0.0033357928 0.012449348
    vertex 0.012079451 -0.0032151 0.011998916
    vertex 0.025 0.0 0.0
  endloop
endfacet
facet normal 7.275958e-12 -6.761955e-06 -1.8118662e-06
  outer loop
    vertex 0.025 -0.0103527615 0.038637035
    vertex 0.011143254 -0.0056637353 0.021137347
    vertex 0.011199361 -0.0055519645 0.020720214
  endloop
endfacet
facet normal 5.684342e-13 -5.3954436e-06 -1.445704e-06
  outer loop
    vertex 0.012012702 -0.0034561516 0.012898534
    vertex 0.01204668 -0.0033357928 0.012449348
    vertex 0.025 0.0 0.0
  endloop
endfacet
facet normal -7.275958e-12 -6.7705405e-06 -1.8141582e-06
  outer loop
    vertex 0.025 -0.0103527615 0.038637035
    vertex 0.011199361 -0.0055519645 0.020720214
    vertex 0.011254348 -0.005439638 0.020301005
  endloop
endfacet
facet normal -7.9580786e-13 -5.363171e-06 -1.4370582e-06
  outer loop
    vertex 0.011977523 -0.0035761646 0.013346428
    vertex 0.012012702 -0.0034561516 0.012898534
    vertex 0.025 0.0 0.0
  endloop
endfacet
facet normal 7.275958e-12 -6.7777582e-06 -1.8161081e-06
  outer loop
    vertex 0.025 -0.0103527615 0.038637035
    vertex 0.011254348 -0.005439638 0.020301005
    vertex 0.011308207 -0.005326767 0.019879766
  endloop
endfacet
facet normal 2.3874236e-12 -5.3297817e-06 -1.4281085e-06
  outer loop
    vertex 0.011941144 -0.0036958195 0.013792987
    vertex 0.011977523 -0.0035761646 0.013346428
    vertex 0.025 0.0 0.0
  endloop
endfacet
facet normal -7.275958e-12 -6.783812e-06 -1.8177161e-06
  outer loop
    vertex 0.025 -0.0103527615 0.038637035
    vertex 0.011308207 -0.005326767 0.019879766
    vertex 0.011360935 -0.005213363 0.019456536
  endloop
endfacet
facet normal -2.3874236e-12 -5.295252e-06 -1.4188606e-06
  outer loop
    vertex 0.01190357 -0.0038151047 0.014238165
    vertex 0.011941144 -0.0036958195 0.013792987
    vertex 0.025 0.0 0.0
  endloop
endfacet
facet normal -7.275958e-12 -6.7885558e-06 -1.8189894e-06
  outer loop
    vertex 0.025 -0.0103527615 0.038637035
    vertex 0.011360935 -0.005213363 0.019456536
    vertex 0.011412526 -0.005099437 0.019031357
  endloop
endfacet
facet normal 1.2505552e-12 -5.2596183e-06 -1.4093093e-06
  outer loop
    vertex 0.011864805 -0.0039340076 0.014681917
    vertex 0.01190357 -0.0038151047 0.014238165
    vertex 0.025 0.0 0.0
  endloop
endfacet
facet normal 7.275958e-12 -6.792048e-06 -1.8199207e-06
  outer loop
    vertex 0.025 -0.0103527615 0.038637035
    vertex 0.011412526 -0.005099437 0.019031357
    vertex 0.011462973 -0.0049850005 0.018604275
  endloop
endfacet
facet normal 0.0 -6.794289e-06 -1.8205246e-06
  outer loop
    vertex 0.025 -0.0103527615 0.038637035
    vertex 0.011462973 -0.0049850005 0.018604275
    vertex 0.011512275 -0.004870065 0.01817533
  endloop
endfacet
facet normal 4.5474735e-13 -5.2228793e-06 -1.3994658e-06
  outer loop
    vertex 0.011824851 -0.004052517 0.0151242
    vertex 0.011864805 -0.0039340076 0.014681917
    vertex 0.025 0.0 0.0
  endloop
endfacet
facet normal 0.0 -6.7952496e-06 -1.8207793e-06
  outer loop
    vertex 0.025 -0.0103527615 0.038637035
    vertex 0.011512275 -0.004870065 0.01817533
    vertex 0.011560423 -0.004754642 0.017744565
  endloop
endfacet
facet normal -2.16005e-12 -5.185039e-06 -1.3893289e-06
  outer loop
    vertex 0.011783714 -0.004170621 0.015564969
    vertex 0.011824851 -0.004052517 0.0151242
    vertex 0.025 0.0 0.0
  endloop
endfacet
facet normal 7.275958e-12 -6.7949004e-06 -1.820692e-06
  outer loop
    vertex 0.025 -0.0103527615 0.038637035
    vertex 0.011560423 -0.004754642 0.017744565
    vertex 0.011607414 -0.004638743 0.017312026
  endloop
endfacet
facet normal 5.002221e-12 -5.1460925e-06 -1.3788872e-06
  outer loop
    vertex 0.011741398 -0.004288307 0.01600418
    vertex 0.011783714 -0.004170621 0.015564969
    vertex 0.025 0.0 0.0
  endloop
endfacet
facet normal -1.4551915e-11 -6.793358e-06 -1.8202772e-06
  outer loop
    vertex 0.025 -0.0103527615 0.038637035
    vertex 0.011607414 -0.004638743 0.017312026
    vertex 0.011653244 -0.00452238 0.016877752
  endloop
endfacet
facet normal -8.6402e-12 -5.106019e-06 -1.3681607e-06
  outer loop
    vertex 0.011697906 -0.004405564 0.016441789
    vertex 0.011741398 -0.004288307 0.01600418
    vertex 0.025 0.0 0.0
  endloop
endfacet
facet normal 0.0 -6.790535e-06 -1.819506e-06
  outer loop
    vertex 0.025 -0.0103527615 0.038637035
    vertex 0.011653244 -0.00452238 0.016877752
    vertex 0.011697906 -0.004405564 0.016441789
  endloop
endfacet
facet normal 2.1827873e-11 -0.0005139535 -0.0001377134
  outer loop
    vertex 0.011697906 -0.004405564 0.016441789
    vertex 0.025 0.0 0.0
    vertex 0.025 -0.0103527615 0.038637035
  endloop
endfacet
facet normal 2.5665329e-06 0.0 -6.87688e-07
  outer loop
    vertex 0.0103527615 0.025 0.038637035
    vertex 0.0103527615 0.0070047444 0.038637035
    vertex 0.0103145465 0.0070611704 0.03849441
  endloop
endfacet
facet normal 4.7789235e-06 1.1191048e-13 -1.2804996e-06
  outer loop
    vertex 0.0103527615 0.025 0.038637035
    vertex 0.0103145465 0.0070611704 0.03849441
    vertex 0.010243384 0.007164013 0.03822883
  endloop
endfacet
facet normal 4.8468687e-06 2.2026825e-13 -1.29871e-06
  outer loop
    vertex 0.0103527615 0.025 0.038637035
    vertex 0.010243384 0.007164013 0.03822883
    vertex 0.010171196 0.007266138 0.03795942
  endloop
endfacet
facet normal 4.913695e-06 1.3926638e-12 -1.3166466e-06
  outer loop
    vertex 0.0103527615 0.025 0.038637035
    vertex 0.010171196 0.007266138 0.03795942
    vertex 0.01009799 0.0073675364 0.037686214
  endloop
endfacet
facet normal 4.979598e-06 -1.1084467e-12 -1.3342597e-06
  outer loop
    vertex 0.0103527615 0.025 0.038637035
    vertex 0.01009799 0.0073675364 0.037686214
    vertex 0.010023774 0.0074681975 0.03740923
  endloop
endfacet
facet normal 5.0443177e-06 9.663381e-13 -1.351631e-06
  outer loop
    vertex 0.0103527615 0.025 0.038637035
    vertex 0.010023774 0.0074681975 0.03740923
    vertex 0.009948553 0.0075681102 0.037128504
  endloop
endfacet
facet normal 5.1079223e-06 2.2737368e-13 -1.3686636e-06
  outer loop
    vertex 0.0103527615 0.025 0.038637035
    vertex 0.009948553 0.0075681102 0.037128504
    vertex 0.009872337 0.007667266 0.036844064
  endloop
endfacet
facet normal 5.1705356e-06 -1.1368684e-13 -1.3854378e-06
  outer loop
    vertex 0.0103527615 0.025 0.038637035
    vertex 0.009872337 0.007667266 0.036844064
    vertex 0.009795132 0.007765654 0.03655593
  endloop
endfacet
facet normal 5.231959e-06 -1.0231815e-12 -1.4018897e-06
  outer loop
    vertex 0.0103527615 0.025 0.038637035
    vertex 0.009795132 0.007765654 0.03655593
    vertex 0.009716948 0.0078632645 0.03626414
  endloop
endfacet
facet normal 5.2922733e-06 1.364242e-12 -1.4180678e-06
  outer loop
    vertex 0.0103527615 0.025 0.038637035
    vertex 0.009716948 0.0078632645 0.03626414
    vertex 0.00963779 0.007960089 0.03596872
  endloop
endfacet
facet normal 5.3515323e-06 2.2737368e-13 -1.4339394e-06
  outer loop
    vertex 0.0103527615 0.025 0.038637035
    vertex 0.00963779 0.007960089 0.03596872
    vertex 0.009557667 0.008056115 0.0356697
  endloop
endfacet
facet normal 5.409609e-06 -1.8189894e-12 -1.4494872e-06
  outer loop
    vertex 0.0103527615 0.025 0.038637035
    vertex 0.009557667 0.008056115 0.0356697
    vertex 0.009476589 0.008151336 0.03536711
  endloop
endfacet
facet normal 5.466569e-06 3.4106051e-12 -1.4647794e-06
  outer loop
    vertex 0.0103527615 0.025 0.038637035
    vertex 0.009476589 0.008151336 0.03536711
    vertex 0.009394561 0.00824574 0.03506098
  endloop
endfacet
facet normal 5.5224664e-06 -2.046363e-12 -1.4797297e-06
  outer loop
    vertex 0.0103527615 0.025 0.038637035
    vertex 0.009394561 0.00824574 0.03506098
    vertex 0.009311593 0.008339318 0.034751337
  endloop
endfacet
facet normal 5.577145e-06 1.364242e-12 -1.4943944e-06
  outer loop
    vertex 0.0103527615 0.025 0.038637035
    vertex 0.009311593 0.008339318 0.034751337
    vertex 0.009227693 0.008432063 0.03443822
  endloop
endfacet
facet normal 5.6307545e-06 0.0 -1.5087535e-06
  outer loop
    vertex 0.0103527615 0.025 0.038637035
    vertex 0.009227693 0.008432063 0.03443822
    vertex 0.009142869 0.008523963 0.03412165
  endloop
endfacet
facet normal 5.683185e-06 4.5474735e-13 -1.5228052e-06
  outer loop
    vertex 0.0103527615 0.025 0.038637035
    vertex 0.009142869 0.008523963 0.03412165
    vertex 0.00905713 0.00861501 0.033801667
  endloop
endfacet
facet normal 5.8341902e-06 0.0 -1.5632664e-06
  outer loop
    vertex 0.00012506131 0.012499374 0.0004667352
    vertex 5.2041704e-18 0.0125 -6.938894e-18
    vertex 5.551115e-18 0.025 0.0
  endloop
endfacet
facet normal 5.7344296e-06 -4.5474735e-13 -1.5365313e-06
  outer loop
    vertex 0.0103527615 0.025 0.038637035
    vertex 0.00905713 0.00861501 0.033801667
    vertex 0.008970484 0.008705195 0.0334783
  endloop
endfacet
facet normal 5.833022e-06 -7.1054274e-15 -1.5629536e-06
  outer loop
    vertex 0.0002501101 0.012497498 0.00093342364
    vertex 0.00012506131 0.012499374 0.0004667352
    vertex 5.551115e-18 0.025 0.0
  endloop
endfacet
facet normal 5.7845027e-06 1.8189894e-12 -1.5499554e-06
  outer loop
    vertex 0.0103527615 0.025 0.038637035
    vertex 0.008970484 0.008705195 0.0334783
    vertex 0.008882941 0.008794508 0.033151586
  endloop
endfacet
facet normal 5.830686e-06 0.0 -1.5623275e-06
  outer loop
    vertex 0.00037513388 0.012494369 0.0014000187
    vertex 0.0002501101 0.012497498 0.00093342364
    vertex 5.551115e-18 0.025 0.0
  endloop
endfacet
facet normal 5.833477e-06 1.8189894e-12 -1.5630812e-06
  outer loop
    vertex 0.0103527615 0.025 0.038637035
    vertex 0.008882941 0.008794508 0.033151586
    vertex 0.008794508 0.008882941 0.03282155
  endloop
endfacet
facet normal 5.8813093e-06 -5.456968e-12 -1.575876e-06
  outer loop
    vertex 0.0103527615 0.025 0.038637035
    vertex 0.008794508 0.008882941 0.03282155
    vertex 0.008705195 0.008970484 0.032488227
  endloop
endfacet
facet normal 5.827183e-06 -1.4210855e-14 -1.5613892e-06
  outer loop
    vertex 0.0005001201 0.012489991 0.0018664736
    vertex 0.00037513388 0.012494369 0.0014000187
    vertex 5.551115e-18 0.025 0.0
  endloop
endfacet
facet normal 5.9278536e-06 2.728484e-12 -1.5883688e-06
  outer loop
    vertex 0.0103527615 0.025 0.038637035
    vertex 0.008705195 0.008970484 0.032488227
    vertex 0.00861501 0.00905713 0.032151654
  endloop
endfacet
facet normal 5.8225114e-06 8.526513e-14 -1.5601368e-06
  outer loop
    vertex 0.0006250562 0.012484362 0.0023327416
    vertex 0.0005001201 0.012489991 0.0018664736
    vertex 5.551115e-18 0.025 0.0
  endloop
endfacet
facet normal 5.973314e-06 2.728484e-12 -1.6005488e-06
  outer loop
    vertex 0.0103527615 0.025 0.038637035
    vertex 0.00861501 0.00905713 0.032151654
    vertex 0.008523963 0.009142869 0.031811863
  endloop
endfacet
facet normal 5.816673e-06 -5.684342e-14 -1.5585731e-06
  outer loop
    vertex 0.0007499298 0.012477484 0.0027987761
    vertex 0.0006250562 0.012484362 0.0023327416
    vertex 5.551115e-18 0.025 0.0
  endloop
endfacet
facet normal 6.0175516e-06 0.0 -1.6123959e-06
  outer loop
    vertex 0.0103527615 0.025 0.038637035
    vertex 0.008523963 0.009142869 0.031811863
    vertex 0.008432063 0.009227693 0.031468887
  endloop
endfacet
facet normal 6.0606035e-06 4.5474735e-12 -1.6239428e-06
  outer loop
    vertex 0.0103527615 0.025 0.038637035
    vertex 0.008432063 0.009227693 0.031468887
    vertex 0.008339318 0.009311593 0.03112276
  endloop
endfacet
facet normal 5.8096725e-06 2.842171e-14 -1.5566968e-06
  outer loop
    vertex 0.0008747283 0.012469357 0.0032645306
    vertex 0.0007499298 0.012477484 0.0027987761
    vertex 5.551115e-18 0.025 0.0
  endloop
endfacet
facet normal 6.1024693e-06 -3.637979e-12 -1.6351478e-06
  outer loop
    vertex 0.0103527615 0.025 0.038637035
    vertex 0.008339318 0.009311593 0.03112276
    vertex 0.00824574 0.009394561 0.03077352
  endloop
endfacet
facet normal 5.801496e-06 -1.1368684e-13 -1.5545066e-06
  outer loop
    vertex 0.0009994393 0.01245998 0.003729958
    vertex 0.0008747283 0.012469357 0.0032645306
    vertex 5.551115e-18 0.025 0.0
  endloop
endfacet
facet normal 6.1431783e-06 -1.8189894e-12 -1.6460544e-06
  outer loop
    vertex 0.0103527615 0.025 0.038637035
    vertex 0.00824574 0.009394561 0.03077352
    vertex 0.008151336 0.009476589 0.030421197
  endloop
endfacet
facet normal 5.792165e-06 5.684342e-14 -1.5520058e-06
  outer loop
    vertex 0.0011240501 0.012449358 0.004195012
    vertex 0.0009994393 0.01245998 0.003729958
    vertex 5.551115e-18 0.025 0.0
  endloop
endfacet
facet normal 6.182614e-06 0.0 -1.65663e-06
  outer loop
    vertex 0.0103527615 0.025 0.038637035
    vertex 0.008151336 0.009476589 0.030421197
    vertex 0.008056115 0.009557667 0.03006583
  endloop
endfacet
facet normal 6.2209147e-06 0.0 -1.6668891e-06
  outer loop
    vertex 0.0103527615 0.025 0.038637035
    vertex 0.008056115 0.009557667 0.03006583
    vertex 0.007960089 0.00963779 0.029707454
  endloop
endfacet
facet normal 5.7816724e-06 2.2737368e-13 -1.5491937e-06
  outer loop
    vertex 0.0012485485 0.012437489 0.0046596467
    vertex 0.0011240501 0.012449358 0.004195012
    vertex 5.551115e-18 0.025 0.0
  endloop
endfacet
facet normal 6.257993e-06 3.637979e-12 -1.6768281e-06
  outer loop
    vertex 0.0103527615 0.025 0.038637035
    vertex 0.007960089 0.00963779 0.029707454
    vertex 0.0078632645 0.009716948 0.029346103
  endloop
endfacet
facet normal 5.7700086e-06 -2.842171e-13 -1.5460697e-06
  outer loop
    vertex 0.001372922 0.012424375 0.0051238146
    vertex 0.0012485485 0.012437489 0.0046596467
    vertex 5.551115e-18 0.025 0.0
  endloop
endfacet
facet normal 6.2938343e-06 1.8189894e-12 -1.6864251e-06
  outer loop
    vertex 0.0103527615 0.025 0.038637035
    vertex 0.0078632645 0.009716948 0.029346103
    vertex 0.007765654 0.009795132 0.028981816
  endloop
endfacet
facet normal 5.7571797e-06 -3.9790393e-13 -1.5426326e-06
  outer loop
    vertex 0.001497158 0.012410017 0.0055874693
    vertex 0.001372922 0.012424375 0.0051238146
    vertex 5.551115e-18 0.025 0.0
  endloop
endfacet
facet normal 6.328526e-06 -1.8189894e-12 -1.6957165e-06
  outer loop
    vertex 0.0103527615 0.025 0.038637035
    vertex 0.007765654 0.009795132 0.028981816
    vertex 0.007667266 0.009872337 0.028614625
  endloop
endfacet
facet normal 6.361908e-06 0.0 -1.7046696e-06
  outer loop
    vertex 0.0103527615 0.025 0.038637035
    vertex 0.007667266 0.009872337 0.028614625
    vertex 0.0075681102 0.009948553 0.028244572
  endloop
endfacet
facet normal 5.7432076e-06 8.526513e-13 -1.5388861e-06
  outer loop
    vertex 0.001621244 0.012394417 0.0060505653
    vertex 0.001497158 0.012410017 0.0055874693
    vertex 5.551115e-18 0.025 0.0
  endloop
endfacet
facet normal 6.3941116e-06 0.0 -1.7132952e-06
  outer loop
    vertex 0.0103527615 0.025 0.038637035
    vertex 0.0075681102 0.009948553 0.028244572
    vertex 0.0074681975 0.010023774 0.027871693
  endloop
endfacet
facet normal 5.728054e-06 -9.094947e-13 -1.5348293e-06
  outer loop
    vertex 0.0017451679 0.012377576 0.006513055
    vertex 0.001621244 0.012394417 0.0060505653
    vertex 5.551115e-18 0.025 0.0
  endloop
endfacet
facet normal 6.4250926e-06 3.637979e-12 -1.7216043e-06
  outer loop
    vertex 0.0103527615 0.025 0.038637035
    vertex 0.0074681975 0.010023774 0.027871693
    vertex 0.0073675364 0.01009799 0.027496021
  endloop
endfacet
facet normal 5.711763e-06 2.842171e-13 -1.530462e-06
  outer loop
    vertex 0.001868917 0.012359496 0.006974893
    vertex 0.0017451679 0.012377576 0.006513055
    vertex 5.551115e-18 0.025 0.0
  endloop
endfacet
facet normal 6.4548803e-06 -3.637979e-12 -1.7295788e-06
  outer loop
    vertex 0.0103527615 0.025 0.038637035
    vertex 0.0073675364 0.01009799 0.027496021
    vertex 0.007266138 0.010171196 0.027117597
  endloop
endfacet
facet normal 6.4833584e-06 0.0 -1.7372076e-06
  outer loop
    vertex 0.0103527615 0.025 0.038637035
    vertex 0.007266138 0.010171196 0.027117597
    vertex 0.007164013 0.010243384 0.02673646
  endloop
endfacet
facet normal 5.694307e-06 5.1159077e-13 -1.5257841e-06
  outer loop
    vertex 0.001992479 0.01234018 0.007436033
    vertex 0.001868917 0.012359496 0.006974893
    vertex 5.551115e-18 0.025 0.0
  endloop
endfacet
facet normal 6.510687e-06 0.0 -1.7445309e-06
  outer loop
    vertex 0.0103527615 0.025 0.038637035
    vertex 0.007164013 0.010243384 0.02673646
    vertex 0.0070611704 0.0103145465 0.026352646
  endloop
endfacet
facet normal 5.675703e-06 0.0 -1.5208001e-06
  outer loop
    vertex 0.0021158417 0.012319627 0.007896429
    vertex 0.001992479 0.01234018 0.007436033
    vertex 5.551115e-18 0.025 0.0
  endloop
endfacet
facet normal 6.5367494e-06 0.0 -1.7515122e-06
  outer loop
    vertex 0.0103527615 0.025 0.038637035
    vertex 0.0070611704 0.0103145465 0.026352646
    vertex 0.006957621 0.010384677 0.025966194
  endloop
endfacet
facet normal 5.655934e-06 9.094947e-13 -1.5155015e-06
  outer loop
    vertex 0.0022389924 0.012297842 0.008356034
    vertex 0.0021158417 0.012319627 0.007896429
    vertex 5.551115e-18 0.025 0.0
  endloop
endfacet
facet normal 6.5615313e-06 3.637979e-12 -1.7581624e-06
  outer loop
    vertex 0.0103527615 0.025 0.038637035
    vertex 0.006957621 0.010384677 0.025966194
    vertex 0.0068533747 0.010453767 0.025577143
  endloop
endfacet
facet normal 6.58512e-06 -7.275958e-12 -1.7644707e-06
  outer loop
    vertex 0.0103527615 0.025 0.038637035
    vertex 0.0068533747 0.010453767 0.025577143
    vertex 0.006748443 0.010521811 0.025185531
  endloop
endfacet
facet normal 5.6350227e-06 0.0 -1.5098998e-06
  outer loop
    vertex 0.002361919 0.012274825 0.008814802
    vertex 0.0022389924 0.012297842 0.008356034
    vertex 5.551115e-18 0.025 0.0
  endloop
endfacet
facet normal 6.607457e-06 7.275958e-12 -1.770466e-06
  outer loop
    vertex 0.0103527615 0.025 0.038637035
    vertex 0.006748443 0.010521811 0.025185531
    vertex 0.006642835 0.010588802 0.024791399
  endloop
endfacet
facet normal 5.6129593e-06 -2.2737368e-12 -1.503991e-06
  outer loop
    vertex 0.0024846094 0.01225058 0.009272688
    vertex 0.002361919 0.012274825 0.008814802
    vertex 5.551115e-18 0.025 0.0
  endloop
endfacet
facet normal 6.6285575e-06 -3.637979e-12 -1.7761085e-06
  outer loop
    vertex 0.0103527615 0.025 0.038637035
    vertex 0.006642835 0.010588802 0.024791399
    vertex 0.006536563 0.0106547335 0.024394784
  endloop
endfacet
facet normal 5.5897685e-06 9.094947e-13 -1.4977727e-06
  outer loop
    vertex 0.0026070508 0.012225109 0.009729646
    vertex 0.0024846094 0.01225058 0.009272688
    vertex 5.551115e-18 0.025 0.0
  endloop
endfacet
facet normal 6.648377e-06 0.0 -1.7814273e-06
  outer loop
    vertex 0.0103527615 0.025 0.038637035
    vertex 0.006536563 0.0106547335 0.024394784
    vertex 0.0064296364 0.010719598 0.02399573
  endloop
endfacet
facet normal 6.66696e-06 3.637979e-12 -1.7864113e-06
  outer loop
    vertex 0.0103527615 0.025 0.038637035
    vertex 0.0064296364 0.010719598 0.02399573
    vertex 0.006322066 0.010783389 0.023594271
  endloop
endfacet
facet normal 5.5654195e-06 9.094947e-13 -1.4912484e-06
  outer loop
    vertex 0.0027292315 0.012198414 0.010185631
    vertex 0.0026070508 0.012225109 0.009729646
    vertex 5.551115e-18 0.025 0.0
  endloop
endfacet
facet normal 6.684306e-06 7.275958e-12 -1.7910534e-06
  outer loop
    vertex 0.0103527615 0.025 0.038637035
    vertex 0.006322066 0.010783389 0.023594271
    vertex 0.0062138624 0.010846101 0.023190452
  endloop
endfacet
facet normal 5.539917e-06 -6.82121e-13 -1.484417e-06
  outer loop
    vertex 0.0028511388 0.012170497 0.010640595
    vertex 0.0027292315 0.012198414 0.010185631
    vertex 5.551115e-18 0.025 0.0
  endloop
endfacet
facet normal 6.7004294e-06 -7.275958e-12 -1.7953644e-06
  outer loop
    vertex 0.0103527615 0.025 0.038637035
    vertex 0.0062138624 0.010846101 0.023190452
    vertex 0.0061050374 0.010907727 0.02278431
  endloop
endfacet
facet normal 5.5132978e-06 -7.9580786e-13 -1.4772846e-06
  outer loop
    vertex 0.002972761 0.012141363 0.011094495
    vertex 0.0028511388 0.012170497 0.010640595
    vertex 5.551115e-18 0.025 0.0
  endloop
endfacet
facet normal 6.7152287e-06 0.0 -1.799337e-06
  outer loop
    vertex 0.0103527615 0.025 0.038637035
    vertex 0.0061050374 0.010907727 0.02278431
    vertex 0.005995601 0.010968261 0.022375887
  endloop
endfacet
facet normal 5.485527e-06 0.0 -1.4698423e-06
  outer loop
    vertex 0.0030940853 0.012111013 0.011547283
    vertex 0.002972761 0.012141363 0.011094495
    vertex 5.551115e-18 0.025 0.0
  endloop
endfacet
facet normal 6.7288056e-06 -7.275958e-12 -1.8029787e-06
  outer loop
    vertex 0.0103527615 0.025 0.038637035
    vertex 0.005995601 0.010968261 0.022375887
    vertex 0.0058855647 0.011027698 0.021965226
  endloop
endfacet
facet normal 5.4566385e-06 -2.2737368e-13 -1.4621022e-06
  outer loop
    vertex 0.0032151 0.012079451 0.011998916
    vertex 0.0030940853 0.012111013 0.011547283
    vertex 5.551115e-18 0.025 0.0
  endloop
endfacet
facet normal 6.741131e-06 0.0 -1.8062783e-06
  outer loop
    vertex 0.0103527615 0.025 0.038637035
    vertex 0.0058855647 0.011027698 0.021965226
    vertex 0.005774939 0.011086031 0.021552365
  endloop
endfacet
facet normal 6.752176e-06 0.0 -1.8092396e-06
  outer loop
    vertex 0.0103527615 0.025 0.038637035
    vertex 0.005774939 0.011086031 0.021552365
    vertex 0.0056637353 0.011143254 0.021137347
  endloop
endfacet
facet normal 5.4266116e-06 1.0231815e-12 -1.4540551e-06
  outer loop
    vertex 0.0033357928 0.01204668 0.012449348
    vertex 0.0032151 0.012079451 0.011998916
    vertex 5.551115e-18 0.025 0.0
  endloop
endfacet
facet normal 6.761955e-06 7.275958e-12 -1.8118662e-06
  outer loop
    vertex 0.0103527615 0.025 0.038637035
    vertex 0.0056637353 0.011143254 0.021137347
    vertex 0.0055519645 0.011199361 0.020720214
  endloop
endfacet
facet normal 5.3954436e-06 5.684342e-13 -1.445704e-06
  outer loop
    vertex 0.0034561516 0.012012702 0.012898534
    vertex 0.0033357928 0.01204668 0.012449348
    vertex 5.551115e-18 0.025 0.0
  endloop
endfacet
facet normal 6.7705405e-06 -7.275958e-12 -1.8141582e-06
  outer loop
    vertex 0.0103527615 0.025 0.038637035
    vertex 0.0055519645 0.011199361 0.020720214
    vertex 0.005439638 0.011254348 0.020301005
  endloop
endfacet
facet normal 5.363171e-06 -7.9580786e-13 -1.4370582e-06
  outer loop
    vertex 0.0035761646 0.011977523 0.013346428
    vertex 0.0034561516 0.012012702 0.012898534
    vertex 5.551115e-18 0.025 0.0
  endloop
endfacet
facet normal 6.7777582e-06 7.275958e-12 -1.8161081e-06
  outer loop
    vertex 0.0103527615 0.025 0.038637035
    vertex 0.005439638 0.011254348 0.020301005
    vertex 0.005326767 0.011308207 0.019879766
  endloop
endfacet
facet normal 5.3297817e-06 2.3874236e-12 -1.4281085e-06
  outer loop
    vertex 0.0036958195 0.011941144 0.013792987
    vertex 0.0035761646 0.011977523 0.013346428
    vertex 5.551115e-18 0.025 0.0
  endloop
endfacet
facet normal 6.783812e-06 -7.275958e-12 -1.8177161e-06
  outer loop
    vertex 0.0103527615 0.025 0.038637035
    vertex 0.005326767 0.011308207 0.019879766
    vertex 0.005213363 0.011360935 0.019456536
  endloop
endfacet
facet normal 5.295252e-06 -2.3874236e-12 -1.4188606e-06
  outer loop
    vertex 0.0038151047 0.01190357 0.014238165
    vertex 0.0036958195 0.011941144 0.013792987
    vertex 5.551115e-18 0.025 0.0
  endloop
endfacet
facet normal 6.7885558e-06 -7.275958e-12 -1.8189894e-06
  outer loop
    vertex 0.0103527615 0.025 0.038637035
    vertex 0.005213363 0.011360935 0.019456536
    vertex 0.005099437 0.011412526 0.019031357
  endloop
endfacet
facet normal 5.2596183e-06 1.2505552e-12 -1.4093093e-06
  outer loop
    vertex 0.0039340076 0.011864805 0.014681917
    vertex 0.0038151047 0.01190357 0.014238165
    vertex 5.551115e-18 0.025 0.0
  endloop
endfacet
facet normal 6.792048e-06 7.275958e-12 -1.8199207e-06
  outer loop
    vertex 0.0103527615 0.025 0.038637035
    vertex 0.005099437 0.011412526 0.019031357
    vertex 0.0049850005 0.011462973 0.018604275
  endloop
endfacet
facet normal 6.794289e-06 0.0 -1.8205246e-06
  outer loop
    vertex 0.0103527615 0.025 0.038637035
    vertex 0.0049850005 0.011462973 0.018604275
    vertex 0.004870065 0.011512275 0.01817533
  endloop
endfacet
facet normal 5.2228793e-06 4.5474735e-13 -1.3994658e-06
  outer loop
    vertex 0.004052517 0.011824851 0.0151242
    vertex 0.0039340076 0.011864805 0.014681917
    vertex 5.551115e-18 0.025 0.0
  endloop
endfacet
facet normal 6.7952496e-06 0.0 -1.8207793e-06
  outer loop
    vertex 0.0103527615 0.025 0.038637035
    vertex 0.004870065 0.011512275 0.01817533
    vertex 0.004754642 0.011560423 0.017744565
  endloop
endfacet
facet normal 5.185039e-06 -2.16005e-12 -1.3893289e-06
  outer loop
    vertex 0.004170621 0.011783714 0.015564969
    vertex 0.004052517 0.011824851 0.0151242
    vertex 5.551115e-18 0.025 0.0
  endloop
endfacet
facet normal 6.7949004e-06 7.275958e-12 -1.820692e-06
  outer loop
    vertex 0.0103527615 0.025 0.038637035
    vertex 0.004754642 0.011560423 0.017744565
    vertex 0.004638743 0.011607414 0.017312026
  endloop
endfacet
facet normal 5.1460925e-06 5.002221e-12 -1.3788872e-06
  outer loop
    vertex 0.004288307 0.011741398 0.01600418
    vertex 0.004170621 0.011783714 0.015564969
    vertex 5.551115e-18 0.025 0.0
  endloop
endfacet
facet normal 6.793358e-06 -1.4551915e-11 -1.8202772e-06
  outer loop
    vertex 0.0103527615 0.025 0.038637035
    vertex 0.004638743 0.011607414 0.017312026
    vertex 0.00452238 0.011653244 0.016877752
  endloop
endfacet
facet normal 5.106019e-06 -8.6402e-12 -1.3681607e-06
  outer loop
    vertex 0.004405564 0.011697906 0.016441789
    vertex 0.004288307 0.011741398 0.01600418
    vertex 5.551115e-18 0.025 0.0
  endloop
endfacet
facet normal 6.790535e-06 0.0 -1.819506e-06
  outer loop
    vertex 0.0103527615 0.025 0.038637035
    vertex 0.00452238 0.011653244 0.016877752
    vertex 0.004405564 0.011697906 0.016441789
  endloop
endfacet
facet normal 0.0005139535 2.1827873e-11 -0.0001377134
  outer loop
    vertex 0.004405564 0.011697906 0.016441789
    vertex 5.551115e-18 0.025 0.0
    vertex 0.0103527615 0.025 0.038637035
  endloop
endfacet
facet normal 0.0 2.5665329e-06 -6.87688e-07
  outer loop
    vertex -0.025 0.0103527615 0.038637035
    vertex -0.0070047444 0.0103527615 0.038637035
    vertex -0.0070611704 0.0103145465 0.03849441
  endloop
endfacet
facet normal -1.1191048e-13 4.7789235e-06 -1.2804996e-06
  outer loop
    vertex -0.025 0.0103527615 0.038637035
    vertex -0.0070611704 0.0103145465 0.03849441
    vertex -0.007164013 0.010243384 0.03822883
  endloop
endfacet
facet normal -2.2026825e-13 4.8468687e-06 -1.29871e-06
  outer loop
    vertex -0.025 0.0103527615 0.038637035
    vertex -0.007164013 0.010243384 0.03822883
    vertex -0.007266138 0.010171196 0.03795942
  endloop
endfacet
facet normal -1.3926638e-12 4.913695e-06 -1.3166466e-06
  outer loop
    vertex -0.025 0.0103527615 0.038637035
    vertex -0.007266138 0.010171196 0.03795942
    vertex -0.0073675364 0.01009799 0.037686214
  endloop
endfacet
facet normal 1.1084467e-12 4.979598e-06 -1.3342597e-06
  outer loop
    vertex -0.025 0.0103527615 0.038637035
    vertex -0.0073675364 0.01009799 0.037686214
    vertex -0.0074681975 0.010023774 0.03740923
  endloop
endfacet
facet normal -9.663381e-13 5.0443177e-06 -1.351631e-06
  outer loop
    vertex -0.025 0.0103527615 0.038637035
    vertex -0.0074681975 0.010023774 0.03740923
    vertex -0.0075681102 0.009948553 0.037128504
  endloop
endfacet
facet normal -2.2737368e-13 5.1079223e-06 -1.3686636e-06
  outer loop
    vertex -0.025 0.0103527615 0.038637035
    vertex -0.0075681102 0.009948553 0.037128504
    vertex -0.007667266 0.009872337 0.036844064
  endloop
endfacet
facet normal 1.1368684e-13 5.1705356e-06 -1.3854378e-06
  outer loop
    vertex -0.025 0.0103527615 0.038637035
    vertex -0.007667266 0.009872337 0.036844064
    vertex -0.007765654 0.009795132 0.03655593
  endloop
endfacet
facet normal 1.0231815e-12 5.231959e-06 -1.4018897e-06
  outer loop
    vertex -0.025 0.0103527615 0.038637035
    vertex -0.007765654 0.009795132 0.03655593
    vertex -0.0078632645 0.009716948 0.03626414
  endloop
endfacet
facet normal -1.364242e-12 5.2922733e-06 -1.4180678e-06
  outer loop
    vertex -0.025 0.0103527615 0.038637035
    vertex -0.0078632645 0.009716948 0.03626414
    vertex -0.007960089 0.00963779 0.03596872
  endloop
endfacet
facet normal -2.2737368e-13 5.3515323e-06 -1.4339394e-06
  outer loop
    vertex -0.025 0.0103527615 0.038637035
    vertex -0.007960089 0.00963779 0.03596872
    vertex -0.008056115 0.009557667 0.0356697
  endloop
endfacet
facet normal 1.8189894e-12 5.409609e-06 -1.4494872e-06
  outer loop
    vertex -0.025 0.0103527615 0.038637035
    vertex -0.008056115 0.009557667 0.0356697
    vertex -0.008151336 0.009476589 0.03536711
  endloop
endfacet
facet normal -3.4106051e-12 5.466569e-06 -1.4647794e-06
  outer loop
    vertex -0.025 0.0103527615 0.038637035
    vertex -0.008151336 0.009476589 0.03536711
    vertex -0.00824574 0.009394561 0.03506098
  endloop
endfacet
facet normal 2.046363e-12 5.5224664e-06 -1.4797297e-06
  outer loop
    vertex -0.025 0.0103527615 0.038637035
    vertex -0.00824574 0.009394561 0.03506098
    vertex -0.008339318 0.009311593 0.034751337
  endloop
endfacet
facet normal -1.364242e-12 5.577145e-06 -1.4943944e-06
  outer loop
    vertex -0.025 0.0103527615 0.038637035
    vertex -0.008339318 0.009311593 0.034751337
    vertex -0.008432063 0.009227693 0.03443822
  endloop
endfacet
facet normal 0.0 5.6307545e-06 -1.5087535e-06
  outer loop
    vertex -0.025 0.0103527615 0.038637035
    vertex -0.008432063 0.009227693 0.03443822
    vertex -0.008523963 0.009142869 0.03412165
  endloop
endfacet
facet normal -4.5474735e-13 5.683185e-06 -1.5228052e-06
  outer loop
    vertex -0.025 0.0103527615 0.038637035
    vertex -0.008523963 0.009142869 0.03412165
    vertex -0.00861501 0.00905713 0.033801667
  endloop
endfacet
facet normal 0.0 5.8341902e-06 -1.5632664e-06
  outer loop
    vertex -0.012499374 0.00012506131 0.0004667352
    vertex -0.0125 5.2041704e-18 6.938894e-18
    vertex -0.025 3.061617e-18 0.0
  endloop
endfacet
facet normal 4.5474735e-13 5.7344296e-06 -1.5365313e-06
  outer loop
    vertex -0.025 0.0103527615 0.038637035
    vertex -0.00861501 0.00905713 0.033801667
    vertex -0.008705195 0.008970484 0.0334783
  endloop
endfacet
facet normal 7.1054274e-15 5.833022e-06 -1.5629536e-06
  outer loop
    vertex -0.012497498 0.0002501101 0.00093342364
    vertex -0.012499374 0.00012506131 0.0004667352
    vertex -0.025 3.061617e-18 0.0
  endloop
endfacet
facet normal -1.8189894e-12 5.7845027e-06 -1.5499554e-06
  outer loop
    vertex -0.025 0.0103527615 0.038637035
    vertex -0.008705195 0.008970484 0.0334783
    vertex -0.008794508 0.008882941 0.033151586
  endloop
endfacet
facet normal 0.0 5.830686e-06 -1.5623275e-06
  outer loop
    vertex -0.012494369 0.00037513388 0.0014000187
    vertex -0.012497498 0.0002501101 0.00093342364
    vertex -0.025 3.061617e-18 0.0
  endloop
endfacet
facet normal -1.8189894e-12 5.833477e-06 -1.5630812e-06
  outer loop
    vertex -0.025 0.0103527615 0.038637035
    vertex -0.008794508 0.008882941 0.033151586
    vertex -0.008882941 0.008794508 0.03282155
  endloop
endfacet
facet normal 5.456968e-12 5.8813093e-06 -1.575876e-06
  outer loop
    vertex -0.025 0.0103527615 0.038637035
    vertex -0.008882941 0.008794508 0.03282155
    vertex -0.008970484 0.008705195 0.032488227
  endloop
endfacet
facet normal 1.4210855e-14 5.827183e-06 -1.5613892e-06
  outer loop
    vertex -0.012489991 0.0005001201 0.0018664736
    vertex -0.012494369 0.00037513388 0.0014000187
    vertex -0.025 3.061617e-18 0.0
  endloop
endfacet
facet normal -2.728484e-12 5.9278536e-06 -1.5883688e-06
  outer loop
    vertex -0.025 0.0103527615 0.038637035
    vertex -0.008970484 0.008705195 0.032488227
    vertex -0.00905713 0.00861501 0.032151654
  endloop
endfacet
facet normal -8.526513e-14 5.8225114e-06 -1.5601368e-06
  outer loop
    vertex -0.012484362 0.0006250562 0.0023327416
    vertex -0.012489991 0.0005001201 0.0018664736
    vertex -0.025 3.061617e-18 0.0
  endloop
endfacet
facet normal -2.728484e-12 5.973314e-06 -1.6005488e-06
  outer loop
    vertex -0.025 0.0103527615 0.038637035
    vertex -0.00905713 0.00861501 0.032151654
    vertex -0.009142869 0.008523963 0.031811863
  endloop
endfacet
facet normal 5.684342e-14 5.816673e-06 -1.5585731e-06
  outer loop
    vertex -0.012477484 0.0007499298 0.0027987761
    vertex -0.012484362 0.0006250562 0.0023327416
    vertex -0.025 3.061617e-18 0.0
  endloop
endfacet
facet normal 0.0 6.0175516e-06 -1.6123959e-06
  outer loop
    vertex -0.025 0.0103527615 0.038637035
    vertex -0.009142869 0.008523963 0.031811863
    vertex -0.009227693 0.008432063 0.031468887
  endloop
endfacet
facet normal -4.5474735e-12 6.0606035e-06 -1.6239428e-06
  outer loop
    vertex -0.025 0.0103527615 0.038637035
    vertex -0.009227693 0.008432063 0.031468887
    vertex -0.009311593 0.008339318 0.03112276
  endloop
endfacet
facet normal -2.842171e-14 5.8096725e-06 -1.5566968e-06
  outer loop
    vertex -0.012469357 0.0008747283 0.0032645306
    vertex -0.012477484 0.0007499298 0.0027987761
    vertex -0.025 3.061617e-18 0.0
  endloop
endfacet
facet normal 3.637979e-12 6.1024693e-06 -1.6351478e-06
  outer loop
    vertex -0.025 0.0103527615 0.038637035
    vertex -0.009311593 0.008339318 0.03112276
    vertex -0.009394561 0.00824574 0.03077352
  endloop
endfacet
facet normal 1.1368684e-13 5.801496e-06 -1.5545066e-06
  outer loop
    vertex -0.01245998 0.0009994393 0.003729958
    vertex -0.012469357 0.0008747283 0.0032645306
    vertex -0.025 3.061617e-18 0.0
  endloop
endfacet
facet normal 1.8189894e-12 6.1431783e-06 -1.6460544e-06
  outer loop
    vertex -0.025 0.0103527615 0.038637035
    vertex -0.009394561 0.00824574 0.03077352
    vertex -0.009476589 0.008151336 0.030421197
  endloop
endfacet
facet normal -5.684342e-14 5.792165e-06 -1.5520058e-06
  outer loop
    vertex -0.012449358 0.0011240501 0.004195012
    vertex -0.01245998 0.0009994393 0.003729958
    vertex -0.025 3.061617e-18 0.0
  endloop
endfacet
facet normal 0.0 6.182614e-06 -1.65663e-06
  outer loop
    vertex -0.025 0.0103527615 0.038637035
    vertex -0.009476589 0.008151336 0.030421197
    vertex -0.009557667 0.008056115 0.03006583
  endloop
endfacet
facet normal 0.0 6.2209147e-06 -1.6668891e-06
  outer loop
    vertex -0.025 0.0103527615 0.038637035
    vertex -0.009557667 0.008056115 0.03006583
    vertex -0.00963779 0.007960089 0.029707454
  endloop
endfacet
facet normal -2.2737368e-13 5.7816724e-06 -1.5491937e-06
  outer loop
    vertex -0.012437489 0.0012485485 0.0046596467
    vertex -0.012449358 0.0011240501 0.004195012
    vertex -0.025 3.061617e-18 0.0
  endloop
endfacet
facet normal -3.637979e-12 6.257993e-06 -1.6768281e-06
  outer loop
    vertex -0.025 0.0103527615 0.038637035
    vertex -0.00963779 0.007960089 0.029707454
    vertex -0.009716948 0.0078632645 0.029346103
  endloop
endfacet
facet normal 2.842171e-13 5.7700086e-06 -1.5460697e-06
  outer loop
    vertex -0.012424375 0.001372922 0.0051238146
    vertex -0.012437489 0.0012485485 0.0046596467
    vertex -0.025 3.061617e-18 0.0
  endloop
endfacet
facet normal -1.8189894e-12 6.2938343e-06 -1.6864251e-06
  outer loop
    vertex -0.025 0.0103527615 0.038637035
    vertex -0.009716948 0.0078632645 0.029346103
    vertex -0.009795132 0.007765654 0.028981816
  endloop
endfacet
facet normal 3.9790393e-13 5.7571797e-06 -1.5426326e-06
  outer loop
    vertex -0.012410017 0.001497158 0.0055874693
    vertex -0.012424375 0.001372922 0.0051238146
    vertex -0.025 3.061617e-18 0.0
  endloop
endfacet
facet normal 1.8189894e-12 6.328526e-06 -1.6957165e-06
  outer loop
    vertex -0.025 0.0103527615 0.038637035
    vertex -0.009795132 0.007765654 0.028981816
    vertex -0.009872337 0.007667266 0.028614625
  endloop
endfacet
facet normal 0.0 6.361908e-06 -1.7046696e-06
  outer loop
    vertex -0.025 0.0103527615 0.038637035
    vertex -0.009872337 0.007667266 0.028614625
    vertex -0.009948553 0.0075681102 0.028244572
  endloop
endfacet
facet normal -8.526513e-13 5.7432076e-06 -1.5388861e-06
  outer loop
    vertex -0.012394417 0.001621244 0.0060505653
    vertex -0.012410017 0.001497158 0.0055874693
    vertex -0.025 3.061617e-18 0.0
  endloop
endfacet
facet normal 0.0 6.3941116e-06 -1.7132952e-06
  outer loop
    vertex -0.025 0.0103527615 0.038637035
    vertex -0.009948553 0.0075681102 0.028244572
    vertex -0.010023774 0.0074681975 0.027871693
  endloop
endfacet
facet normal 9.094947e-13 5.728054e-06 -1.5348293e-06
  outer loop
    vertex -0.012377576 0.0017451679 0.006513055
    vertex -0.012394417 0.001621244 0.0060505653
    vertex -0.025 3.061617e-18 0.0
  endloop
endfacet
facet normal -3.637979e-12 6.4250926e-06 -1.7216043e-06
  outer loop
    vertex -0.025 0.0103527615 0.038637035
    vertex -0.010023774 0.0074681975 0.027871693
    vertex -0.01009799 0.0073675364 0.027496021
  endloop
endfacet
facet normal -2.842171e-13 5.711763e-06 -1.530462e-06
  outer loop
    vertex -0.012359496 0.001868917 0.006974893
    vertex -0.012377576 0.0017451679 0.006513055
    vertex -0.025 3.061617e-18 0.0
  endloop
endfacet
facet normal 3.637979e-12 6.4548803e-06 -1.7295788e-06
  outer loop
    vertex -0.025 0.0103527615 0.038637035
    vertex -0.01009799 0.0073675364 0.027496021
    vertex -0.010171196 0.007266138 0.027117597
  endloop
endfacet
facet normal 0.0 6.4833584e-06 -1.7372076e-06
  outer loop
    vertex -0.025 0.0103527615 0.038637035
    vertex -0.010171196 0.007266138 0.027117597
    vertex -0.010243384 0.007164013 0.02673646
  endloop
endfacet
facet normal -5.1159077e-13 5.694307e-06 -1.5257841e-06
  outer loop
    vertex -0.01234018 0.001992479 0.007436033
    vertex -0.012359496 0.001868917 0.006974893
    vertex -0.025 3.061617e-18 0.0
  endloop
endfacet
facet normal 0.0 6.510687e-06 -1.7445309e-06
  outer loop
    vertex -0.025 0.0103527615 0.038637035
    vertex -0.010243384 0.007164013 0.02673646
    vertex -0.0103145465 0.0070611704 0.026352646
  endloop
endfacet
facet normal 0.0 5.675703e-06 -1.5208001e-06
  outer loop
    vertex -0.012319627 0.0021158417 0.007896429
    vertex -0.01234018 0.001992479 0.007436033
    vertex -0.025 3.061617e-18 0.0
  endloop
endfacet
facet normal 0.0 6.5367494e-06 -1.7515122e-06
  outer loop
    vertex -0.025 0.0103527615 0.038637035
    vertex -0.0103145465 0.0070611704 0.026352646
    vertex -0.010384677 0.006957621 0.025966194
  endloop
endfacet
facet normal -9.094947e-13 5.655934e-06 -1.5155015e-06
  outer loop
    vertex -0.012297842 0.0022389924 0.008356034
    vertex -0.012319627 0.0021158417 0.007896429
    vertex -0.025 3.061617e-18 0.0
  endloop
endfacet
facet normal -3.637979e-12 6.5615313e-06 -1.7581624e-06
  outer loop
    vertex -0.025 0.0103527615 0.038637035
    vertex -0.010384677 0.006957621 0.025966194
    vertex -0.010453767 0.0068533747 0.025577143
  endloop
endfacet
facet normal 7.275958e-12 6.58512e-06 -1.7644707e-06
  outer loop
    vertex -0.025 0.0103527615 0.038637035
    vertex -0.010453767 0.0068533747 0.025577143
    vertex -0.010521811 0.006748443 0.025185531
  endloop
endfacet
facet normal 0.0 5.6350227e-06 -1.5098998e-06
  outer loop
    vertex -0.012274825 0.002361919 0.008814802
    vertex -0.012297842 0.0022389924 0.008356034
    vertex -0.025 3.061617e-18 0.0
  endloop
endfacet
facet normal -7.275958e-12 6.607457e-06 -1.770466e-06
  outer loop
    vertex -0.025 0.0103527615 0.038637035
    vertex -0.010521811 0.006748443 0.025185531
    vertex -0.010588802 0.006642835 0.024791399
  endloop
endfacet
facet normal 2.2737368e-12 5.6129593e-06 -1.503991e-06
  outer loop
    vertex -0.01225058 0.0024846094 0.009272688
    vertex -0.012274825 0.002361919 0.008814802
    vertex -0.025 3.061617e-18 0.0
  endloop
endfacet
facet normal 3.637979e-12 6.6285575e-06 -1.7761085e-06
  outer loop
    vertex -0.025 0.0103527615 0.038637035
    vertex -0.010588802 0.006642835 0.024791399
    vertex -0.0106547335 0.006536563 0.024394784
  endloop
endfacet
facet normal -9.094947e-13 5.5897685e-06 -1.4977727e-06
  outer loop
    vertex -0.012225109 0.0026070508 0.009729646
    vertex -0.01225058 0.0024846094 0.009272688
    vertex -0.025 3.061617e-18 0.0
  endloop
endfacet
facet normal 0.0 6.648377e-06 -1.7814273e-06
  outer loop
    vertex -0.025 0.0103527615 0.038637035
    vertex -0.0106547335 0.006536563 0.024394784
    vertex -0.010719598 0.0064296364 0.02399573
  endloop
endfacet
facet normal -3.637979e-12 6.66696e-06 -1.7864113e-06
  outer loop
    vertex -0.025 0.0103527615 0.038637035
    vertex -0.010719598 0.0064296364 0.02399573
    vertex -0.010783389 0.006322066 0.023594271
  endloop
endfacet
facet normal -9.094947e-13 5.5654195e-06 -1.4912484e-06
  outer loop
    vertex -0.012198414 0.0027292315 0.010185631
    vertex -0.012225109 0.0026070508 0.009729646
    vertex -0.025 3.061617e-18 0.0
  endloop
endfacet
facet normal -7.275958e-12 6.684306e-06 -1.7910534e-06
  outer loop
    vertex -0.025 0.0103527615 0.038637035
    vertex -0.010783389 0.006322066 0.023594271
    vertex -0.010846101 0.0062138624 0.023190452
  endloop
endfacet
facet normal 6.82121e-13 5.539917e-06 -1.484417e-06
  outer loop
    vertex -0.012170497 0.0028511388 0.010640595
    vertex -0.012198414 0.0027292315 0.010185631
    vertex -0.025 3.061617e-18 0.0
  endloop
endfacet
facet normal 7.275958e-12 6.7004294e-06 -1.7953644e-06
  outer loop
    vertex -0.025 0.0103527615 0.038637035
    vertex -0.010846101 0.0062138624 0.023190452
    vertex -0.010907727 0.0061050374 0.02278431
  endloop
endfacet
facet normal 7.9580786e-13 5.5132978e-06 -1.4772846e-06
  outer loop
    vertex -0.012141363 0.002972761 0.011094495
    vertex -0.012170497 0.0028511388 0.010640595
    vertex -0.025 3.061617e-18 0.0
  endloop
endfacet
facet normal 0.0 6.7152287e-06 -1.799337e-06
  outer loop
    vertex -0.025 0.0103527615 0.038637035
    vertex -0.010907727 0.0061050374 0.02278431
    vertex -0.010968261 0.005995601 0.022375887
  endloop
endfacet
facet normal 0.0 5.485527e-06 -1.4698423e-06
  outer loop
    vertex -0.012111013 0.0030940853 0.011547283
    vertex -0.012141363 0.002972761 0.011094495
    vertex -0.025 3.061617e-18 0.0
  endloop
endfacet
facet normal 7.275958e-12 6.7288056e-06 -1.8029787e-06
  outer loop
    vertex -0.025 0.0103527615 0.038637035
    vertex -0.010968261 0.005995601 0.022375887
    vertex -0.011027698 0.0058855647 0.021965226
  endloop
endfacet
facet normal 2.2737368e-13 5.4566385e-06 -1.4621022e-06
  outer loop
    vertex -0.012079451 0.0032151 0.011998916
    vertex -0.012111013 0.0030940853 0.011547283
    vertex -0.025 3.061617e-18 0.0
  endloop
endfacet
facet normal 0.0 6.741131e-06 -1.8062783e-06
  outer loop
    vertex -0.025 0.0103527615 0.038637035
    vertex -0.011027698 0.0058855647 0.021965226
    vertex -0.011086031 0.005774939 0.021552365
  endloop
endfacet
facet normal 0.0 6.752176e-06 -1.8092396e-06
  outer loop
    vertex -0.025 0.0103527615 0.038637035
    vertex -0.011086031 0.005774939 0.021552365
    vertex -0.011143254 0.0056637353 0.021137347
  endloop
endfacet
facet normal -1.0231815e-12 5.4266116e-06 -1.4540551e-06
  outer loop
    vertex -0.01204668 0.0033357928 0.012449348
    vertex -0.012079451 0.0032151 0.011998916
    vertex -0.025 3.061617e-18 0.0
  endloop
endfacet
facet normal -7.275958e-12 6.761955e-06 -1.8118662e-06
  outer loop
    vertex -0.025 0.0103527615 0.038637035
    vertex -0.011143254 0.0056637353 0.021137347
    vertex -0.011199361 0.0055519645 0.020720214
  endloop
endfacet
facet normal -5.684342e-13 5.3954436e-06 -1.445704e-06
  outer loop
    vertex -0.012012702 0.0034561516 0.012898534
    vertex -0.01204668 0.0033357928 0.012449348
    vertex -0.025 3.061617e-18 0.0
  endloop
endfacet
facet normal 7.275958e-12 6.7705405e-06 -1.8141582e-06
  outer loop
    vertex -0.025 0.0103527615 0.038637035
    vertex -0.011199361 0.0055519645 0.020720214
    vertex -0.011254348 0.005439638 0.020301005
  endloop
endfacet
facet normal 7.9580786e-13 5.363171e-06 -1.4370582e-06
  outer loop
    vertex -0.011977523 0.0035761646 0.013346428
    vertex -0.012012702 0.0034561516 0.012898534
    vertex -0.025 3.061617e-18 0.0
  endloop
endfacet
facet normal -7.275958e-12 6.7777582e-06 -1.8161081e-06
  outer loop
    vertex -0.025 0.0103527615 0.038637035
    vertex -0.011254348 0.005439638 0.020301005
    vertex -0.011308207 0.005326767 0.019879766
  endloop
endfacet
facet normal -2.3874236e-12 5.3297817e-06 -1.4281085e-06
  outer loop
    vertex -0.011941144 0.0036958195 0.013792987
    vertex -0.011977523 0.0035761646 0.013346428
    vertex -0.025 3.061617e-18 0.0
  endloop
endfacet
facet normal 7.275958e-12 6.783812e-06 -1.8177161e-06
  outer loop
    vertex -0.025 0.0103527615 0.038637035
    vertex -0.011308207 0.005326767 0.019879766
    vertex -0.011360935 0.005213363 0.019456536
  endloop
endfacet
facet normal 2.3874236e-12 5.295252e-06 -1.4188606e-06
  outer loop
    vertex -0.01190357 0.0038151047 0.014238165
    vertex -0.011941144 0.0036958195 0.013792987
    vertex -0.025 3.061617e-18 0.0
  endloop
endfacet
facet normal 7.275958e-12 6.7885558e-06 -1.8189894e-06
  outer loop
    vertex -0.025 0.0103527615 0.038637035
    vertex -0.011360935 0.005213363 0.019456536
    vertex -0.011412526 0.005099437 0.019031357
  endloop
endfacet
facet normal -1.2505552e-12 5.2596183e-06 -1.4093093e-06
  outer loop
    vertex -0.011864805 0.0039340076 0.014681917
    vertex -0.01190357 0.0038151047 0.014238165
    vertex -0.025 3.061617e-18 0.0
  endloop
endfacet
facet normal -7.275958e-12 6.792048e-06 -1.8199207e-06
  outer loop
    vertex -0.025 0.0103527615 0.038637035
    vertex -0.011412526 0.005099437 0.019031357
    vertex -0.011462973 0.0049850005 0.018604275
  endloop
endfacet
facet normal 0.0 6.794289e-06 -1.8205246e-06
  outer loop
    vertex -0.025 0.0103527615 0.038637035
    vertex -0.011462973 0.0049850005 0.018604275
    vertex -0.011512275 0.004870065 0.01817533
  endloop
endfacet
facet normal -4.5474735e-13 5.2228793e-06 -1.3994658e-06
  outer loop
    vertex -0.011824851 0.004052517 0.0151242
    vertex -0.011864805 0.0039340076 0.014681917
    vertex -0.025 3.061617e-18 0.0
  endloop
endfacet
facet normal 0.0 6.7952496e-06 -1.8207793e-06
  outer loop
    vertex -0.025 0.0103527615 0.038637035
    vertex -0.011512275 0.004870065 0.01817533
    vertex -0.011560423 0.004754642 0.017744565
  endloop
endfacet
facet normal 2.16005e-12 5.185039e-06 -1.3893289e-06
  outer loop
    vertex -0.011783714 0.004170621 0.015564969
    vertex -0.011824851 0.004052517 0.0151242
    vertex -0.025 3.061617e-18 0.0
  endloop
endfacet
facet normal -7.275958e-12 6.7949004e-06 -1.820692e-06
  outer loop
    vertex -0.025 0.0103527615 0.038637035
    vertex -0.011560423 0.004754642 0.017744565
    vertex -0.011607414 0.004638743 0.017312026
  endloop
endfacet
facet normal -5.002221e-12 5.1460925e-06 -1.3788872e-06
  outer loop
    vertex -0.011741398 0.004288307 0.01600418
    vertex -0.011783714 0.004170621 0.015564969
    vertex -0.025 3.061617e-18 0.0
  endloop
endfacet
facet normal 1.4551915e-11 6.793358e-06 -1.8202772e-06
  outer loop
    vertex -0.025 0.0103527615 0.038637035
    vertex -0.011607414 0.004638743 0.017312026
    vertex -0.011653244 0.00452238 0.016877752
  endloop
endfacet
facet normal 8.6402e-12 5.106019e-06 -1.3681607e-06
  outer loop
    vertex -0.011697906 0.004405564 0.016441789
    vertex -0.011741398 0.004288307 0.01600418
    vertex -0.025 3.061617e-18 0.0
  endloop
endfacet
facet normal 0.0 6.790535e-06 -1.819506e-06
  outer loop
    vertex -0.025 0.0103527615 0.038637035
    vertex -0.011653244 0.00452238 0.016877752
    vertex -0.011697906 0.004405564 0.016441789
  endloop
endfacet
facet normal -2.1827873e-11 0.0005139535 -0.0001377134
  outer loop
    vertex -0.011697906 0.004405564 0.016441789
    vertex -0.025 3.061617e-18 0.0
    vertex -0.025 0.0103527615 0.038637035
  endloop
endfacet
facet normal -2.5665329e-06 0.0 -6.87688e-07
  outer loop
    vertex -0.0103527615 -0.025 0.038637035
    vertex -0.0103527615 -0.0070047444 0.038637035
    vertex -0.0103145465 -0.0070611704 0.03849441
  endloop
endfacet
facet normal -4.7789235e-06 -1.1191048e-13 -1.2804996e-06
  outer loop
    vertex -0.0103527615 -0.025 0.038637035
    vertex -0.0103145465 -0.0070611704 0.03849441
    vertex -0.010243384 -0.007164013 0.03822883
  endloop
endfacet
facet normal -4.8468687e-06 -2.2026825e-13 -1.29871e-06
  outer loop
    vertex -0.0103527615 -0.025 0.038637035
    vertex -0.010243384 -0.007164013 0.03822883
    vertex -0.010171196 -0.007266138 0.03795942
  endloop
endfacet
facet normal -4.913695e-06 -1.3926638e-12 -1.3166466e-06
  outer loop
    vertex -0.0103527615 -0.025 0.038637035
    vertex -0.010171196 -0.007266138 0.03795942
    vertex -0.01009799 -0.0073675364 0.037686214
  endloop
endfacet
facet normal -4.979598e-06 1.1084467e-12 -1.3342597e-06
  outer loop
    vertex -0.0103527615 -0.025 0.038637035
    vertex -0.01009799 -0.0073675364 0.037686214
    vertex -0.010023774 -0.0074681975 0.03740923
  endloop
endfacet
facet normal -5.0443177e-06 -9.663381e-13 -1.351631e-06
  outer loop
    vertex -0.0103527615 -0.025 0.038637035
    vertex -0.010023774 -0.0074681975 0.03740923
    vertex -0.009948553 -0.0075681102 0.037128504
  endloop
endfacet
facet normal -5.1079223e-06 -2.2737368e-13 -1.3686636e-06
  outer loop
    vertex -0.0103527615 -0.025 0.038637035
    vertex -0.009948553 -0.0075681102 0.037128504
    vertex -0.009872337 -0.007667266 0.036844064
  endloop
endfacet
facet normal -5.1705356e-06 1.1368684e-13 -1.3854378e-06
  outer loop
    vertex -0.0103527615 -0.025 0.038637035
    vertex -0.009872337 -0.007667266 0.036844064
    vertex -0.009795132 -0.007765654 0.03655593
  endloop
endfacet
facet normal -5.231959e-06 1.0231815e-12 -1.4018897e-06
  outer loop
    vertex -0.0103527615 -0.025 0.038637035
    vertex -0.009795132 -0.007765654 0.03655593
    vertex -0.009716948 -0.0078632645 0.03626414
  endloop
endfacet
facet normal -5.2922733e-06 -1.364242e-12 -1.4180678e-06
  outer loop
    vertex -0.0103527615 -0.025 0.038637035
    vertex -0.009716948 -0.0078632645 0.03626414
    vertex -0.00963779 -0.007960089 0.03596872
  endloop
endfacet
facet normal -5.3515323e-06 -2.2737368e-13 -1.4339394e-06
  outer loop
    vertex -0.0103527615 -0.025 0.038637035
    vertex -0.00963779 -0.007960089 0.03596872
    vertex -0.009557667 -0.008056115 0.0356697
  endloop
endfacet
facet normal -5.409609e-06 1.8189894e-12 -1.4494872e-06
  outer loop
    vertex -0.0103527615 -0.025 0.038637035
    vertex -0.009557667 -0.008056115 0.0356697
    vertex -0.009476589 -0.008151336 0.03536711
  endloop
endfacet
facet normal -5.466569e-06 -3.4106051e-12 -1.4647794e-06
  outer loop
    vertex -0.0103527615 -0.025 0.038637035
    vertex -0.009476589 -0.008151336 0.03536711
    vertex -0.009394561 -0.00824574 0.03506098
  endloop
endfacet
facet normal -5.5224664e-06 2.046363e-12 -1.4797297e-06
  outer loop
    vertex -0.0103527615 -0.025 0.038637035
    vertex -0.009394561 -0.00824574 0.03506098
    vertex -0.009311593 -0.008339318 0.034751337
  endloop
endfacet
facet normal -5.577145e-06 -1.364242e-12 -1.4943944e-06
  outer loop
    vertex -0.0103527615 -0.025 0.038637035
    vertex -0.009311593 -0.008339318 0.034751337
    vertex -0.009227693 -0.008432063 0.03443822
  endloop
endfacet
facet normal -5.6307545e-06 0.0 -1.5087535e-06
  outer loop
    vertex -0.0103527615 -0.025 0.038637035
    vertex -0.009227693 -0.008432063 0.03443822
    vertex -0.009142869 -0.008523963 0.03412165
  endloop
endfacet
facet normal -5.683185e-06 -4.5474735e-13 -1.5228052e-06
  outer loop
    vertex -0.0103527615 -0.025 0.038637035
    vertex -0.009142869 -0.008523963 0.03412165
    vertex -0.00905713 -0.00861501 0.033801667
  endloop
endfacet
facet normal -5.8341902e-06 0.0 -1.5632664e-06
  outer loop
    vertex -0.00012506131 -0.012499374 0.0004667352
    vertex -6.938894e-18 -0.0125 6.938894e-18
    vertex -5.551115e-18 -0.025 0.0
  endloop
endfacet
facet normal -5.7344296e-06 4.5474735e-13 -1.5365313e-06
  outer loop
    vertex -0.0103527615 -0.025 0.038637035
    vertex -0.00905713 -0.00861501 0.033801667
    vertex -0.008970484 -0.008705195 0.0334783
  endloop
endfacet
facet normal -5.833022e-06 7.1054274e-15 -1.5629536e-06
  outer loop
    vertex -0.0002501101 -0.012497498 0.00093342364
    vertex -0.00012506131 -0.012499374 0.0004667352
    vertex -5.551115e-18 -0.025 0.0
  endloop
endfacet
facet normal -5.7845027e-06 -1.8189894e-12 -1.5499554e-06
  outer loop
    vertex -0.0103527615 -0.025 0.038637035
    vertex -0.008970484 -0.008705195 0.0334783
    vertex -0.008882941 -0.008794508 0.033151586
  endloop
endfacet
facet normal -5.830686e-06 0.0 -1.5623275e-06
  outer loop
    vertex -0.00037513388 -0.012494369 0.0014000187
    vertex -0.0002501101 -0.012497498 0.00093342364
    vertex -5.551115e-18 -0.025 0.0
  endloop
endfacet
facet normal -5.833477e-06 -1.8189894e-12 -1.5630812e-06
  outer loop
    vertex -0.0103527615 -0.025 0.038637035
    vertex -0.008882941 -0.008794508 0.033151586
    vertex -0.008794508 -0.008882941 0.03282155
  endloop
endfacet
facet normal -5.8813093e-06 5.456968e-12 -1.575876e-06
  outer loop
    vertex -0.0103527615 -0.025 0.038637035
    vertex -0.008794508 -0.008882941 0.03282155
    vertex -0.008705195 -0.008970484 0.032488227
  endloop
endfacet
facet normal -5.827183e-06 1.4210855e-14 -1.5613892e-06
  outer loop
    vertex -0.0005001201 -0.012489991 0.0018664736
    vertex -0.00037513388 -0.012494369 0.0014000187
    vertex -5.551115e-18 -0.025 0.0
  endloop
endfacet
facet normal -5.9278536e-06 -2.728484e-12 -1.5883688e-06
  outer loop
    vertex -0.0103527615 -0.025 0.038637035
    vertex -0.008705195 -0.008970484 0.032488227
    vertex -0.00861501 -0.00905713 0.032151654
  endloop
endfacet
facet normal -5.8225114e-06 -8.526513e-14 -1.5601368e-06
  outer loop
    vertex -0.0006250562 -0.012484362 0.0023327416
    vertex -0.0005001201 -0.012489991 0.0018664736
    vertex -5.551115e-18 -0.025 0.0
  endloop
endfacet
facet normal -5.973314e-06 -2.728484e-12 -1.6005488e-06
  outer loop
    vertex -0.0103527615 -0.025 0.038637035
    vertex -0.00861501 -0.00905713 0.032151654
    vertex -0.008523963 -0.009142869 0.031811863
  endloop
endfacet
facet normal -5.816673e-06 5.684342e-14 -1.5585731e-06
  outer loop
    vertex -0.0007499298 -0.012477484 0.0027987761
    vertex -0.0006250562 -0.012484362 0.0023327416
    vertex -5.551115e-18 -0.025 0.0
  endloop
endfacet
facet normal -6.0175516e-06 0.0 -1.6123959e-06
  outer loop
    vertex -0.0103527615 -0.025 0.038637035
    vertex -0.008523963 -0.009142869 0.031811863
    vertex -0.008432063 -0.009227693 0.031468887
  endloop
endfacet
facet normal -6.0606035e-06 -4.5474735e-12 -1.6239428e-06
  outer loop
    vertex -0.0103527615 -0.025 0.038637035
    vertex -0.008432063 -0.009227693 0.031468887
    vertex -0.008339318 -0.009311593 0.03112276
  endloop
endfacet
facet normal -5.8096725e-06 -2.842171e-14 -1.5566968e-06
  outer loop
    vertex -0.0008747283 -0.012469357 0.0032645306
    vertex -0.0007499298 -0.012477484 0.0027987761
    vertex -5.551115e-18 -0.025 0.0
  endloop
endfacet
facet normal -6.1024693e-06 3.637979e-12 -1.6351478e-06
  outer loop
    vertex -0.0103527615 -0.025 0.038637035
    vertex -0.008339318 -0.009311593 0.03112276
    vertex -0.00824574 -0.009394561 0.03077352
  endloop
endfacet
facet normal -5.801496e-06 1.1368684e-13 -1.5545066e-06
  outer loop
    vertex -0.0009994393 -0.01245998 0.003729958
    vertex -0.0008747283 -0.012469357 0.0032645306
    vertex -5.551115e-18 -0.025 0.0
  endloop
endfacet
facet normal -6.1431783e-06 1.8189894e-12 -1.6460544e-06
  outer loop
    vertex -0.0103527615 -0.025 0.038637035
    vertex -0.00824574 -0.009394561 0.03077352
    vertex -0.008151336 -0.009476589 0.030421197
  endloop
endfacet
facet normal -5.792165e-06 -5.684342e-14 -1.5520058e-06
  outer loop
    vertex -0.0011240501 -0.012449358 0.004195012
    vertex -0.0009994393 -0.01245998 0.003729958
    vertex -5.551115e-18 -0.025 0.0
  endloop
endfacet
facet normal -6.182614e-06 0.0 -1.65663e-06
  outer loop
    vertex -0.0103527615 -0.025 0.038637035
    vertex -0.008151336 -0.009476589 0.030421197
    vertex -0.008056115 -0.009557667 0.03006583
  endloop
endfacet
facet normal -6.2209147e-06 0.0 -1.6668891e-06
  outer loop
    vertex -0.0103527615 -0.025 0.038637035
    vertex -0.008056115 -0.009557667 0.03006583
    vertex -0.007960089 -0.00963779 0.029707454
  endloop
endfacet
facet normal -5.7816724e-06 -2.2737368e-13 -1.5491937e-06
  outer loop
    vertex -0.0012485485 -0.012437489 0.0046596467
    vertex -0.0011240501 -0.012449358 0.004195012
    vertex -5.551115e-18 -0.025 0.0
  endloop
endfacet
facet normal -6.257993e-06 -3.637979e-12 -1.6768281e-06
  outer loop
    vertex -0.0103527615 -0.025 0.038637035
    vertex -0.007960089 -0.00963779 0.029707454
    vertex -0.0078632645 -0.009716948 0.029346103
  endloop
endfacet
facet normal -5.7700086e-06 2.842171e-13 -1.5460697e-06
  outer loop
    vertex -0.001372922 -0.012424375 0.0051238146
    vertex -0.0012485485 -0.012437489 0.0046596467
    vertex -5.551115e-18 -0.025 0.0
  endloop
endfacet
facet normal -6.2938343e-06 -1.8189894e-12 -1.6864251e-06
  outer loop
    vertex -0.0103527615 -0.025 0.038637035
    vertex -0.0078632645 -0.009716948 0.029346103
    vertex -0.007765654 -0.009795132 0.028981816
  endloop
endfacet
facet normal -5.7571797e-06 3.9790393e-13 -1.5426326e-06
  outer loop
    vertex -0.001497158 -0.012410017 0.0055874693
    vertex -0.001372922 -0.012424375 0.0051238146
    vertex -5.551115e-18 -0.025 0.0
  endloop
endfacet
facet normal -6.328526e-06 1.8189894e-12 -1.6957165e-06
  outer loop
    vertex -0.0103527615 -0.025 0.038637035
    vertex -0.007765654 -0.009795132 0.028981816
    vertex -0.007667266 -0.009872337 0.028614625
  endloop
endfacet
facet normal -6.361908e-06 0.0 -1.7046696e-06
  outer loop
    vertex -0.0103527615 -0.025 0.038637035
    vertex -0.007667266 -0.009872337 0.028614625
    vertex -0.0075681102 -0.009948553 0.028244572
  endloop
endfacet
facet normal -5.7432076e-06 -8.526513e-13 -1.5388861e-06
  outer loop
    vertex -0.001621244 -0.012394417 0.0060505653
    vertex -0.001497158 -0.012410017 0.0055874693
    vertex -5.551115e-18 -0.025 0.0
  endloop
endfacet
facet normal -6.3941116e-06 0.0 -1.7132952e-06
  outer loop
    vertex -0.0103527615 -0.025 0.038637035
    vertex -0.0075681102 -0.009948553 0.028244572
    vertex -0.0074681975 -0.010023774 0.027871693
  endloop
endfacet
facet normal -5.728054e-06 9.094947e-13 -1.5348293e-06
  outer loop
    vertex -0.0017451679 -0.012377576 0.006513055
    vertex -0.001621244 -0.012394417 0.0060505653
    vertex -5.551115e-18 -0.025 0.0
  endloop
endfacet
facet normal -6.4250926e-06 -3.637979e-12 -1.7216043e-06
  outer loop
    vertex -0.0103527615 -0.025 0.038637035
    vertex -0.0074681975 -0.010023774 0.027871693
    vertex -0.0073675364 -0.01009799 0.027496021
  endloop
endfacet
facet normal -5.711763e-06 -2.842171e-13 -1.530462e-06
  outer loop
    vertex -0.001868917 -0.012359496 0.006974893
    vertex -0.0017451679 -0.012377576 0.006513055
    vertex -5.551115e-18 -0.025 0.0
  endloop
endfacet
facet normal -6.4548803e-06 3.637979e-12 -1.7295788e-06
  outer loop
    vertex -0.0103527615 -0.025 0.038637035
    vertex -0.0073675364 -0.01009799 0.027496021
    vertex -0.007266138 -0.010171196 0.027117597
  endloop
endfacet
facet normal -6.4833584e-06 0.0 -1.7372076e-06
  outer loop
    vertex -0.0103527615 -0.025 0.038637035
    vertex -0.007266138 -0.010171196 0.027117597
    vertex -0.007164013 -0.010243384 0.02673646
  endloop
endfacet
facet normal -5.694307e-06 -5.1159077e-13 -1.5257841e-06
  outer loop
    vertex -0.001992479 -0.01234018 0.007436033
    vertex -0.001868917 -0.012359496 0.006974893
    vertex -5.551115e-18 -0.025 0.0
  endloop
endfacet
facet normal -6.510687e-06 0.0 -1.7445309e-06
  outer loop
    vertex -0.0103527615 -0.025 0.038637035
    vertex -0.007164013 -0.010243384 0.02673646
    vertex -0.0070611704 -0.0103145465 0.026352646
  endloop
endfacet
facet normal -5.675703e-06 0.0 -1.5208001e-06
  outer loop
    vertex -0.0021158417 -0.012319627 0.007896429
    vertex -0.001992479 -0.01234018 0.007436033
    vertex -5.551115e-18 -0.025 0.0
  endloop
endfacet
facet normal -6.5367494e-06 0.0 -1.7515122e-06
  outer loop
    vertex -0.0103527615 -0.025 0.038637035
    vertex -0.0070611704 -0.0103145465 0.026352646
    vertex -0.006957621 -0.010384677 0.025966194
  endloop
endfacet
facet normal -5.655934e-06 -9.094947e-13 -1.5155015e-06
  outer loop
    vertex -0.0022389924 -0.012297842 0.008356034
    vertex -0.0021158417 -0.012319627 0.007896429
    vertex -5.551115e-18 -0.025 0.0
  endloop
endfacet
facet normal -6.5615313e-06 -3.637979e-12 -1.7581624e-06
  outer loop
    vertex -0.0103527615 -0.025 0.038637035
    vertex -0.006957621 -0.010384677 0.025966194
    vertex -0.0068533747 -0.010453767 0.025577143
  endloop
endfacet
facet normal -6.58512e-06 7.275958e-12 -1.7644707e-06
  outer loop
    vertex -0.0103527615 -0.025 0.038637035
    vertex -0.0068533747 -0.010453767 0.025577143
    vertex -0.006748443 -0.010521811 0.025185531
  endloop
endfacet
facet normal -5.6350227e-06 0.0 -1.5098998e-06
  outer loop
    vertex -0.002361919 -0.012274825 0.008814802
    vertex -0.0022389924 -0.012297842 0.008356034
    vertex -5.551115e-18 -0.025 0.0
  endloop
endfacet
facet normal -6.607457e-06 -7.275958e-12 -1.770466e-06
  outer loop
    vertex -0.0103527615 -0.025 0.038637035
    vertex -0.006748443 -0.010521811 0.025185531
    vertex -0.006642835 -0.010588802 0.024791399
  endloop
endfacet
facet normal -5.6129593e-06 2.2737368e-12 -1.503991e-06
  outer loop
    vertex -0.0024846094 -0.01225058 0.009272688
    vertex -0.002361919 -0.012274825 0.008814802
    vertex -5.551115e-18 -0.025 0.0
  endloop
endfacet
facet normal -6.6285575e-06 3.637979e-12 -1.7761085e-06
  outer loop
    vertex -0.0103527615 -0.025 0.038637035
    vertex -0.006642835 -0.010588802 0.024791399
    vertex -0.006536563 -0.0106547335 0.024394784
  endloop
endfacet
facet normal -5.5897685e-06 -9.094947e-13 -1.4977727e-06
  outer loop
    vertex -0.0026070508 -0.012225109 0.009729646
    vertex -0.0024846094 -0.01225058 0.009272688
    vertex -5.551115e-18 -0.025 0.0
  endloop
endfacet
facet normal -6.648377e-06 0.0 -1.7814273e-06
  outer loop
    vertex -0.0103527615 -0.025 0.038637035
    vertex -0.006536563 -0.0106547335 0.024394784
    vertex -0.0064296364 -0.010719598 0.02399573
  endloop
endfacet
facet normal -6.66696e-06 -3.637979e-12 -1.7864113e-06
  outer loop
    vertex -0.0103527615 -0.025 0.038637035
    vertex -0.0064296364 -0.010719598 0.02399573
    vertex -0.006322066 -0.010783389 0.023594271
  endloop
endfacet
facet normal -5.5654195e-06 -9.094947e-13 -1.4912484e-06
  outer loop
    vertex -0.0027292315 -0.012198414 0.010185631
    vertex -0.0026070508 -0.012225109 0.009729646
    vertex -5.551115e-18 -0.025 0.0
  endloop
endfacet
facet normal -6.684306e-06 -7.275958e-12 -1.7910534e-06
  outer loop
    vertex -0.0103527615 -0.025 0.038637035
    vertex -0.006322066 -0.010783389 0.023594271
    vertex -0.0062138624 -0.010846101 0.023190452
  endloop
endfacet
facet normal -5.539917e-06 6.82121e-13 -1.484417e-06
  outer loop
    vertex -0.0028511388 -0.012170497 0.010640595
    vertex -0.0027292315 -0.012198414 0.010185631
    vertex -5.551115e-18 -0.025 0.0
  endloop
endfacet
facet normal -6.7004294e-06 7.275958e-12 -1.7953644e-06
  outer loop
    vertex -0.0103527615 -0.025 0.038637035
    vertex -0.0062138624 -0.010846101 0.023190452
    vertex -0.0061050374 -0.010907727 0.02278431
  endloop
endfacet
facet normal -5.5132978e-06 7.9580786e-13 -1.4772846e-06
  outer loop
    vertex -0.002972761 -0.012141363 0.011094495
    vertex -0.0028511388 -0.012170497 0.010640595
    vertex -5.551115e-18 -0.025 0.0
  endloop
endfacet
facet normal -6.7152287e-06 0.0 -1.799337e-06
  outer loop
    vertex -0.0103527615 -0.025 0.038637035
    vertex -0.0061050374 -0.010907727 0.02278431
    vertex -0.005995601 -0.010968261 0.022375887
  endloop
endfacet
facet normal -5.485527e-06 0.0 -1.4698423e-06
  outer loop
    vertex -0.0030940853 -0.012111013 0.011547283
    vertex -0.002972761 -0.012141363 0.011094495
    vertex -5.551115e-18 -0.025 0.0
  endloop
endfacet
facet normal -6.7288056e-06 7.275958e-12 -1.8029787e-06
  outer loop
    vertex -0.0103527615 -0.025 0.038637035
    vertex -0.005995601 -0.010968261 0.022375887
    vertex -0.0058855647 -0.011027698 0.021965226
  endloop
endfacet
facet normal -5.4566385e-06 2.2737368e-13 -1.4621022e-06
  outer loop
    vertex -0.0032151 -0.012079451 0.011998916
    vertex -0.0030940853 -0.012111013 0.011547283
    vertex -5.551115e-18 -0.025 0.0
  endloop
endfacet
facet normal -6.741131e-06 0.0 -1.8062783e-06
  outer loop
    vertex -0.0103527615 -0.025 0.038637035
    vertex -0.0058855647 -0.011027698 0.021965226
    vertex -0.005774939 -0.011086031 0.021552365
  endloop
endfacet
facet normal -6.752176e-06 0.0 -1.8092396e-06
  outer loop
    vertex -0.0103527615 -0.025 0.038637035
    vertex -0.005774939 -0.011086031 0.021552365
    vertex -0.0056637353 -0.011143254 0.021137347
  endloop
endfacet
facet normal -5.4266116e-06 -1.0231815e-12 -1.4540551e-06
  outer loop
    vertex -0.0033357928 -0.01204668 0.012449348
    vertex -0.0032151 -0.012079451 0.011998916
    vertex -5.551115e-18 -0.025 0.0
  endloop
endfacet
facet normal -6.761955e-06 -7.275958e-12 -1.8118662e-06
  outer loop
    vertex -0.0103527615 -0.025 0.038637035
    vertex -0.0056637353 -0.011143254 0.021137347
    vertex -0.0055519645 -0.011199361 0.020720214
  endloop
endfacet
facet normal -5.3954436e-06 -5.684342e-13 -1.445704e-06
  outer loop
    vertex -0.0034561516 -0.012012702 0.012898534
    vertex -0.0033357928 -0.01204668 0.012449348
    vertex -5.551115e-18 -0.025 0.0
  endloop
endfacet
facet normal -6.7705405e-06 7.275958e-12 -1.8141582e-06
  outer loop
    vertex -0.0103527615 -0.025 0.038637035
    vertex -0.0055519645 -0.011199361 0.020720214
    vertex -0.005439638 -0.011254348 0.020301005
  endloop
endfacet
facet normal -5.363171e-06 7.9580786e-13 -1.4370582e-06
  outer loop
    vertex -0.0035761646 -0.011977523 0.013346428
    vertex -0.0034561516 -0.012012702 0.012898534
    vertex -5.551115e-18 -0.025 0.0
  endloop
endfacet
facet normal -6.7777582e-06 -7.275958e-12 -1.8161081e-06
  outer loop
    vertex -0.0103527615 -0.025 0.038637035
    vertex -0.005439638 -0.011254348 0.020301005
    vertex -0.005326767 -0.011308207 0.019879766
  endloop
endfacet
facet normal -5.3297817e-06 -2.3874236e-12 -1.4281085e-06
  outer loop
    vertex -0.0036958195 -0.011941144 0.013792987
    vertex -0.0035761646 -0.011977523 0.013346428
    vertex -5.551115e-18 -0.025 0.0
  endloop
endfacet
facet normal -6.783812e-06 7.275958e-12 -1.8177161e-06
  outer loop
    vertex -0.0103527615 -0.025 0.038637035
    vertex -0.005326767 -0.011308207 0.019879766
    vertex -0.005213363 -0.011360935 0.019456536
  endloop
endfacet
facet normal -5.295252e-06 2.3874236e-12 -1.4188606e-06
  outer loop
    vertex -0.0038151047 -0.01190357 0.014238165
    vertex -0.0036958195 -0.011941144 0.013792987
    vertex -5.551115e-18 -0.025 0.0
  endloop
endfacet
facet normal -6.7885558e-06 7.275958e-12 -1.8189894e-06
  outer loop
    vertex -0.0103527615 -0.025 0.038637035
    vertex -0.005213363 -0.011360935 0.019456536
    vertex -0.005099437 -0.011412526 0.019031357
  endloop
endfacet
facet normal -5.2596183e-06 -1.2505552e-12 -1.4093093e-06
  outer loop
    vertex -0.0039340076 -0.011864805 0.014681917
    vertex -0.0038151047 -0.01190357 0.014238165
    vertex -5.551115e-18 -0.025 0.0
  endloop
endfacet
facet normal -6.792048e-06 -7.275958e-12 -1.8199207e-06
  outer loop
    vertex -0.0103527615 -0.025 0.038637035
    vertex -0.005099437 -0.011412526 0.019031357
    vertex -0.0049850005 -0.011462973 0.018604275
  endloop
endfacet
facet normal -6.794289e-06 0.0 -1.8205246e-06
  outer loop
    vertex -0.0103527615 -0.025 0.038637035
    vertex -0.0049850005 -0.011462973 0.018604275
    vertex -0.004870065 -0.011512275 0.01817533
  endloop
endfacet
facet normal -5.2228793e-06 -4.5474735e-13 -1.3994658e-06
  outer loop
    vertex -0.004052517 -0.011824851 0.0151242
    vertex -0.0039340076 -0.011864805 0.014681917
    vertex -5.551115e-18 -0.025 0.0
  endloop
endfacet
facet normal -6.7952496e-06 0.0 -1.8207793e-06
  outer loop
    vertex -0.0103527615 -0.025 0.038637035
    vertex -0.004870065 -0.011512275 0.01817533
    vertex -0.004754642 -0.011560423 0.017744565
  endloop
endfacet
facet normal -5.185039e-06 2.16005e-12 -1.3893289e-06
  outer loop
    vertex -0.004170621 -0.011783714 0.015564969
    vertex -0.004052517 -0.011824851 0.0151242
    vertex -5.551115e-18 -0.025 0.0
  endloop
endfacet
facet normal -6.7949004e-06 -7.275958e-12 -1.820692e-06
  outer loop
    vertex -0.0103527615 -0.025 0.038637035
    vertex -0.004754642 -0.011560423 0.017744565
    vertex -0.004638743 -0.011607414 0.017312026
  endloop
endfacet
facet normal -5.1460925e-06 -5.002221e-12 -1.3788872e-06
  outer loop
    vertex -0.004288307 -0.011741398 0.01600418
    vertex -0.004170621 -0.011783714 0.015564969
    vertex -5.551115e-18 -0.025 0.0
  endloop
endfacet
facet normal -6.793358e-06 1.4551915e-11 -1.8202772e-06
  outer loop
    vertex -0.0103527615 -0.025 0.038637035
    vertex -0.004638743 -0.011607414 0.017312026
    vertex -0.00452238 -0.011653244 0.016877752
  endloop
endfacet
facet normal -5.106019e-06 8.6402e-12 -1.3681607e-06
  outer loop
    vertex -0.004405564 -0.011697906 0.016441789
    vertex -0.004288307 -0.011741398 0.01600418
    vertex -5.551115e-18 -0.025 0.0
  endloop
endfacet
facet normal -6.790535e-06 0.0 -1.819506e-06
  outer loop
    vertex -0.0103527615 -0.025 0.038637035
    vertex -0.00452238 -0.011653244 0.016877752
    vertex -0.004405564 -0.011697906 0.016441789
  endloop
endfacet
facet normal -0.0005139535 -2.1827873e-11 -0.0001377134
  outer loop
    vertex -0.004405564 -0.011697906 0.016441789
    vertex -5.551115e-18 -0.025 0.0
    vertex -0.0103527615 -0.025 0.038637035
  endloop
endfacet
endsolid rotorBlades
