solid rotorBlades
facet normal -0.000000 -0.000003 -0.000001
  outer loop
    vertex 0.025000 -0.010353 0.038637
    vertex 0.007005 -0.010353 0.038637
    vertex 0.007077 -0.010304 0.038454
  endloop
endfacet
facet normal 0.000000 -0.000005 -0.000001
  outer loop
    vertex 0.025000 -0.010353 0.038637
    vertex 0.007077 -0.010304 0.038454
    vertex 0.007180 -0.010232 0.038188
  endloop
endfacet
facet normal 0.000000 -0.000005 -0.000001
  outer loop
    vertex 0.025000 -0.010353 0.038637
    vertex 0.007180 -0.010232 0.038188
    vertex 0.007281 -0.010160 0.037918
  endloop
endfacet
facet normal 0.000000 -0.000005 -0.000001
  outer loop
    vertex 0.025000 -0.010353 0.038637
    vertex 0.007281 -0.010160 0.037918
    vertex 0.007383 -0.010087 0.037645
  endloop
endfacet
facet normal 0.000000 -0.000005 -0.000001
  outer loop
    vertex 0.025000 -0.010353 0.038637
    vertex 0.007383 -0.010087 0.037645
    vertex 0.007483 -0.010013 0.037368
  endloop
endfacet
facet normal -0.000000 -0.000005 -0.000001
  outer loop
    vertex 0.025000 -0.010353 0.038637
    vertex 0.007483 -0.010013 0.037368
    vertex 0.007583 -0.009937 0.037087
  endloop
endfacet
facet normal 0.000000 -0.000005 -0.000001
  outer loop
    vertex 0.025000 -0.010353 0.038637
    vertex 0.007583 -0.009937 0.037087
    vertex 0.007682 -0.009861 0.036803
  endloop
endfacet
facet normal -0.000000 -0.000005 -0.000001
  outer loop
    vertex 0.025000 -0.010353 0.038637
    vertex 0.007682 -0.009861 0.036803
    vertex 0.007780 -0.009784 0.036514
  endloop
endfacet
facet normal 0.000000 -0.000005 -0.000001
  outer loop
    vertex 0.025000 -0.010353 0.038637
    vertex 0.007780 -0.009784 0.036514
    vertex 0.007877 -0.009706 0.036223
  endloop
endfacet
facet normal -0.000000 -0.000005 -0.000001
  outer loop
    vertex 0.025000 -0.010353 0.038637
    vertex 0.007877 -0.009706 0.036223
    vertex 0.007974 -0.009627 0.035927
  endloop
endfacet
facet normal 0.000000 -0.000005 -0.000001
  outer loop
    vertex 0.025000 -0.010353 0.038637
    vertex 0.007974 -0.009627 0.035927
    vertex 0.008069 -0.009547 0.035628
  endloop
endfacet
facet normal 0.000000 -0.000005 -0.000001
  outer loop
    vertex 0.025000 -0.010353 0.038637
    vertex 0.008069 -0.009547 0.035628
    vertex 0.008164 -0.009465 0.035325
  endloop
endfacet
facet normal -0.000000 -0.000005 -0.000001
  outer loop
    vertex 0.025000 -0.010353 0.038637
    vertex 0.008164 -0.009465 0.035325
    vertex 0.008258 -0.009383 0.035019
  endloop
endfacet
facet normal -0.000000 -0.000006 -0.000001
  outer loop
    vertex 0.025000 -0.010353 0.038637
    vertex 0.008258 -0.009383 0.035019
    vertex 0.008352 -0.009300 0.034710
  endloop
endfacet
facet normal 0.000000 -0.000006 -0.000001
  outer loop
    vertex 0.025000 -0.010353 0.038637
    vertex 0.008352 -0.009300 0.034710
    vertex 0.008444 -0.009217 0.034397
  endloop
endfacet
facet normal 0.000000 -0.000006 -0.000002
  outer loop
    vertex 0.025000 -0.010353 0.038637
    vertex 0.008444 -0.009217 0.034397
    vertex 0.008536 -0.009132 0.034080
  endloop
endfacet
facet normal 0.000000 -0.000006 -0.000002
  outer loop
    vertex 0.025000 -0.010353 0.038637
    vertex 0.008536 -0.009132 0.034080
    vertex 0.008627 -0.009046 0.033760
  endloop
endfacet
facet normal 0.000000 -0.000006 -0.000002
  outer loop
    vertex 0.012499 -0.000125 0.000466
    vertex 0.012500 -0.000000 0.000000
    vertex 0.025000 0.000000 0.000000
  endloop
endfacet
facet normal 0.000000 -0.000006 -0.000002
  outer loop
    vertex 0.025000 -0.010353 0.038637
    vertex 0.008627 -0.009046 0.033760
    vertex 0.008717 -0.008959 0.033437
  endloop
endfacet
facet normal 0.000000 -0.000006 -0.000002
  outer loop
    vertex 0.012498 -0.000250 0.000932
    vertex 0.012499 -0.000125 0.000466
    vertex 0.025000 0.000000 0.000000
  endloop
endfacet
facet normal 0.000000 -0.000006 -0.000002
  outer loop
    vertex 0.025000 -0.010353 0.038637
    vertex 0.008717 -0.008959 0.033437
    vertex 0.008806 -0.008872 0.033110
  endloop
endfacet
facet normal -0.000000 -0.000006 -0.000002
  outer loop
    vertex 0.012494 -0.000375 0.001398
    vertex 0.012498 -0.000250 0.000932
    vertex 0.025000 0.000000 0.000000
  endloop
endfacet
facet normal -0.000000 -0.000006 -0.000002
  outer loop
    vertex 0.025000 -0.010353 0.038637
    vertex 0.008806 -0.008872 0.033110
    vertex 0.008894 -0.008783 0.032780
  endloop
endfacet
facet normal 0.000000 -0.000006 -0.000002
  outer loop
    vertex 0.025000 -0.010353 0.038637
    vertex 0.008894 -0.008783 0.032780
    vertex 0.008981 -0.008694 0.032447
  endloop
endfacet
facet normal 0.000000 -0.000006 -0.000002
  outer loop
    vertex 0.012490 -0.000499 0.001864
    vertex 0.012494 -0.000375 0.001398
    vertex 0.025000 0.000000 0.000000
  endloop
endfacet
facet normal 0.000000 -0.000006 -0.000002
  outer loop
    vertex 0.025000 -0.010353 0.038637
    vertex 0.008981 -0.008694 0.032447
    vertex 0.009068 -0.008604 0.032111
  endloop
endfacet
facet normal 0.000000 -0.000006 -0.000002
  outer loop
    vertex 0.012484 -0.000624 0.002329
    vertex 0.012490 -0.000499 0.001864
    vertex 0.025000 0.000000 0.000000
  endloop
endfacet
facet normal -0.000000 -0.000006 -0.000002
  outer loop
    vertex 0.025000 -0.010353 0.038637
    vertex 0.009068 -0.008604 0.032111
    vertex 0.009153 -0.008513 0.031771
  endloop
endfacet
facet normal -0.000000 -0.000006 -0.000002
  outer loop
    vertex 0.012478 -0.000749 0.002794
    vertex 0.012484 -0.000624 0.002329
    vertex 0.025000 0.000000 0.000000
  endloop
endfacet
facet normal 0.000000 -0.000006 -0.000002
  outer loop
    vertex 0.025000 -0.010353 0.038637
    vertex 0.009153 -0.008513 0.031771
    vertex 0.009238 -0.008421 0.031428
  endloop
endfacet
facet normal -0.000000 -0.000006 -0.000002
  outer loop
    vertex 0.025000 -0.010353 0.038637
    vertex 0.009238 -0.008421 0.031428
    vertex 0.009321 -0.008329 0.031082
  endloop
endfacet
facet normal -0.000000 -0.000006 -0.000002
  outer loop
    vertex 0.012469 -0.000873 0.003259
    vertex 0.012478 -0.000749 0.002794
    vertex 0.025000 0.000000 0.000000
  endloop
endfacet
facet normal 0.000000 -0.000006 -0.000002
  outer loop
    vertex 0.025000 -0.010353 0.038637
    vertex 0.009321 -0.008329 0.031082
    vertex 0.009404 -0.008235 0.030733
  endloop
endfacet
facet normal 0.000000 -0.000006 -0.000002
  outer loop
    vertex 0.012460 -0.000998 0.003724
    vertex 0.012469 -0.000873 0.003259
    vertex 0.025000 0.000000 0.000000
  endloop
endfacet
facet normal -0.000000 -0.000006 -0.000002
  outer loop
    vertex 0.025000 -0.010353 0.038637
    vertex 0.009404 -0.008235 0.030733
    vertex 0.009486 -0.008141 0.030381
  endloop
endfacet
facet normal 0.000000 -0.000006 -0.000002
  outer loop
    vertex 0.012450 -0.001122 0.004188
    vertex 0.012460 -0.000998 0.003724
    vertex 0.025000 0.000000 0.000000
  endloop
endfacet
facet normal 0.000000 -0.000006 -0.000002
  outer loop
    vertex 0.025000 -0.010353 0.038637
    vertex 0.009486 -0.008141 0.030381
    vertex 0.009567 -0.008045 0.030026
  endloop
endfacet
facet normal 0.000000 -0.000006 -0.000002
  outer loop
    vertex 0.025000 -0.010353 0.038637
    vertex 0.009567 -0.008045 0.030026
    vertex 0.009647 -0.007950 0.029668
  endloop
endfacet
facet normal -0.000000 -0.000006 -0.000002
  outer loop
    vertex 0.012438 -0.001247 0.004652
    vertex 0.012450 -0.001122 0.004188
    vertex 0.025000 0.000000 0.000000
  endloop
endfacet
facet normal 0.000000 -0.000006 -0.000002
  outer loop
    vertex 0.025000 -0.010353 0.038637
    vertex 0.009647 -0.007950 0.029668
    vertex 0.009725 -0.007853 0.029307
  endloop
endfacet
facet normal 0.000000 -0.000006 -0.000002
  outer loop
    vertex 0.012425 -0.001371 0.005116
    vertex 0.012438 -0.001247 0.004652
    vertex 0.025000 0.000000 0.000000
  endloop
endfacet
facet normal -0.000000 -0.000006 -0.000002
  outer loop
    vertex 0.025000 -0.010353 0.038637
    vertex 0.009725 -0.007853 0.029307
    vertex 0.009803 -0.007755 0.028943
  endloop
endfacet
facet normal 0.000000 -0.000006 -0.000002
  outer loop
    vertex 0.012410 -0.001495 0.005579
    vertex 0.012425 -0.001371 0.005116
    vertex 0.025000 0.000000 0.000000
  endloop
endfacet
facet normal 0.000000 -0.000006 -0.000002
  outer loop
    vertex 0.025000 -0.010353 0.038637
    vertex 0.009803 -0.007755 0.028943
    vertex 0.009880 -0.007657 0.028576
  endloop
endfacet
facet normal -0.000000 -0.000006 -0.000002
  outer loop
    vertex 0.025000 -0.010353 0.038637
    vertex 0.009880 -0.007657 0.028576
    vertex 0.009956 -0.007558 0.028206
  endloop
endfacet
facet normal -0.000000 -0.000006 -0.000002
  outer loop
    vertex 0.012395 -0.001619 0.006041
    vertex 0.012410 -0.001495 0.005579
    vertex 0.025000 0.000000 0.000000
  endloop
endfacet
facet normal 0.000000 -0.000006 -0.000002
  outer loop
    vertex 0.025000 -0.010353 0.038637
    vertex 0.009956 -0.007558 0.028206
    vertex 0.010031 -0.007458 0.027834
  endloop
endfacet
facet normal -0.000000 -0.000006 -0.000002
  outer loop
    vertex 0.012378 -0.001742 0.006503
    vertex 0.012395 -0.001619 0.006041
    vertex 0.025000 0.000000 0.000000
  endloop
endfacet
facet normal 0.000000 -0.000006 -0.000002
  outer loop
    vertex 0.025000 -0.010353 0.038637
    vertex 0.010031 -0.007458 0.027834
    vertex 0.010105 -0.007357 0.027458
  endloop
endfacet
facet normal 0.000000 -0.000006 -0.000002
  outer loop
    vertex 0.012360 -0.001866 0.006964
    vertex 0.012378 -0.001742 0.006503
    vertex 0.025000 0.000000 0.000000
  endloop
endfacet
facet normal 0.000000 -0.000006 -0.000002
  outer loop
    vertex 0.025000 -0.010353 0.038637
    vertex 0.010105 -0.007357 0.027458
    vertex 0.010178 -0.007256 0.027080
  endloop
endfacet
facet normal 0.000000 -0.000006 -0.000002
  outer loop
    vertex 0.025000 -0.010353 0.038637
    vertex 0.010178 -0.007256 0.027080
    vertex 0.010250 -0.007154 0.026699
  endloop
endfacet
facet normal 0.000000 -0.000006 -0.000002
  outer loop
    vertex 0.012341 -0.001989 0.007424
    vertex 0.012360 -0.001866 0.006964
    vertex 0.025000 0.000000 0.000000
  endloop
endfacet
facet normal -0.000000 -0.000007 -0.000002
  outer loop
    vertex 0.025000 -0.010353 0.038637
    vertex 0.010250 -0.007154 0.026699
    vertex 0.010321 -0.007051 0.026316
  endloop
endfacet
facet normal 0.000000 -0.000006 -0.000002
  outer loop
    vertex 0.012320 -0.002113 0.007884
    vertex 0.012341 -0.001989 0.007424
    vertex 0.025000 0.000000 0.000000
  endloop
endfacet
facet normal 0.000000 -0.000007 -0.000002
  outer loop
    vertex 0.025000 -0.010353 0.038637
    vertex 0.010321 -0.007051 0.026316
    vertex 0.010391 -0.006948 0.025930
  endloop
endfacet
facet normal -0.000000 -0.000006 -0.000002
  outer loop
    vertex 0.012298 -0.002235 0.008343
    vertex 0.012320 -0.002113 0.007884
    vertex 0.025000 0.000000 0.000000
  endloop
endfacet
facet normal 0.000000 -0.000007 -0.000002
  outer loop
    vertex 0.025000 -0.010353 0.038637
    vertex 0.010391 -0.006948 0.025930
    vertex 0.010460 -0.006844 0.025541
  endloop
endfacet
facet normal 0.000000 -0.000007 -0.000002
  outer loop
    vertex 0.025000 -0.010353 0.038637
    vertex 0.010460 -0.006844 0.025541
    vertex 0.010528 -0.006739 0.025150
  endloop
endfacet
facet normal -0.000000 -0.000006 -0.000002
  outer loop
    vertex 0.012276 -0.002358 0.008801
    vertex 0.012298 -0.002235 0.008343
    vertex 0.025000 0.000000 0.000000
  endloop
endfacet
facet normal -0.000000 -0.000007 -0.000002
  outer loop
    vertex 0.025000 -0.010353 0.038637
    vertex 0.010528 -0.006739 0.025150
    vertex 0.010595 -0.006633 0.024756
  endloop
endfacet
facet normal 0.000000 -0.000006 -0.000002
  outer loop
    vertex 0.012251 -0.002481 0.009258
    vertex 0.012276 -0.002358 0.008801
    vertex 0.025000 0.000000 0.000000
  endloop
endfacet
facet normal 0.000000 -0.000007 -0.000002
  outer loop
    vertex 0.025000 -0.010353 0.038637
    vertex 0.010595 -0.006633 0.024756
    vertex 0.010660 -0.006527 0.024360
  endloop
endfacet
facet normal -0.000000 -0.000006 -0.000001
  outer loop
    vertex 0.012226 -0.002603 0.009714
    vertex 0.012251 -0.002481 0.009258
    vertex 0.025000 0.000000 0.000000
  endloop
endfacet
facet normal -0.000000 -0.000007 -0.000002
  outer loop
    vertex 0.025000 -0.010353 0.038637
    vertex 0.010660 -0.006527 0.024360
    vertex 0.010725 -0.006420 0.023961
  endloop
endfacet
facet normal 0.000000 -0.000006 -0.000001
  outer loop
    vertex 0.012199 -0.002725 0.010170
    vertex 0.012226 -0.002603 0.009714
    vertex 0.025000 0.000000 0.000000
  endloop
endfacet
facet normal 0.000000 -0.000007 -0.000002
  outer loop
    vertex 0.025000 -0.010353 0.038637
    vertex 0.010725 -0.006420 0.023961
    vertex 0.010789 -0.006313 0.023560
  endloop
endfacet
facet normal 0.000000 -0.000007 -0.000002
  outer loop
    vertex 0.025000 -0.010353 0.038637
    vertex 0.010789 -0.006313 0.023560
    vertex 0.010851 -0.006205 0.023157
  endloop
endfacet
facet normal -0.000000 -0.000006 -0.000001
  outer loop
    vertex 0.012172 -0.002847 0.010624
    vertex 0.012199 -0.002725 0.010170
    vertex 0.025000 0.000000 0.000000
  endloop
endfacet
facet normal 0.000000 -0.000007 -0.000002
  outer loop
    vertex 0.025000 -0.010353 0.038637
    vertex 0.010851 -0.006205 0.023157
    vertex 0.010913 -0.006096 0.022751
  endloop
endfacet
facet normal -0.000000 -0.000006 -0.000001
  outer loop
    vertex 0.012142 -0.002968 0.011077
    vertex 0.012172 -0.002847 0.010624
    vertex 0.025000 0.000000 0.000000
  endloop
endfacet
facet normal -0.000000 -0.000007 -0.000002
  outer loop
    vertex 0.025000 -0.010353 0.038637
    vertex 0.010913 -0.006096 0.022751
    vertex 0.010973 -0.005987 0.022343
  endloop
endfacet
facet normal 0.000000 -0.000005 -0.000001
  outer loop
    vertex 0.012112 -0.003089 0.011529
    vertex 0.012142 -0.002968 0.011077
    vertex 0.025000 0.000000 0.000000
  endloop
endfacet
facet normal 0.000000 -0.000007 -0.000002
  outer loop
    vertex 0.025000 -0.010353 0.038637
    vertex 0.010973 -0.005987 0.022343
    vertex 0.011032 -0.005877 0.021933
  endloop
endfacet
facet normal -0.000000 -0.000005 -0.000001
  outer loop
    vertex 0.012081 -0.003210 0.011980
    vertex 0.012112 -0.003089 0.011529
    vertex 0.025000 0.000000 0.000000
  endloop
endfacet
facet normal 0.000000 -0.000007 -0.000002
  outer loop
    vertex 0.025000 -0.010353 0.038637
    vertex 0.011032 -0.005877 0.021933
    vertex 0.011090 -0.005766 0.021521
  endloop
endfacet
facet normal 0.000000 -0.000005 -0.000001
  outer loop
    vertex 0.012048 -0.003331 0.012430
    vertex 0.012081 -0.003210 0.011980
    vertex 0.025000 0.000000 0.000000
  endloop
endfacet
facet normal -0.000000 -0.000007 -0.000002
  outer loop
    vertex 0.025000 -0.010353 0.038637
    vertex 0.011090 -0.005766 0.021521
    vertex 0.011147 -0.005655 0.021106
  endloop
endfacet
facet normal 0.000000 -0.000007 -0.000002
  outer loop
    vertex 0.025000 -0.010353 0.038637
    vertex 0.011147 -0.005655 0.021106
    vertex 0.011203 -0.005544 0.020690
  endloop
endfacet
facet normal 0.000000 -0.000005 -0.000001
  outer loop
    vertex 0.012014 -0.003451 0.012879
    vertex 0.012048 -0.003331 0.012430
    vertex 0.025000 0.000000 0.000000
  endloop
endfacet
facet normal 0.000000 -0.000007 -0.000002
  outer loop
    vertex 0.025000 -0.010353 0.038637
    vertex 0.011203 -0.005544 0.020690
    vertex 0.011258 -0.005432 0.020271
  endloop
endfacet
facet normal -0.000000 -0.000005 -0.000001
  outer loop
    vertex 0.011979 -0.003571 0.013326
    vertex 0.012014 -0.003451 0.012879
    vertex 0.025000 0.000000 0.000000
  endloop
endfacet
facet normal -0.000000 -0.000007 -0.000002
  outer loop
    vertex 0.025000 -0.010353 0.038637
    vertex 0.011258 -0.005432 0.020271
    vertex 0.011312 -0.005319 0.019850
  endloop
endfacet
facet normal 0.000000 -0.000005 -0.000001
  outer loop
    vertex 0.011943 -0.003690 0.013772
    vertex 0.011979 -0.003571 0.013326
    vertex 0.025000 0.000000 0.000000
  endloop
endfacet
facet normal 0.000000 -0.000007 -0.000002
  outer loop
    vertex 0.025000 -0.010353 0.038637
    vertex 0.011312 -0.005319 0.019850
    vertex 0.011364 -0.005206 0.019428
  endloop
endfacet
facet normal -0.000000 -0.000005 -0.000001
  outer loop
    vertex 0.011905 -0.003809 0.014216
    vertex 0.011943 -0.003690 0.013772
    vertex 0.025000 0.000000 0.000000
  endloop
endfacet
facet normal 0.000000 -0.000007 -0.000002
  outer loop
    vertex 0.025000 -0.010353 0.038637
    vertex 0.011364 -0.005206 0.019428
    vertex 0.011416 -0.005092 0.019003
  endloop
endfacet
facet normal 0.000000 -0.000005 -0.000001
  outer loop
    vertex 0.011867 -0.003928 0.014659
    vertex 0.011905 -0.003809 0.014216
    vertex 0.025000 0.000000 0.000000
  endloop
endfacet
facet normal 0.000000 -0.000007 -0.000002
  outer loop
    vertex 0.025000 -0.010353 0.038637
    vertex 0.011416 -0.005092 0.019003
    vertex 0.011466 -0.004978 0.018576
  endloop
endfacet
facet normal -0.000000 -0.000005 -0.000001
  outer loop
    vertex 0.011827 -0.004046 0.015101
    vertex 0.011867 -0.003928 0.014659
    vertex 0.025000 0.000000 0.000000
  endloop
endfacet
facet normal -0.000000 -0.000007 -0.000002
  outer loop
    vertex 0.025000 -0.010353 0.038637
    vertex 0.011466 -0.004978 0.018576
    vertex 0.011515 -0.004863 0.018148
  endloop
endfacet
facet normal -0.000000 -0.000007 -0.000002
  outer loop
    vertex 0.025000 -0.010353 0.038637
    vertex 0.011515 -0.004863 0.018148
    vertex 0.011563 -0.004747 0.017718
  endloop
endfacet
facet normal 0.000000 -0.000005 -0.000001
  outer loop
    vertex 0.011786 -0.004164 0.015541
    vertex 0.011827 -0.004046 0.015101
    vertex 0.025000 0.000000 0.000000
  endloop
endfacet
facet normal 0.000000 -0.000007 -0.000002
  outer loop
    vertex 0.025000 -0.010353 0.038637
    vertex 0.011563 -0.004747 0.017718
    vertex 0.011610 -0.004632 0.017286
  endloop
endfacet
facet normal 0.000000 -0.000005 -0.000001
  outer loop
    vertex 0.011744 -0.004282 0.015980
    vertex 0.011786 -0.004164 0.015541
    vertex 0.025000 0.000000 0.000000
  endloop
endfacet
facet normal 0.000000 -0.000007 -0.000002
  outer loop
    vertex 0.025000 -0.010353 0.038637
    vertex 0.011610 -0.004632 0.017286
    vertex 0.011656 -0.004516 0.016852
  endloop
endfacet
facet normal -0.000000 -0.000005 -0.000001
  outer loop
    vertex 0.011700 -0.004399 0.016417
    vertex 0.011744 -0.004282 0.015980
    vertex 0.025000 0.000000 0.000000
  endloop
endfacet
facet normal -0.000000 -0.000007 -0.000002
  outer loop
    vertex 0.025000 -0.010353 0.038637
    vertex 0.011656 -0.004516 0.016852
    vertex 0.011700 -0.004399 0.016417
  endloop
endfacet
facet normal 0.000000 -0.000514 -0.000138
  outer loop
    vertex 0.011700 -0.004399 0.016417
    vertex 0.025000 0.000000 0.000000
    vertex 0.025000 -0.010353 0.038637
  endloop
endfacet
facet normal 0.000001 0.000000 -0.000000
  outer loop
    vertex 0.000031 0.012500 0.000117
    vertex 0.000000 0.012500 0.000000
    vertex 0.000000 0.025000 0.000000
  endloop
endfacet
facet normal 0.000002 0.000000 -0.000001
  outer loop
    vertex 0.010353 0.025000 0.038637
    vertex 0.010353 0.007005 0.038637
    vertex 0.010321 0.007051 0.038520
  endloop
endfacet
facet normal 0.000005 -0.000000 -0.000001
  outer loop
    vertex 0.010353 0.025000 0.038637
    vertex 0.010321 0.007051 0.038520
    vertex 0.010250 0.007154 0.038255
  endloop
endfacet
facet normal 0.000005 0.000000 -0.000001
  outer loop
    vertex 0.010353 0.025000 0.038637
    vertex 0.010250 0.007154 0.038255
    vertex 0.010178 0.007256 0.037986
  endloop
endfacet
facet normal 0.000005 0.000000 -0.000001
  outer loop
    vertex 0.010353 0.025000 0.038637
    vertex 0.010178 0.007256 0.037986
    vertex 0.010105 0.007357 0.037714
  endloop
endfacet
facet normal 0.000005 -0.000000 -0.000001
  outer loop
    vertex 0.010353 0.025000 0.038637
    vertex 0.010105 0.007357 0.037714
    vertex 0.010031 0.007458 0.037438
  endloop
endfacet
facet normal 0.000005 0.000000 -0.000001
  outer loop
    vertex 0.010353 0.025000 0.038637
    vertex 0.010031 0.007458 0.037438
    vertex 0.009956 0.007558 0.037158
  endloop
endfacet
facet normal 0.000005 -0.000000 -0.000001
  outer loop
    vertex 0.010353 0.025000 0.038637
    vertex 0.009956 0.007558 0.037158
    vertex 0.009880 0.007657 0.036874
  endloop
endfacet
facet normal 0.000005 0.000000 -0.000001
  outer loop
    vertex 0.010353 0.025000 0.038637
    vertex 0.009880 0.007657 0.036874
    vertex 0.009803 0.007755 0.036587
  endloop
endfacet
facet normal 0.000005 -0.000000 -0.000001
  outer loop
    vertex 0.010353 0.025000 0.038637
    vertex 0.009803 0.007755 0.036587
    vertex 0.009725 0.007853 0.036296
  endloop
endfacet
facet normal 0.000005 0.000000 -0.000001
  outer loop
    vertex 0.010353 0.025000 0.038637
    vertex 0.009725 0.007853 0.036296
    vertex 0.009647 0.007950 0.036001
  endloop
endfacet
facet normal 0.000005 0.000000 -0.000001
  outer loop
    vertex 0.010353 0.025000 0.038637
    vertex 0.009647 0.007950 0.036001
    vertex 0.009567 0.008045 0.035703
  endloop
endfacet
facet normal 0.000005 0.000000 -0.000001
  outer loop
    vertex 0.010353 0.025000 0.038637
    vertex 0.009567 0.008045 0.035703
    vertex 0.009486 0.008141 0.035401
  endloop
endfacet
facet normal 0.000005 0.000000 -0.000001
  outer loop
    vertex 0.010353 0.025000 0.038637
    vertex 0.009486 0.008141 0.035401
    vertex 0.009404 0.008235 0.035096
  endloop
endfacet
facet normal 0.000006 0.000000 -0.000001
  outer loop
    vertex 0.010353 0.025000 0.038637
    vertex 0.009404 0.008235 0.035096
    vertex 0.009321 0.008329 0.034787
  endloop
endfacet
facet normal 0.000006 -0.000000 -0.000001
  outer loop
    vertex 0.010353 0.025000 0.038637
    vertex 0.009321 0.008329 0.034787
    vertex 0.009238 0.008421 0.034475
  endloop
endfacet
facet normal 0.000006 0.000000 -0.000002
  outer loop
    vertex 0.010353 0.025000 0.038637
    vertex 0.009238 0.008421 0.034475
    vertex 0.009153 0.008513 0.034160
  endloop
endfacet
facet normal 0.000006 -0.000000 -0.000002
  outer loop
    vertex 0.010353 0.025000 0.038637
    vertex 0.009153 0.008513 0.034160
    vertex 0.009068 0.008604 0.033841
  endloop
endfacet
facet normal 0.000006 0.000000 -0.000002
  outer loop
    vertex 0.000156 0.012499 0.000582
    vertex 0.000031 0.012500 0.000117
    vertex 0.000000 0.025000 0.000000
  endloop
endfacet
facet normal 0.000006 0.000000 -0.000002
  outer loop
    vertex 0.010353 0.025000 0.038637
    vertex 0.009068 0.008604 0.033841
    vertex 0.008981 0.008694 0.033518
  endloop
endfacet
facet normal 0.000006 0.000000 -0.000002
  outer loop
    vertex 0.010353 0.025000 0.038637
    vertex 0.008981 0.008694 0.033518
    vertex 0.008894 0.008783 0.033192
  endloop
endfacet
facet normal 0.000006 -0.000000 -0.000002
  outer loop
    vertex 0.000281 0.012497 0.001048
    vertex 0.000156 0.012499 0.000582
    vertex 0.000000 0.025000 0.000000
  endloop
endfacet
facet normal 0.000006 -0.000000 -0.000002
  outer loop
    vertex 0.010353 0.025000 0.038637
    vertex 0.008894 0.008783 0.033192
    vertex 0.008806 0.008872 0.032863
  endloop
endfacet
facet normal 0.000006 0.000000 -0.000002
  outer loop
    vertex 0.000406 0.012493 0.001514
    vertex 0.000281 0.012497 0.001048
    vertex 0.000000 0.025000 0.000000
  endloop
endfacet
facet normal 0.000006 0.000000 -0.000002
  outer loop
    vertex 0.010353 0.025000 0.038637
    vertex 0.008806 0.008872 0.032863
    vertex 0.008717 0.008959 0.032531
  endloop
endfacet
facet normal 0.000006 0.000000 -0.000002
  outer loop
    vertex 0.000531 0.012489 0.001980
    vertex 0.000406 0.012493 0.001514
    vertex 0.000000 0.025000 0.000000
  endloop
endfacet
facet normal 0.000006 0.000000 -0.000002
  outer loop
    vertex 0.010353 0.025000 0.038637
    vertex 0.008717 0.008959 0.032531
    vertex 0.008627 0.009046 0.032195
  endloop
endfacet
facet normal 0.000006 0.000000 -0.000002
  outer loop
    vertex 0.000655 0.012483 0.002445
    vertex 0.000531 0.012489 0.001980
    vertex 0.000000 0.025000 0.000000
  endloop
endfacet
facet normal 0.000006 -0.000000 -0.000002
  outer loop
    vertex 0.010353 0.025000 0.038637
    vertex 0.008627 0.009046 0.032195
    vertex 0.008536 0.009132 0.031856
  endloop
endfacet
facet normal 0.000006 0.000000 -0.000002
  outer loop
    vertex 0.010353 0.025000 0.038637
    vertex 0.008536 0.009132 0.031856
    vertex 0.008444 0.009217 0.031514
  endloop
endfacet
facet normal 0.000006 -0.000000 -0.000002
  outer loop
    vertex 0.000780 0.012476 0.002911
    vertex 0.000655 0.012483 0.002445
    vertex 0.000000 0.025000 0.000000
  endloop
endfacet
facet normal 0.000006 0.000000 -0.000002
  outer loop
    vertex 0.010353 0.025000 0.038637
    vertex 0.008444 0.009217 0.031514
    vertex 0.008352 0.009300 0.031169
  endloop
endfacet
facet normal 0.000006 0.000000 -0.000002
  outer loop
    vertex 0.000904 0.012467 0.003376
    vertex 0.000780 0.012476 0.002911
    vertex 0.000000 0.025000 0.000000
  endloop
endfacet
facet normal 0.000006 -0.000000 -0.000002
  outer loop
    vertex 0.010353 0.025000 0.038637
    vertex 0.008352 0.009300 0.031169
    vertex 0.008258 0.009383 0.030821
  endloop
endfacet
facet normal 0.000006 0.000000 -0.000002
  outer loop
    vertex 0.010353 0.025000 0.038637
    vertex 0.008258 0.009383 0.030821
    vertex 0.008164 0.009465 0.030470
  endloop
endfacet
facet normal 0.000006 0.000000 -0.000002
  outer loop
    vertex 0.001029 0.012458 0.003840
    vertex 0.000904 0.012467 0.003376
    vertex 0.000000 0.025000 0.000000
  endloop
endfacet
facet normal 0.000006 0.000000 -0.000002
  outer loop
    vertex 0.010353 0.025000 0.038637
    vertex 0.008164 0.009465 0.030470
    vertex 0.008069 0.009547 0.030115
  endloop
endfacet
facet normal 0.000006 -0.000000 -0.000002
  outer loop
    vertex 0.001153 0.012447 0.004304
    vertex 0.001029 0.012458 0.003840
    vertex 0.000000 0.025000 0.000000
  endloop
endfacet
facet normal 0.000006 -0.000000 -0.000002
  outer loop
    vertex 0.010353 0.025000 0.038637
    vertex 0.008069 0.009547 0.030115
    vertex 0.007974 0.009627 0.029758
  endloop
endfacet
facet normal 0.000006 0.000000 -0.000002
  outer loop
    vertex 0.001278 0.012435 0.004768
    vertex 0.001153 0.012447 0.004304
    vertex 0.000000 0.025000 0.000000
  endloop
endfacet
facet normal 0.000006 0.000000 -0.000002
  outer loop
    vertex 0.010353 0.025000 0.038637
    vertex 0.007974 0.009627 0.029758
    vertex 0.007877 0.009706 0.029397
  endloop
endfacet
facet normal 0.000006 -0.000000 -0.000002
  outer loop
    vertex 0.010353 0.025000 0.038637
    vertex 0.007877 0.009706 0.029397
    vertex 0.007780 0.009784 0.029034
  endloop
endfacet
facet normal 0.000006 0.000000 -0.000002
  outer loop
    vertex 0.001402 0.012421 0.005231
    vertex 0.001278 0.012435 0.004768
    vertex 0.000000 0.025000 0.000000
  endloop
endfacet
facet normal 0.000006 0.000000 -0.000002
  outer loop
    vertex 0.010353 0.025000 0.038637
    vertex 0.007780 0.009784 0.029034
    vertex 0.007682 0.009861 0.028668
  endloop
endfacet
facet normal 0.000006 0.000000 -0.000002
  outer loop
    vertex 0.001526 0.012407 0.005694
    vertex 0.001402 0.012421 0.005231
    vertex 0.000000 0.025000 0.000000
  endloop
endfacet
facet normal 0.000006 0.000000 -0.000002
  outer loop
    vertex 0.010353 0.025000 0.038637
    vertex 0.007682 0.009861 0.028668
    vertex 0.007583 0.009937 0.028299
  endloop
endfacet
facet normal 0.000006 -0.000000 -0.000002
  outer loop
    vertex 0.001650 0.012391 0.006157
    vertex 0.001526 0.012407 0.005694
    vertex 0.000000 0.025000 0.000000
  endloop
endfacet
facet normal 0.000006 0.000000 -0.000002
  outer loop
    vertex 0.010353 0.025000 0.038637
    vertex 0.007583 0.009937 0.028299
    vertex 0.007483 0.010013 0.027927
  endloop
endfacet
facet normal 0.000006 0.000000 -0.000002
  outer loop
    vertex 0.010353 0.025000 0.038637
    vertex 0.007483 0.010013 0.027927
    vertex 0.007383 0.010087 0.027552
  endloop
endfacet
facet normal 0.000006 -0.000000 -0.000002
  outer loop
    vertex 0.001773 0.012374 0.006618
    vertex 0.001650 0.012391 0.006157
    vertex 0.000000 0.025000 0.000000
  endloop
endfacet
facet normal 0.000006 -0.000000 -0.000002
  outer loop
    vertex 0.010353 0.025000 0.038637
    vertex 0.007383 0.010087 0.027552
    vertex 0.007281 0.010160 0.027175
  endloop
endfacet
facet normal 0.000006 0.000000 -0.000002
  outer loop
    vertex 0.001897 0.012355 0.007079
    vertex 0.001773 0.012374 0.006618
    vertex 0.000000 0.025000 0.000000
  endloop
endfacet
facet normal 0.000006 0.000000 -0.000002
  outer loop
    vertex 0.010353 0.025000 0.038637
    vertex 0.007281 0.010160 0.027175
    vertex 0.007180 0.010232 0.026795
  endloop
endfacet
facet normal 0.000006 -0.000000 -0.000002
  outer loop
    vertex 0.002020 0.012336 0.007539
    vertex 0.001897 0.012355 0.007079
    vertex 0.000000 0.025000 0.000000
  endloop
endfacet
facet normal 0.000006 0.000000 -0.000002
  outer loop
    vertex 0.010353 0.025000 0.038637
    vertex 0.007180 0.010232 0.026795
    vertex 0.007077 0.010304 0.026412
  endloop
endfacet
facet normal 0.000007 0.000000 -0.000002
  outer loop
    vertex 0.010353 0.025000 0.038637
    vertex 0.007077 0.010304 0.026412
    vertex 0.006974 0.010374 0.026027
  endloop
endfacet
facet normal 0.000006 -0.000000 -0.000002
  outer loop
    vertex 0.002143 0.012315 0.007999
    vertex 0.002020 0.012336 0.007539
    vertex 0.000000 0.025000 0.000000
  endloop
endfacet
facet normal 0.000007 -0.000000 -0.000002
  outer loop
    vertex 0.010353 0.025000 0.038637
    vertex 0.006974 0.010374 0.026027
    vertex 0.006870 0.010443 0.025639
  endloop
endfacet
facet normal 0.000006 0.000000 -0.000002
  outer loop
    vertex 0.002266 0.012293 0.008457
    vertex 0.002143 0.012315 0.007999
    vertex 0.000000 0.025000 0.000000
  endloop
endfacet
facet normal 0.000007 0.000000 -0.000002
  outer loop
    vertex 0.010353 0.025000 0.038637
    vertex 0.006870 0.010443 0.025639
    vertex 0.006765 0.010511 0.025248
  endloop
endfacet
facet normal 0.000006 0.000000 -0.000002
  outer loop
    vertex 0.002389 0.012270 0.008915
    vertex 0.002266 0.012293 0.008457
    vertex 0.000000 0.025000 0.000000
  endloop
endfacet
facet normal 0.000007 -0.000000 -0.000002
  outer loop
    vertex 0.010353 0.025000 0.038637
    vertex 0.006765 0.010511 0.025248
    vertex 0.006660 0.010578 0.024855
  endloop
endfacet
facet normal 0.000006 0.000000 -0.000002
  outer loop
    vertex 0.002511 0.012245 0.009372
    vertex 0.002389 0.012270 0.008915
    vertex 0.000000 0.025000 0.000000
  endloop
endfacet
facet normal 0.000007 0.000000 -0.000002
  outer loop
    vertex 0.010353 0.025000 0.038637
    vertex 0.006660 0.010578 0.024855
    vertex 0.006554 0.010644 0.024459
  endloop
endfacet
facet normal 0.000007 0.000000 -0.000002
  outer loop
    vertex 0.010353 0.025000 0.038637
    vertex 0.006554 0.010644 0.024459
    vertex 0.006447 0.010709 0.024061
  endloop
endfacet
facet normal 0.000006 -0.000000 -0.000001
  outer loop
    vertex 0.002633 0.012219 0.009828
    vertex 0.002511 0.012245 0.009372
    vertex 0.000000 0.025000 0.000000
  endloop
endfacet
facet normal 0.000007 0.000000 -0.000002
  outer loop
    vertex 0.010353 0.025000 0.038637
    vertex 0.006447 0.010709 0.024061
    vertex 0.006340 0.010773 0.023661
  endloop
endfacet
facet normal 0.000006 -0.000000 -0.000001
  outer loop
    vertex 0.002755 0.012193 0.010283
    vertex 0.002633 0.012219 0.009828
    vertex 0.000000 0.025000 0.000000
  endloop
endfacet
facet normal 0.000007 0.000000 -0.000002
  outer loop
    vertex 0.010353 0.025000 0.038637
    vertex 0.006340 0.010773 0.023661
    vertex 0.006232 0.010836 0.023258
  endloop
endfacet
facet normal 0.000006 -0.000000 -0.000001
  outer loop
    vertex 0.002877 0.012164 0.010737
    vertex 0.002755 0.012193 0.010283
    vertex 0.000000 0.025000 0.000000
  endloop
endfacet
facet normal 0.000007 0.000000 -0.000002
  outer loop
    vertex 0.010353 0.025000 0.038637
    vertex 0.006232 0.010836 0.023258
    vertex 0.006123 0.010897 0.022853
  endloop
endfacet
facet normal 0.000005 0.000000 -0.000001
  outer loop
    vertex 0.002998 0.012135 0.011190
    vertex 0.002877 0.012164 0.010737
    vertex 0.000000 0.025000 0.000000
  endloop
endfacet
facet normal 0.000007 0.000000 -0.000002
  outer loop
    vertex 0.010353 0.025000 0.038637
    vertex 0.006123 0.010897 0.022853
    vertex 0.006014 0.010958 0.022446
  endloop
endfacet
facet normal 0.000007 -0.000000 -0.000002
  outer loop
    vertex 0.010353 0.025000 0.038637
    vertex 0.006014 0.010958 0.022446
    vertex 0.005905 0.011018 0.022036
  endloop
endfacet
facet normal 0.000005 -0.000000 -0.000001
  outer loop
    vertex 0.003120 0.012104 0.011642
    vertex 0.002998 0.012135 0.011190
    vertex 0.000000 0.025000 0.000000
  endloop
endfacet
facet normal 0.000007 -0.000000 -0.000002
  outer loop
    vertex 0.010353 0.025000 0.038637
    vertex 0.005905 0.011018 0.022036
    vertex 0.005794 0.011076 0.021624
  endloop
endfacet
facet normal 0.000005 0.000000 -0.000001
  outer loop
    vertex 0.003240 0.012073 0.012093
    vertex 0.003120 0.012104 0.011642
    vertex 0.000000 0.025000 0.000000
  endloop
endfacet
facet normal 0.000007 0.000000 -0.000002
  outer loop
    vertex 0.010353 0.025000 0.038637
    vertex 0.005794 0.011076 0.021624
    vertex 0.005683 0.011133 0.021210
  endloop
endfacet
facet normal 0.000005 -0.000000 -0.000001
  outer loop
    vertex 0.003361 0.012040 0.012542
    vertex 0.003240 0.012073 0.012093
    vertex 0.000000 0.025000 0.000000
  endloop
endfacet
facet normal 0.000007 0.000000 -0.000002
  outer loop
    vertex 0.010353 0.025000 0.038637
    vertex 0.005683 0.011133 0.021210
    vertex 0.005572 0.011190 0.020794
  endloop
endfacet
facet normal 0.000005 0.000000 -0.000001
  outer loop
    vertex 0.003481 0.012006 0.012990
    vertex 0.003361 0.012040 0.012542
    vertex 0.000000 0.025000 0.000000
  endloop
endfacet
facet normal 0.000007 -0.000000 -0.000002
  outer loop
    vertex 0.010353 0.025000 0.038637
    vertex 0.005572 0.011190 0.020794
    vertex 0.005460 0.011245 0.020376
  endloop
endfacet
facet normal 0.000005 0.000000 -0.000001
  outer loop
    vertex 0.003601 0.011970 0.013437
    vertex 0.003481 0.012006 0.012990
    vertex 0.000000 0.025000 0.000000
  endloop
endfacet
facet normal 0.000007 0.000000 -0.000002
  outer loop
    vertex 0.010353 0.025000 0.038637
    vertex 0.005460 0.011245 0.020376
    vertex 0.005347 0.011299 0.019956
  endloop
endfacet
facet normal 0.000007 0.000000 -0.000002
  outer loop
    vertex 0.010353 0.025000 0.038637
    vertex 0.005347 0.011299 0.019956
    vertex 0.005234 0.011351 0.019533
  endloop
endfacet
facet normal 0.000005 -0.000000 -0.000001
  outer loop
    vertex 0.003720 0.011934 0.013883
    vertex 0.003601 0.011970 0.013437
    vertex 0.000000 0.025000 0.000000
  endloop
endfacet
facet normal 0.000007 0.000000 -0.000002
  outer loop
    vertex 0.010353 0.025000 0.038637
    vertex 0.005234 0.011351 0.019533
    vertex 0.005120 0.011403 0.019109
  endloop
endfacet
facet normal 0.000005 -0.000000 -0.000001
  outer loop
    vertex 0.003839 0.011896 0.014327
    vertex 0.003720 0.011934 0.013883
    vertex 0.000000 0.025000 0.000000
  endloop
endfacet
facet normal 0.000007 -0.000000 -0.000002
  outer loop
    vertex 0.010353 0.025000 0.038637
    vertex 0.005120 0.011403 0.019109
    vertex 0.005006 0.011454 0.018683
  endloop
endfacet
facet normal 0.000005 0.000000 -0.000001
  outer loop
    vertex 0.003958 0.011857 0.014770
    vertex 0.003839 0.011896 0.014327
    vertex 0.000000 0.025000 0.000000
  endloop
endfacet
facet normal 0.000007 0.000000 -0.000002
  outer loop
    vertex 0.010353 0.025000 0.038637
    vertex 0.005006 0.011454 0.018683
    vertex 0.004891 0.011503 0.018255
  endloop
endfacet
facet normal 0.000005 0.000000 -0.000001
  outer loop
    vertex 0.004076 0.011817 0.015211
    vertex 0.003958 0.011857 0.014770
    vertex 0.000000 0.025000 0.000000
  endloop
endfacet
facet normal 0.000007 -0.000000 -0.000002
  outer loop
    vertex 0.010353 0.025000 0.038637
    vertex 0.004891 0.011503 0.018255
    vertex 0.004776 0.011551 0.017826
  endloop
endfacet
facet normal 0.000005 0.000000 -0.000001
  outer loop
    vertex 0.004194 0.011776 0.015651
    vertex 0.004076 0.011817 0.015211
    vertex 0.000000 0.025000 0.000000
  endloop
endfacet
facet normal 0.000007 0.000000 -0.000002
  outer loop
    vertex 0.010353 0.025000 0.038637
    vertex 0.004776 0.011551 0.017826
    vertex 0.004661 0.011599 0.017394
  endloop
endfacet
facet normal 0.000005 -0.000000 -0.000001
  outer loop
    vertex 0.004311 0.011733 0.016089
    vertex 0.004194 0.011776 0.015651
    vertex 0.000000 0.025000 0.000000
  endloop
endfacet
facet normal 0.000007 0.000000 -0.000002
  outer loop
    vertex 0.010353 0.025000 0.038637
    vertex 0.004661 0.011599 0.017394
    vertex 0.004545 0.011645 0.016961
  endloop
endfacet
facet normal 0.000005 -0.000000 -0.000001
  outer loop
    vertex 0.004428 0.011689 0.016526
    vertex 0.004311 0.011733 0.016089
    vertex 0.000000 0.025000 0.000000
  endloop
endfacet
facet normal 0.000007 -0.000000 -0.000002
  outer loop
    vertex 0.010353 0.025000 0.038637
    vertex 0.004545 0.011645 0.016961
    vertex 0.004428 0.011689 0.016526
  endloop
endfacet
facet normal 0.000514 0.000000 -0.000138
  outer loop
    vertex 0.004428 0.011689 0.016526
    vertex 0.000000 0.025000 0.000000
    vertex 0.010353 0.025000 0.038637
  endloop
endfacet
facet normal 0.000000 0.000001 -0.000000
  outer loop
    vertex -0.025000 0.010353 0.038637
    vertex -0.007005 0.010353 0.038637
    vertex -0.007026 0.010339 0.038585
  endloop
endfacet
facet normal 0.000000 0.000003 -0.000001
  outer loop
    vertex -0.012500 0.000062 0.000233
    vertex -0.012500 -0.000000 -0.000000
    vertex -0.025000 0.000000 0.000000
  endloop
endfacet
facet normal -0.000000 0.000005 -0.000001
  outer loop
    vertex -0.025000 0.010353 0.038637
    vertex -0.007026 0.010339 0.038585
    vertex -0.007128 0.010268 0.038321
  endloop
endfacet
facet normal 0.000000 0.000005 -0.000001
  outer loop
    vertex -0.025000 0.010353 0.038637
    vertex -0.007128 0.010268 0.038321
    vertex -0.007231 0.010196 0.038054
  endloop
endfacet
facet normal 0.000000 0.000005 -0.000001
  outer loop
    vertex -0.025000 0.010353 0.038637
    vertex -0.007231 0.010196 0.038054
    vertex -0.007332 0.010124 0.037782
  endloop
endfacet
facet normal 0.000000 0.000005 -0.000001
  outer loop
    vertex -0.025000 0.010353 0.038637
    vertex -0.007332 0.010124 0.037782
    vertex -0.007433 0.010050 0.037507
  endloop
endfacet
facet normal -0.000000 0.000005 -0.000001
  outer loop
    vertex -0.025000 0.010353 0.038637
    vertex -0.007433 0.010050 0.037507
    vertex -0.007533 0.009975 0.037228
  endloop
endfacet
facet normal -0.000000 0.000005 -0.000001
  outer loop
    vertex -0.025000 0.010353 0.038637
    vertex -0.007533 0.009975 0.037228
    vertex -0.007632 0.009899 0.036945
  endloop
endfacet
facet normal -0.000000 0.000005 -0.000001
  outer loop
    vertex -0.025000 0.010353 0.038637
    vertex -0.007632 0.009899 0.036945
    vertex -0.007731 0.009823 0.036659
  endloop
endfacet
facet normal -0.000000 0.000005 -0.000001
  outer loop
    vertex -0.025000 0.010353 0.038637
    vertex -0.007731 0.009823 0.036659
    vertex -0.007828 0.009745 0.036369
  endloop
endfacet
facet normal -0.000000 0.000005 -0.000001
  outer loop
    vertex -0.025000 0.010353 0.038637
    vertex -0.007828 0.009745 0.036369
    vertex -0.007925 0.009666 0.036075
  endloop
endfacet
facet normal 0.000000 0.000005 -0.000001
  outer loop
    vertex -0.025000 0.010353 0.038637
    vertex -0.007925 0.009666 0.036075
    vertex -0.008022 0.009587 0.035778
  endloop
endfacet
facet normal -0.000000 0.000005 -0.000001
  outer loop
    vertex -0.025000 0.010353 0.038637
    vertex -0.008022 0.009587 0.035778
    vertex -0.008117 0.009506 0.035477
  endloop
endfacet
facet normal -0.000000 0.000005 -0.000001
  outer loop
    vertex -0.025000 0.010353 0.038637
    vertex -0.008117 0.009506 0.035477
    vertex -0.008211 0.009425 0.035173
  endloop
endfacet
facet normal 0.000000 0.000005 -0.000001
  outer loop
    vertex -0.025000 0.010353 0.038637
    vertex -0.008211 0.009425 0.035173
    vertex -0.008305 0.009342 0.034865
  endloop
endfacet
facet normal -0.000000 0.000006 -0.000001
  outer loop
    vertex -0.025000 0.010353 0.038637
    vertex -0.008305 0.009342 0.034865
    vertex -0.008398 0.009259 0.034554
  endloop
endfacet
facet normal 0.000000 0.000006 -0.000002
  outer loop
    vertex -0.025000 0.010353 0.038637
    vertex -0.008398 0.009259 0.034554
    vertex -0.008490 0.009174 0.034239
  endloop
endfacet
facet normal -0.000000 0.000006 -0.000002
  outer loop
    vertex -0.025000 0.010353 0.038637
    vertex -0.008490 0.009174 0.034239
    vertex -0.008581 0.009089 0.033921
  endloop
endfacet
facet normal 0.000000 0.000006 -0.000002
  outer loop
    vertex -0.025000 0.010353 0.038637
    vertex -0.008581 0.009089 0.033921
    vertex -0.008672 0.009003 0.033599
  endloop
endfacet
facet normal 0.000000 0.000006 -0.000002
  outer loop
    vertex -0.012499 0.000187 0.000699
    vertex -0.012500 0.000062 0.000233
    vertex -0.025000 0.000000 0.000000
  endloop
endfacet
facet normal -0.000000 0.000006 -0.000002
  outer loop
    vertex -0.025000 0.010353 0.038637
    vertex -0.008672 0.009003 0.033599
    vertex -0.008761 0.008916 0.033274
  endloop
endfacet
facet normal -0.000000 0.000006 -0.000002
  outer loop
    vertex -0.012496 0.000312 0.001165
    vertex -0.012499 0.000187 0.000699
    vertex -0.025000 0.000000 0.000000
  endloop
endfacet
facet normal -0.000000 0.000006 -0.000002
  outer loop
    vertex -0.025000 0.010353 0.038637
    vertex -0.008761 0.008916 0.033274
    vertex -0.008850 0.008828 0.032946
  endloop
endfacet
facet normal 0.000000 0.000006 -0.000002
  outer loop
    vertex -0.012492 0.000437 0.001631
    vertex -0.012496 0.000312 0.001165
    vertex -0.025000 0.000000 0.000000
  endloop
endfacet
facet normal 0.000000 0.000006 -0.000002
  outer loop
    vertex -0.025000 0.010353 0.038637
    vertex -0.008850 0.008828 0.032946
    vertex -0.008938 0.008739 0.032614
  endloop
endfacet
facet normal -0.000000 0.000006 -0.000002
  outer loop
    vertex -0.025000 0.010353 0.038637
    vertex -0.008938 0.008739 0.032614
    vertex -0.009024 0.008649 0.032279
  endloop
endfacet
facet normal -0.000000 0.000006 -0.000002
  outer loop
    vertex -0.012487 0.000562 0.002096
    vertex -0.012492 0.000437 0.001631
    vertex -0.025000 0.000000 0.000000
  endloop
endfacet
facet normal -0.000000 0.000006 -0.000002
  outer loop
    vertex -0.025000 0.010353 0.038637
    vertex -0.009024 0.008649 0.032279
    vertex -0.009110 0.008559 0.031941
  endloop
endfacet
facet normal 0.000000 0.000006 -0.000002
  outer loop
    vertex -0.012481 0.000686 0.002562
    vertex -0.012487 0.000562 0.002096
    vertex -0.025000 0.000000 0.000000
  endloop
endfacet
facet normal 0.000000 0.000006 -0.000002
  outer loop
    vertex -0.025000 0.010353 0.038637
    vertex -0.009110 0.008559 0.031941
    vertex -0.009195 0.008467 0.031600
  endloop
endfacet
facet normal -0.000000 0.000006 -0.000002
  outer loop
    vertex -0.012474 0.000811 0.003027
    vertex -0.012481 0.000686 0.002562
    vertex -0.025000 0.000000 0.000000
  endloop
endfacet
facet normal 0.000000 0.000006 -0.000002
  outer loop
    vertex -0.025000 0.010353 0.038637
    vertex -0.009195 0.008467 0.031600
    vertex -0.009280 0.008375 0.031256
  endloop
endfacet
facet normal -0.000000 0.000006 -0.000002
  outer loop
    vertex -0.025000 0.010353 0.038637
    vertex -0.009280 0.008375 0.031256
    vertex -0.009363 0.008282 0.030908
  endloop
endfacet
facet normal 0.000000 0.000006 -0.000002
  outer loop
    vertex -0.012465 0.000936 0.003492
    vertex -0.012474 0.000811 0.003027
    vertex -0.025000 0.000000 0.000000
  endloop
endfacet
facet normal 0.000000 0.000006 -0.000002
  outer loop
    vertex -0.025000 0.010353 0.038637
    vertex -0.009363 0.008282 0.030908
    vertex -0.009445 0.008188 0.030558
  endloop
endfacet
facet normal 0.000000 0.000006 -0.000002
  outer loop
    vertex -0.012455 0.001060 0.003956
    vertex -0.012465 0.000936 0.003492
    vertex -0.025000 0.000000 0.000000
  endloop
endfacet
facet normal -0.000000 0.000006 -0.000002
  outer loop
    vertex -0.025000 0.010353 0.038637
    vertex -0.009445 0.008188 0.030558
    vertex -0.009526 0.008093 0.030204
  endloop
endfacet
facet normal 0.000000 0.000006 -0.000002
  outer loop
    vertex -0.012444 0.001184 0.004420
    vertex -0.012455 0.001060 0.003956
    vertex -0.025000 0.000000 0.000000
  endloop
endfacet
facet normal 0.000000 0.000006 -0.000002
  outer loop
    vertex -0.025000 0.010353 0.038637
    vertex -0.009526 0.008093 0.030204
    vertex -0.009607 0.007998 0.029847
  endloop
endfacet
facet normal 0.000000 0.000006 -0.000002
  outer loop
    vertex -0.025000 0.010353 0.038637
    vertex -0.009607 0.007998 0.029847
    vertex -0.009686 0.007901 0.029488
  endloop
endfacet
facet normal 0.000000 0.000006 -0.000002
  outer loop
    vertex -0.012431 0.001309 0.004884
    vertex -0.012444 0.001184 0.004420
    vertex -0.025000 0.000000 0.000000
  endloop
endfacet
facet normal 0.000000 0.000006 -0.000002
  outer loop
    vertex -0.025000 0.010353 0.038637
    vertex -0.009686 0.007901 0.029488
    vertex -0.009765 0.007804 0.029125
  endloop
endfacet
facet normal -0.000000 0.000006 -0.000002
  outer loop
    vertex -0.012418 0.001433 0.005347
    vertex -0.012431 0.001309 0.004884
    vertex -0.025000 0.000000 0.000000
  endloop
endfacet
facet normal 0.000000 0.000006 -0.000002
  outer loop
    vertex -0.025000 0.010353 0.038637
    vertex -0.009765 0.007804 0.029125
    vertex -0.009842 0.007706 0.028760
  endloop
endfacet
facet normal -0.000000 0.000006 -0.000002
  outer loop
    vertex -0.025000 0.010353 0.038637
    vertex -0.009842 0.007706 0.028760
    vertex -0.009918 0.007607 0.028391
  endloop
endfacet
facet normal 0.000000 0.000006 -0.000002
  outer loop
    vertex -0.012403 0.001557 0.005810
    vertex -0.012418 0.001433 0.005347
    vertex -0.025000 0.000000 0.000000
  endloop
endfacet
facet normal 0.000000 0.000006 -0.000002
  outer loop
    vertex -0.025000 0.010353 0.038637
    vertex -0.009918 0.007607 0.028391
    vertex -0.009994 0.007508 0.028020
  endloop
endfacet
facet normal -0.000000 0.000006 -0.000002
  outer loop
    vertex -0.012387 0.001681 0.006272
    vertex -0.012403 0.001557 0.005810
    vertex -0.025000 0.000000 0.000000
  endloop
endfacet
facet normal 0.000000 0.000006 -0.000002
  outer loop
    vertex -0.025000 0.010353 0.038637
    vertex -0.009994 0.007508 0.028020
    vertex -0.010068 0.007408 0.027646
  endloop
endfacet
facet normal -0.000000 0.000006 -0.000002
  outer loop
    vertex -0.012369 0.001804 0.006733
    vertex -0.012387 0.001681 0.006272
    vertex -0.025000 0.000000 0.000000
  endloop
endfacet
facet normal -0.000000 0.000006 -0.000002
  outer loop
    vertex -0.025000 0.010353 0.038637
    vertex -0.010068 0.007408 0.027646
    vertex -0.010142 0.007307 0.027270
  endloop
endfacet
facet normal 0.000000 0.000006 -0.000002
  outer loop
    vertex -0.025000 0.010353 0.038637
    vertex -0.010142 0.007307 0.027270
    vertex -0.010214 0.007205 0.026890
  endloop
endfacet
facet normal 0.000000 0.000006 -0.000002
  outer loop
    vertex -0.012350 0.001928 0.007194
    vertex -0.012369 0.001804 0.006733
    vertex -0.025000 0.000000 0.000000
  endloop
endfacet
facet normal 0.000000 0.000006 -0.000002
  outer loop
    vertex -0.025000 0.010353 0.038637
    vertex -0.010214 0.007205 0.026890
    vertex -0.010286 0.007103 0.026508
  endloop
endfacet
facet normal -0.000000 0.000006 -0.000002
  outer loop
    vertex -0.012331 0.002051 0.007654
    vertex -0.012350 0.001928 0.007194
    vertex -0.025000 0.000000 0.000000
  endloop
endfacet
facet normal 0.000000 0.000007 -0.000002
  outer loop
    vertex -0.025000 0.010353 0.038637
    vertex -0.010286 0.007103 0.026508
    vertex -0.010356 0.007000 0.026123
  endloop
endfacet
facet normal -0.000000 0.000006 -0.000002
  outer loop
    vertex -0.012309 0.002174 0.008114
    vertex -0.012331 0.002051 0.007654
    vertex -0.025000 0.000000 0.000000
  endloop
endfacet
facet normal 0.000000 0.000007 -0.000002
  outer loop
    vertex -0.025000 0.010353 0.038637
    vertex -0.010356 0.007000 0.026123
    vertex -0.010426 0.006896 0.025736
  endloop
endfacet
facet normal -0.000000 0.000006 -0.000002
  outer loop
    vertex -0.012287 0.002297 0.008572
    vertex -0.012309 0.002174 0.008114
    vertex -0.025000 0.000000 0.000000
  endloop
endfacet
facet normal -0.000000 0.000007 -0.000002
  outer loop
    vertex -0.025000 0.010353 0.038637
    vertex -0.010426 0.006896 0.025736
    vertex -0.010494 0.006791 0.025346
  endloop
endfacet
facet normal -0.000000 0.000007 -0.000002
  outer loop
    vertex -0.025000 0.010353 0.038637
    vertex -0.010494 0.006791 0.025346
    vertex -0.010561 0.006686 0.024953
  endloop
endfacet
facet normal -0.000000 0.000006 -0.000002
  outer loop
    vertex -0.012264 0.002419 0.009030
    vertex -0.012287 0.002297 0.008572
    vertex -0.025000 0.000000 0.000000
  endloop
endfacet
facet normal 0.000000 0.000007 -0.000002
  outer loop
    vertex -0.025000 0.010353 0.038637
    vertex -0.010561 0.006686 0.024953
    vertex -0.010628 0.006580 0.024558
  endloop
endfacet
facet normal 0.000000 0.000006 -0.000001
  outer loop
    vertex -0.012239 0.002542 0.009486
    vertex -0.012264 0.002419 0.009030
    vertex -0.025000 0.000000 0.000000
  endloop
endfacet
facet normal 0.000000 0.000007 -0.000002
  outer loop
    vertex -0.025000 0.010353 0.038637
    vertex -0.010628 0.006580 0.024558
    vertex -0.010693 0.006474 0.024161
  endloop
endfacet
facet normal 0.000000 0.000006 -0.000001
  outer loop
    vertex -0.012213 0.002664 0.009942
    vertex -0.012239 0.002542 0.009486
    vertex -0.025000 0.000000 0.000000
  endloop
endfacet
facet normal 0.000000 0.000007 -0.000002
  outer loop
    vertex -0.025000 0.010353 0.038637
    vertex -0.010693 0.006474 0.024161
    vertex -0.010757 0.006367 0.023761
  endloop
endfacet
facet normal -0.000000 0.000007 -0.000002
  outer loop
    vertex -0.025000 0.010353 0.038637
    vertex -0.010757 0.006367 0.023761
    vertex -0.010820 0.006259 0.023359
  endloop
endfacet
facet normal 0.000000 0.000006 -0.000001
  outer loop
    vertex -0.012186 0.002786 0.010397
    vertex -0.012213 0.002664 0.009942
    vertex -0.025000 0.000000 0.000000
  endloop
endfacet
facet normal 0.000000 0.000007 -0.000002
  outer loop
    vertex -0.025000 0.010353 0.038637
    vertex -0.010820 0.006259 0.023359
    vertex -0.010882 0.006151 0.022954
  endloop
endfacet
facet normal -0.000000 0.000006 -0.000001
  outer loop
    vertex -0.012157 0.002907 0.010851
    vertex -0.012186 0.002786 0.010397
    vertex -0.025000 0.000000 0.000000
  endloop
endfacet
facet normal -0.000000 0.000007 -0.000002
  outer loop
    vertex -0.025000 0.010353 0.038637
    vertex -0.010882 0.006151 0.022954
    vertex -0.010943 0.006042 0.022548
  endloop
endfacet
facet normal 0.000000 0.000005 -0.000001
  outer loop
    vertex -0.012128 0.003029 0.011303
    vertex -0.012157 0.002907 0.010851
    vertex -0.025000 0.000000 0.000000
  endloop
endfacet
facet normal 0.000000 0.000007 -0.000002
  outer loop
    vertex -0.025000 0.010353 0.038637
    vertex -0.010943 0.006042 0.022548
    vertex -0.011003 0.005932 0.022139
  endloop
endfacet
facet normal -0.000000 0.000005 -0.000001
  outer loop
    vertex -0.012097 0.003150 0.011755
    vertex -0.012128 0.003029 0.011303
    vertex -0.025000 0.000000 0.000000
  endloop
endfacet
facet normal 0.000000 0.000007 -0.000002
  outer loop
    vertex -0.025000 0.010353 0.038637
    vertex -0.011003 0.005932 0.022139
    vertex -0.011061 0.005822 0.021727
  endloop
endfacet
facet normal -0.000000 0.000005 -0.000001
  outer loop
    vertex -0.012065 0.003270 0.012205
    vertex -0.012097 0.003150 0.011755
    vertex -0.025000 0.000000 0.000000
  endloop
endfacet
facet normal 0.000000 0.000007 -0.000002
  outer loop
    vertex -0.025000 0.010353 0.038637
    vertex -0.011061 0.005822 0.021727
    vertex -0.011119 0.005711 0.021314
  endloop
endfacet
facet normal 0.000000 0.000007 -0.000002
  outer loop
    vertex -0.025000 0.010353 0.038637
    vertex -0.011119 0.005711 0.021314
    vertex -0.011176 0.005600 0.020898
  endloop
endfacet
facet normal 0.000000 0.000005 -0.000001
  outer loop
    vertex -0.012031 0.003391 0.012654
    vertex -0.012065 0.003270 0.012205
    vertex -0.025000 0.000000 0.000000
  endloop
endfacet
facet normal 0.000000 0.000007 -0.000002
  outer loop
    vertex -0.025000 0.010353 0.038637
    vertex -0.011176 0.005600 0.020898
    vertex -0.011231 0.005488 0.020481
  endloop
endfacet
facet normal 0.000000 0.000005 -0.000001
  outer loop
    vertex -0.011997 0.003511 0.013102
    vertex -0.012031 0.003391 0.012654
    vertex -0.025000 0.000000 0.000000
  endloop
endfacet
facet normal -0.000000 0.000007 -0.000002
  outer loop
    vertex -0.025000 0.010353 0.038637
    vertex -0.011231 0.005488 0.020481
    vertex -0.011285 0.005375 0.020061
  endloop
endfacet
facet normal -0.000000 0.000005 -0.000001
  outer loop
    vertex -0.011961 0.003630 0.013549
    vertex -0.011997 0.003511 0.013102
    vertex -0.025000 0.000000 0.000000
  endloop
endfacet
facet normal -0.000000 0.000007 -0.000002
  outer loop
    vertex -0.025000 0.010353 0.038637
    vertex -0.011285 0.005375 0.020061
    vertex -0.011338 0.005262 0.019639
  endloop
endfacet
facet normal 0.000000 0.000005 -0.000001
  outer loop
    vertex -0.011924 0.003750 0.013994
    vertex -0.011961 0.003630 0.013549
    vertex -0.025000 0.000000 0.000000
  endloop
endfacet
facet normal 0.000000 0.000007 -0.000002
  outer loop
    vertex -0.025000 0.010353 0.038637
    vertex -0.011338 0.005262 0.019639
    vertex -0.011390 0.005149 0.019215
  endloop
endfacet
facet normal 0.000000 0.000005 -0.000001
  outer loop
    vertex -0.011886 0.003869 0.014438
    vertex -0.011924 0.003750 0.013994
    vertex -0.025000 0.000000 0.000000
  endloop
endfacet
facet normal 0.000000 0.000007 -0.000002
  outer loop
    vertex -0.025000 0.010353 0.038637
    vertex -0.011390 0.005149 0.019215
    vertex -0.011441 0.005035 0.018790
  endloop
endfacet
facet normal -0.000000 0.000005 -0.000001
  outer loop
    vertex -0.011847 0.003987 0.014880
    vertex -0.011886 0.003869 0.014438
    vertex -0.025000 0.000000 0.000000
  endloop
endfacet
facet normal 0.000000 0.000007 -0.000002
  outer loop
    vertex -0.025000 0.010353 0.038637
    vertex -0.011441 0.005035 0.018790
    vertex -0.011491 0.004920 0.018362
  endloop
endfacet
facet normal 0.000000 0.000007 -0.000002
  outer loop
    vertex -0.025000 0.010353 0.038637
    vertex -0.011491 0.004920 0.018362
    vertex -0.011540 0.004805 0.017933
  endloop
endfacet
facet normal -0.000000 0.000005 -0.000001
  outer loop
    vertex -0.011807 0.004105 0.015321
    vertex -0.011847 0.003987 0.014880
    vertex -0.025000 0.000000 0.000000
  endloop
endfacet
facet normal 0.000000 0.000007 -0.000002
  outer loop
    vertex -0.025000 0.010353 0.038637
    vertex -0.011540 0.004805 0.017933
    vertex -0.011587 0.004690 0.017502
  endloop
endfacet
facet normal 0.000000 0.000005 -0.000001
  outer loop
    vertex -0.011765 0.004223 0.015761
    vertex -0.011807 0.004105 0.015321
    vertex -0.025000 0.000000 0.000000
  endloop
endfacet
facet normal -0.000000 0.000007 -0.000002
  outer loop
    vertex -0.025000 0.010353 0.038637
    vertex -0.011587 0.004690 0.017502
    vertex -0.011633 0.004574 0.017069
  endloop
endfacet
facet normal 0.000000 0.000005 -0.000001
  outer loop
    vertex -0.011722 0.004340 0.016198
    vertex -0.011765 0.004223 0.015761
    vertex -0.025000 0.000000 0.000000
  endloop
endfacet
facet normal 0.000000 0.000007 -0.000002
  outer loop
    vertex -0.025000 0.010353 0.038637
    vertex -0.011633 0.004574 0.017069
    vertex -0.011678 0.004457 0.016635
  endloop
endfacet
facet normal -0.000000 0.000005 -0.000001
  outer loop
    vertex -0.011678 0.004457 0.016635
    vertex -0.011722 0.004340 0.016198
    vertex -0.025000 0.000000 0.000000
  endloop
endfacet
facet normal -0.000000 0.000515 -0.000138
  outer loop
    vertex -0.011678 0.004457 0.016635
    vertex -0.025000 0.000000 0.000000
    vertex -0.025000 0.010353 0.038637
  endloop
endfacet
facet normal -0.000004 0.000000 -0.000001
  outer loop
    vertex -0.010353 -0.025000 0.038637
    vertex -0.010353 -0.007005 0.038637
    vertex -0.010286 -0.007103 0.038388
  endloop
endfacet
facet normal -0.000005 -0.000000 -0.000001
  outer loop
    vertex -0.010353 -0.025000 0.038637
    vertex -0.010286 -0.007103 0.038388
    vertex -0.010214 -0.007205 0.038121
  endloop
endfacet
facet normal -0.000005 0.000000 -0.000001
  outer loop
    vertex -0.010353 -0.025000 0.038637
    vertex -0.010214 -0.007205 0.038121
    vertex -0.010142 -0.007307 0.037850
  endloop
endfacet
facet normal -0.000005 -0.000000 -0.000001
  outer loop
    vertex -0.010353 -0.025000 0.038637
    vertex -0.010142 -0.007307 0.037850
    vertex -0.010068 -0.007408 0.037576
  endloop
endfacet
facet normal -0.000005 0.000000 -0.000001
  outer loop
    vertex -0.010353 -0.025000 0.038637
    vertex -0.010068 -0.007408 0.037576
    vertex -0.009994 -0.007508 0.037298
  endloop
endfacet
facet normal -0.000005 -0.000000 -0.000001
  outer loop
    vertex -0.010353 -0.025000 0.038637
    vertex -0.009994 -0.007508 0.037298
    vertex -0.009918 -0.007607 0.037016
  endloop
endfacet
facet normal -0.000005 0.000000 -0.000001
  outer loop
    vertex -0.010353 -0.025000 0.038637
    vertex -0.009918 -0.007607 0.037016
    vertex -0.009842 -0.007706 0.036731
  endloop
endfacet
facet normal -0.000004 0.000000 -0.000001
  outer loop
    vertex -0.000094 -0.012500 0.000349
    vertex -0.000000 -0.012500 0.000000
    vertex -0.000000 -0.025000 0.000000
  endloop
endfacet
facet normal -0.000005 -0.000000 -0.000001
  outer loop
    vertex -0.010353 -0.025000 0.038637
    vertex -0.009842 -0.007706 0.036731
    vertex -0.009765 -0.007804 0.036442
  endloop
endfacet
facet normal -0.000005 0.000000 -0.000001
  outer loop
    vertex -0.010353 -0.025000 0.038637
    vertex -0.009765 -0.007804 0.036442
    vertex -0.009686 -0.007901 0.036149
  endloop
endfacet
facet normal -0.000005 -0.000000 -0.000001
  outer loop
    vertex -0.010353 -0.025000 0.038637
    vertex -0.009686 -0.007901 0.036149
    vertex -0.009607 -0.007998 0.035853
  endloop
endfacet
facet normal -0.000005 0.000000 -0.000001
  outer loop
    vertex -0.010353 -0.025000 0.038637
    vertex -0.009607 -0.007998 0.035853
    vertex -0.009526 -0.008093 0.035553
  endloop
endfacet
facet normal -0.000005 -0.000000 -0.000001
  outer loop
    vertex -0.010353 -0.025000 0.038637
    vertex -0.009526 -0.008093 0.035553
    vertex -0.009445 -0.008188 0.035249
  endloop
endfacet
facet normal -0.000005 -0.000000 -0.000001
  outer loop
    vertex -0.010353 -0.025000 0.038637
    vertex -0.009445 -0.008188 0.035249
    vertex -0.009363 -0.008282 0.034942
  endloop
endfacet
facet normal -0.000006 -0.000000 -0.000001
  outer loop
    vertex -0.010353 -0.025000 0.038637
    vertex -0.009363 -0.008282 0.034942
    vertex -0.009280 -0.008375 0.034632
  endloop
endfacet
facet normal -0.000006 -0.000000 -0.000001
  outer loop
    vertex -0.010353 -0.025000 0.038637
    vertex -0.009280 -0.008375 0.034632
    vertex -0.009195 -0.008467 0.034318
  endloop
endfacet
facet normal -0.000006 0.000000 -0.000002
  outer loop
    vertex -0.010353 -0.025000 0.038637
    vertex -0.009195 -0.008467 0.034318
    vertex -0.009110 -0.008559 0.034000
  endloop
endfacet
facet normal -0.000006 -0.000000 -0.000002
  outer loop
    vertex -0.010353 -0.025000 0.038637
    vertex -0.009110 -0.008559 0.034000
    vertex -0.009024 -0.008649 0.033680
  endloop
endfacet
facet normal -0.000006 -0.000000 -0.000002
  outer loop
    vertex -0.010353 -0.025000 0.038637
    vertex -0.009024 -0.008649 0.033680
    vertex -0.008938 -0.008739 0.033356
  endloop
endfacet
facet normal -0.000006 -0.000000 -0.000002
  outer loop
    vertex -0.000219 -0.012498 0.000815
    vertex -0.000094 -0.012500 0.000349
    vertex -0.000000 -0.025000 0.000000
  endloop
endfacet
facet normal -0.000006 -0.000000 -0.000002
  outer loop
    vertex -0.010353 -0.025000 0.038637
    vertex -0.008938 -0.008739 0.033356
    vertex -0.008850 -0.008828 0.033028
  endloop
endfacet
facet normal -0.000006 0.000000 -0.000002
  outer loop
    vertex -0.000343 -0.012495 0.001281
    vertex -0.000219 -0.012498 0.000815
    vertex -0.000000 -0.025000 0.000000
  endloop
endfacet
facet normal -0.000006 -0.000000 -0.000002
  outer loop
    vertex -0.010353 -0.025000 0.038637
    vertex -0.008850 -0.008828 0.033028
    vertex -0.008761 -0.008916 0.032697
  endloop
endfacet
facet normal -0.000006 0.000000 -0.000002
  outer loop
    vertex -0.000468 -0.012491 0.001747
    vertex -0.000343 -0.012495 0.001281
    vertex -0.000000 -0.025000 0.000000
  endloop
endfacet
facet normal -0.000006 0.000000 -0.000002
  outer loop
    vertex -0.010353 -0.025000 0.038637
    vertex -0.008761 -0.008916 0.032697
    vertex -0.008672 -0.009003 0.032363
  endloop
endfacet
facet normal -0.000006 0.000000 -0.000002
  outer loop
    vertex -0.000593 -0.012486 0.002213
    vertex -0.000468 -0.012491 0.001747
    vertex -0.000000 -0.025000 0.000000
  endloop
endfacet
facet normal -0.000006 0.000000 -0.000002
  outer loop
    vertex -0.010353 -0.025000 0.038637
    vertex -0.008672 -0.009003 0.032363
    vertex -0.008581 -0.009089 0.032026
  endloop
endfacet
facet normal -0.000006 0.000000 -0.000002
  outer loop
    vertex -0.010353 -0.025000 0.038637
    vertex -0.008581 -0.009089 0.032026
    vertex -0.008490 -0.009174 0.031686
  endloop
endfacet
facet normal -0.000006 -0.000000 -0.000002
  outer loop
    vertex -0.000718 -0.012479 0.002678
    vertex -0.000593 -0.012486 0.002213
    vertex -0.000000 -0.025000 0.000000
  endloop
endfacet
facet normal -0.000006 -0.000000 -0.000002
  outer loop
    vertex -0.010353 -0.025000 0.038637
    vertex -0.008490 -0.009174 0.031686
    vertex -0.008398 -0.009259 0.031342
  endloop
endfacet
facet normal -0.000006 0.000000 -0.000002
  outer loop
    vertex -0.000842 -0.012472 0.003143
    vertex -0.000718 -0.012479 0.002678
    vertex -0.000000 -0.025000 0.000000
  endloop
endfacet
facet normal -0.000006 -0.000000 -0.000002
  outer loop
    vertex -0.010353 -0.025000 0.038637
    vertex -0.008398 -0.009259 0.031342
    vertex -0.008305 -0.009342 0.030995
  endloop
endfacet
facet normal -0.000006 -0.000000 -0.000002
  outer loop
    vertex -0.000967 -0.012463 0.003608
    vertex -0.000842 -0.012472 0.003143
    vertex -0.000000 -0.025000 0.000000
  endloop
endfacet
facet normal -0.000006 0.000000 -0.000002
  outer loop
    vertex -0.010353 -0.025000 0.038637
    vertex -0.008305 -0.009342 0.030995
    vertex -0.008211 -0.009425 0.030646
  endloop
endfacet
facet normal -0.000006 0.000000 -0.000002
  outer loop
    vertex -0.010353 -0.025000 0.038637
    vertex -0.008211 -0.009425 0.030646
    vertex -0.008117 -0.009506 0.030293
  endloop
endfacet
facet normal -0.000006 0.000000 -0.000002
  outer loop
    vertex -0.001091 -0.012452 0.004072
    vertex -0.000967 -0.012463 0.003608
    vertex -0.000000 -0.025000 0.000000
  endloop
endfacet
facet normal -0.000006 -0.000000 -0.000002
  outer loop
    vertex -0.010353 -0.025000 0.038637
    vertex -0.008117 -0.009506 0.030293
    vertex -0.008022 -0.009587 0.029937
  endloop
endfacet
facet normal -0.000006 -0.000000 -0.000002
  outer loop
    vertex -0.001216 -0.012441 0.004536
    vertex -0.001091 -0.012452 0.004072
    vertex -0.000000 -0.025000 0.000000
  endloop
endfacet
facet normal -0.000006 0.000000 -0.000002
  outer loop
    vertex -0.010353 -0.025000 0.038637
    vertex -0.008022 -0.009587 0.029937
    vertex -0.007925 -0.009666 0.029578
  endloop
endfacet
facet normal -0.000006 -0.000000 -0.000002
  outer loop
    vertex -0.001340 -0.012428 0.005000
    vertex -0.001216 -0.012441 0.004536
    vertex -0.000000 -0.025000 0.000000
  endloop
endfacet
facet normal -0.000006 0.000000 -0.000002
  outer loop
    vertex -0.010353 -0.025000 0.038637
    vertex -0.007925 -0.009666 0.029578
    vertex -0.007828 -0.009745 0.029216
  endloop
endfacet
facet normal -0.000006 -0.000000 -0.000002
  outer loop
    vertex -0.010353 -0.025000 0.038637
    vertex -0.007828 -0.009745 0.029216
    vertex -0.007731 -0.009823 0.028851
  endloop
endfacet
facet normal -0.000006 0.000000 -0.000002
  outer loop
    vertex -0.001464 -0.012414 0.005463
    vertex -0.001340 -0.012428 0.005000
    vertex -0.000000 -0.025000 0.000000
  endloop
endfacet
facet normal -0.000006 0.000000 -0.000002
  outer loop
    vertex -0.010353 -0.025000 0.038637
    vertex -0.007731 -0.009823 0.028851
    vertex -0.007632 -0.009899 0.028484
  endloop
endfacet
facet normal -0.000006 -0.000000 -0.000002
  outer loop
    vertex -0.001588 -0.012399 0.005925
    vertex -0.001464 -0.012414 0.005463
    vertex -0.000000 -0.025000 0.000000
  endloop
endfacet
facet normal -0.000006 -0.000000 -0.000002
  outer loop
    vertex -0.010353 -0.025000 0.038637
    vertex -0.007632 -0.009899 0.028484
    vertex -0.007533 -0.009975 0.028113
  endloop
endfacet
facet normal -0.000006 0.000000 -0.000002
  outer loop
    vertex -0.001711 -0.012382 0.006387
    vertex -0.001588 -0.012399 0.005925
    vertex -0.000000 -0.025000 0.000000
  endloop
endfacet
facet normal -0.000006 0.000000 -0.000002
  outer loop
    vertex -0.010353 -0.025000 0.038637
    vertex -0.007533 -0.009975 0.028113
    vertex -0.007433 -0.010050 0.027740
  endloop
endfacet
facet normal -0.000006 -0.000000 -0.000002
  outer loop
    vertex -0.010353 -0.025000 0.038637
    vertex -0.007433 -0.010050 0.027740
    vertex -0.007332 -0.010124 0.027364
  endloop
endfacet
facet normal -0.000006 -0.000000 -0.000002
  outer loop
    vertex -0.001835 -0.012365 0.006849
    vertex -0.001711 -0.012382 0.006387
    vertex -0.000000 -0.025000 0.000000
  endloop
endfacet
facet normal -0.000006 0.000000 -0.000002
  outer loop
    vertex -0.010353 -0.025000 0.038637
    vertex -0.007332 -0.010124 0.027364
    vertex -0.007231 -0.010196 0.026985
  endloop
endfacet
facet normal -0.000006 -0.000000 -0.000002
  outer loop
    vertex -0.001959 -0.012346 0.007309
    vertex -0.001835 -0.012365 0.006849
    vertex -0.000000 -0.025000 0.000000
  endloop
endfacet
facet normal -0.000006 -0.000000 -0.000002
  outer loop
    vertex -0.010353 -0.025000 0.038637
    vertex -0.007231 -0.010196 0.026985
    vertex -0.007128 -0.010268 0.026604
  endloop
endfacet
facet normal -0.000006 -0.000000 -0.000002
  outer loop
    vertex -0.002082 -0.012325 0.007769
    vertex -0.001959 -0.012346 0.007309
    vertex -0.000000 -0.025000 0.000000
  endloop
endfacet
facet normal -0.000007 0.000000 -0.000002
  outer loop
    vertex -0.010353 -0.025000 0.038637
    vertex -0.007128 -0.010268 0.026604
    vertex -0.007026 -0.010339 0.026220
  endloop
endfacet
facet normal -0.000007 0.000000 -0.000002
  outer loop
    vertex -0.010353 -0.025000 0.038637
    vertex -0.007026 -0.010339 0.026220
    vertex -0.006922 -0.010409 0.025833
  endloop
endfacet
facet normal -0.000006 0.000000 -0.000002
  outer loop
    vertex -0.002205 -0.012304 0.008228
    vertex -0.002082 -0.012325 0.007769
    vertex -0.000000 -0.025000 0.000000
  endloop
endfacet
facet normal -0.000007 0.000000 -0.000002
  outer loop
    vertex -0.010353 -0.025000 0.038637
    vertex -0.006922 -0.010409 0.025833
    vertex -0.006818 -0.010477 0.025444
  endloop
endfacet
facet normal -0.000006 -0.000000 -0.000002
  outer loop
    vertex -0.002328 -0.012281 0.008687
    vertex -0.002205 -0.012304 0.008228
    vertex -0.000000 -0.025000 0.000000
  endloop
endfacet
facet normal -0.000007 -0.000000 -0.000002
  outer loop
    vertex -0.010353 -0.025000 0.038637
    vertex -0.006818 -0.010477 0.025444
    vertex -0.006713 -0.010545 0.025052
  endloop
endfacet
facet normal -0.000006 -0.000000 -0.000002
  outer loop
    vertex -0.002450 -0.012258 0.009144
    vertex -0.002328 -0.012281 0.008687
    vertex -0.000000 -0.025000 0.000000
  endloop
endfacet
facet normal -0.000007 0.000000 -0.000002
  outer loop
    vertex -0.010353 -0.025000 0.038637
    vertex -0.006713 -0.010545 0.025052
    vertex -0.006607 -0.010611 0.024657
  endloop
endfacet
facet normal -0.000007 0.000000 -0.000002
  outer loop
    vertex -0.010353 -0.025000 0.038637
    vertex -0.006607 -0.010611 0.024657
    vertex -0.006501 -0.010677 0.024261
  endloop
endfacet
facet normal -0.000006 0.000000 -0.000001
  outer loop
    vertex -0.002572 -0.012232 0.009600
    vertex -0.002450 -0.012258 0.009144
    vertex -0.000000 -0.025000 0.000000
  endloop
endfacet
facet normal -0.000007 -0.000000 -0.000002
  outer loop
    vertex -0.010353 -0.025000 0.038637
    vertex -0.006501 -0.010677 0.024261
    vertex -0.006394 -0.010741 0.023861
  endloop
endfacet
facet normal -0.000006 -0.000000 -0.000001
  outer loop
    vertex -0.002694 -0.012206 0.010056
    vertex -0.002572 -0.012232 0.009600
    vertex -0.000000 -0.025000 0.000000
  endloop
endfacet
facet normal -0.000007 0.000000 -0.000002
  outer loop
    vertex -0.010353 -0.025000 0.038637
    vertex -0.006394 -0.010741 0.023861
    vertex -0.006286 -0.010804 0.023460
  endloop
endfacet
facet normal -0.000006 0.000000 -0.000001
  outer loop
    vertex -0.002816 -0.012179 0.010511
    vertex -0.002694 -0.012206 0.010056
    vertex -0.000000 -0.025000 0.000000
  endloop
endfacet
facet normal -0.000007 0.000000 -0.000002
  outer loop
    vertex -0.010353 -0.025000 0.038637
    vertex -0.006286 -0.010804 0.023460
    vertex -0.006178 -0.010867 0.023056
  endloop
endfacet
facet normal -0.000006 -0.000000 -0.000001
  outer loop
    vertex -0.002938 -0.012150 0.010964
    vertex -0.002816 -0.012179 0.010511
    vertex -0.000000 -0.025000 0.000000
  endloop
endfacet
facet normal -0.000007 -0.000000 -0.000002
  outer loop
    vertex -0.010353 -0.025000 0.038637
    vertex -0.006178 -0.010867 0.023056
    vertex -0.006069 -0.010928 0.022650
  endloop
endfacet
facet normal -0.000007 0.000000 -0.000002
  outer loop
    vertex -0.010353 -0.025000 0.038637
    vertex -0.006069 -0.010928 0.022650
    vertex -0.005959 -0.010988 0.022241
  endloop
endfacet
facet normal -0.000005 0.000000 -0.000001
  outer loop
    vertex -0.003059 -0.012120 0.011416
    vertex -0.002938 -0.012150 0.010964
    vertex -0.000000 -0.025000 0.000000
  endloop
endfacet
facet normal -0.000007 0.000000 -0.000002
  outer loop
    vertex -0.010353 -0.025000 0.038637
    vertex -0.005959 -0.010988 0.022241
    vertex -0.005849 -0.011047 0.021830
  endloop
endfacet
facet normal -0.000005 0.000000 -0.000001
  outer loop
    vertex -0.003180 -0.012089 0.011868
    vertex -0.003059 -0.012120 0.011416
    vertex -0.000000 -0.025000 0.000000
  endloop
endfacet
facet normal -0.000007 0.000000 -0.000002
  outer loop
    vertex -0.010353 -0.025000 0.038637
    vertex -0.005849 -0.011047 0.021830
    vertex -0.005739 -0.011105 0.021417
  endloop
endfacet
facet normal -0.000005 -0.000000 -0.000001
  outer loop
    vertex -0.003301 -0.012056 0.012318
    vertex -0.003180 -0.012089 0.011868
    vertex -0.000000 -0.025000 0.000000
  endloop
endfacet
facet normal -0.000007 0.000000 -0.000002
  outer loop
    vertex -0.010353 -0.025000 0.038637
    vertex -0.005739 -0.011105 0.021417
    vertex -0.005628 -0.011162 0.021002
  endloop
endfacet
facet normal -0.000005 0.000000 -0.000001
  outer loop
    vertex -0.003421 -0.012023 0.012767
    vertex -0.003301 -0.012056 0.012318
    vertex -0.000000 -0.025000 0.000000
  endloop
endfacet
facet normal -0.000007 0.000000 -0.000002
  outer loop
    vertex -0.010353 -0.025000 0.038637
    vertex -0.005628 -0.011162 0.021002
    vertex -0.005516 -0.011217 0.020585
  endloop
endfacet
facet normal -0.000005 -0.000000 -0.000001
  outer loop
    vertex -0.003541 -0.011988 0.013214
    vertex -0.003421 -0.012023 0.012767
    vertex -0.000000 -0.025000 0.000000
  endloop
endfacet
facet normal -0.000007 -0.000000 -0.000002
  outer loop
    vertex -0.010353 -0.025000 0.038637
    vertex -0.005516 -0.011217 0.020585
    vertex -0.005403 -0.011272 0.020166
  endloop
endfacet
facet normal -0.000005 0.000000 -0.000001
  outer loop
    vertex -0.003660 -0.011952 0.013660
    vertex -0.003541 -0.011988 0.013214
    vertex -0.000000 -0.025000 0.000000
  endloop
endfacet
facet normal -0.000007 0.000000 -0.000002
  outer loop
    vertex -0.010353 -0.025000 0.038637
    vertex -0.005403 -0.011272 0.020166
    vertex -0.005291 -0.011325 0.019745
  endloop
endfacet
facet normal -0.000007 0.000000 -0.000002
  outer loop
    vertex -0.010353 -0.025000 0.038637
    vertex -0.005291 -0.011325 0.019745
    vertex -0.005177 -0.011377 0.019322
  endloop
endfacet
facet normal -0.000005 0.000000 -0.000001
  outer loop
    vertex -0.003779 -0.011915 0.014105
    vertex -0.003660 -0.011952 0.013660
    vertex -0.000000 -0.025000 0.000000
  endloop
endfacet
facet normal -0.000007 0.000000 -0.000002
  outer loop
    vertex -0.010353 -0.025000 0.038637
    vertex -0.005177 -0.011377 0.019322
    vertex -0.005063 -0.011429 0.018896
  endloop
endfacet
facet normal -0.000005 -0.000000 -0.000001
  outer loop
    vertex -0.003898 -0.011877 0.014549
    vertex -0.003779 -0.011915 0.014105
    vertex -0.000000 -0.025000 0.000000
  endloop
endfacet
facet normal -0.000007 0.000000 -0.000002
  outer loop
    vertex -0.010353 -0.025000 0.038637
    vertex -0.005063 -0.011429 0.018896
    vertex -0.004949 -0.011479 0.018469
  endloop
endfacet
facet normal -0.000005 0.000000 -0.000001
  outer loop
    vertex -0.004017 -0.011837 0.014991
    vertex -0.003898 -0.011877 0.014549
    vertex -0.000000 -0.025000 0.000000
  endloop
endfacet
facet normal -0.000007 0.000000 -0.000002
  outer loop
    vertex -0.010353 -0.025000 0.038637
    vertex -0.004949 -0.011479 0.018469
    vertex -0.004834 -0.011527 0.018041
  endloop
endfacet
facet normal -0.000005 -0.000000 -0.000001
  outer loop
    vertex -0.004135 -0.011796 0.015431
    vertex -0.004017 -0.011837 0.014991
    vertex -0.000000 -0.025000 0.000000
  endloop
endfacet
facet normal -0.000007 0.000000 -0.000002
  outer loop
    vertex -0.010353 -0.025000 0.038637
    vertex -0.004834 -0.011527 0.018041
    vertex -0.004719 -0.011575 0.017610
  endloop
endfacet
facet normal -0.000005 -0.000000 -0.000001
  outer loop
    vertex -0.004252 -0.011754 0.015870
    vertex -0.004135 -0.011796 0.015431
    vertex -0.000000 -0.025000 0.000000
  endloop
endfacet
facet normal -0.000007 0.000000 -0.000002
  outer loop
    vertex -0.010353 -0.025000 0.038637
    vertex -0.004719 -0.011575 0.017610
    vertex -0.004603 -0.011622 0.017178
  endloop
endfacet
facet normal -0.000005 0.000000 -0.000001
  outer loop
    vertex -0.004370 -0.011711 0.016308
    vertex -0.004252 -0.011754 0.015870
    vertex -0.000000 -0.025000 0.000000
  endloop
endfacet
facet normal -0.000007 0.000000 -0.000002
  outer loop
    vertex -0.010353 -0.025000 0.038637
    vertex -0.004603 -0.011622 0.017178
    vertex -0.004486 -0.011667 0.016743
  endloop
endfacet
facet normal -0.000005 -0.000000 -0.000001
  outer loop
    vertex -0.004486 -0.011667 0.016743
    vertex -0.004370 -0.011711 0.016308
    vertex -0.000000 -0.025000 0.000000
  endloop
endfacet
facet normal -0.000515 -0.000000 -0.000138
  outer loop
    vertex -0.004486 -0.011667 0.016743
    vertex -0.000000 -0.025000 0.000000
    vertex -0.010353 -0.025000 0.038637
  endloop
endfacet
endsolid rotorBlades
