solid statorBlades
facet normal -0.000000 -0.004000 0.000000
  outer loop
    vertex 0.100000 0.000000 0.200000
    vertex 0.080000 0.000000 0.200000
    vertex 0.080000 0.000000 0.000000
  endloop
endfacet
facet normal 0.000000 -0.004000 -0.000000
  outer loop
    vertex 0.100000 0.000000 0.200000
    vertex 0.080000 0.000000 0.000000
    vertex 0.100000 0.000000 0.000000
  endloop
endfacet
facet normal 0.004000 -0.000000 0.000000
  outer loop
    vertex 0.000000 0.100000 0.200000
    vertex 0.000000 0.080000 0.200000
    vertex 0.000000 0.080000 0.000000
  endloop
endfacet
facet normal 0.004000 -0.000000 0.000000
  outer loop
    vertex 0.000000 0.100000 0.200000
    vertex 0.000000 0.080000 0.000000
    vertex 0.000000 0.100000 0.000000
  endloop
endfacet
facet normal 0.000000 0.004000 0.000000
  outer loop
    vertex -0.080000 0.000000 0.000000
    vertex -0.100000 0.000000 0.000000
    vertex -0.100000 0.000000 0.200000
  endloop
endfacet
facet normal 0.000000 0.004000 0.000000
  outer loop
    vertex -0.080000 0.000000 0.200000
    vertex -0.080000 0.000000 0.000000
    vertex -0.100000 0.000000 0.200000
  endloop
endfacet
facet normal -0.004000 0.000000 0.000000
  outer loop
    vertex -0.000000 -0.080000 0.000000
    vertex -0.000000 -0.100000 0.000000
    vertex -0.000000 -0.100000 0.200000
  endloop
endfacet
facet normal -0.004000 0.000000 0.000000
  outer loop
    vertex -0.000000 -0.080000 0.200000
    vertex -0.000000 -0.080000 0.000000
    vertex -0.000000 -0.100000 0.200000
  endloop
endfacet
endsolid statorBlades
