solid statorBlades
facet normal -0.0 -0.0040000007 0.0
  outer loop
    vertex 0.1 0.0 0.2
    vertex 0.08 0.0 0.2
    vertex 0.08 0.0 0.0
  endloop
endfacet
facet normal 0.0 -0.0040000007 -0.0
  outer loop
    vertex 0.1 0.0 0.2
    vertex 0.08 0.0 0.0
    vertex 0.1 0.0 0.0
  endloop
endfacet
facet normal 0.0040000007 -8.881786e-19 0.0
  outer loop
    vertex 2.220446e-17 0.1 0.2
    vertex 1.7763568e-17 0.08 0.2
    vertex 1.7763568e-17 0.08 0.0
  endloop
endfacet
facet normal 0.0040000007 -8.881786e-19 0.0
  outer loop
    vertex 2.220446e-17 0.1 0.2
    vertex 1.7763568e-17 0.08 0.0
    vertex 2.220446e-17 0.1 0.0
  endloop
endfacet
facet normal 4.898587e-19 0.0040000007 0.0
  outer loop
    vertex -0.08 9.797174e-18 0.0
    vertex -0.1 1.2246468e-17 0.0
    vertex -0.1 1.2246468e-17 0.2
  endloop
endfacet
facet normal 4.898587e-19 0.0040000007 -0.0
  outer loop
    vertex -0.08 9.797174e-18 0.0
    vertex -0.1 1.2246468e-17 0.2
    vertex -0.08 9.797174e-18 0.2
  endloop
endfacet
facet normal -0.0040000007 8.881786e-19 0.0
  outer loop
    vertex -1.7763568e-17 -0.08 0.0
    vertex -2.220446e-17 -0.1 0.0
    vertex -2.220446e-17 -0.1 0.2
  endloop
endfacet
facet normal -0.0040000007 8.881786e-19 0.0
  outer loop
    vertex -1.7763568e-17 -0.08 0.0
    vertex -2.220446e-17 -0.1 0.2
    vertex -1.7763568e-17 -0.08 0.2
  endloop
endfacet
endsolid statorBlades
